%TF.GenerationSoftware,KiCad,Pcbnew,9.0.2*%
%TF.CreationDate,2025-10-29T16:28:32+01:00*%
%TF.ProjectId,neverx_main,6e657665-7278-45f6-9d61-696e2e6b6963,rev?*%
%TF.SameCoordinates,Original*%
%TF.FileFunction,Copper,L2,Bot*%
%TF.FilePolarity,Positive*%
%FSLAX46Y46*%
G04 Gerber Fmt 4.6, Leading zero omitted, Abs format (unit mm)*
G04 Created by KiCad (PCBNEW 9.0.2) date 2025-10-29 16:28:32*
%MOMM*%
%LPD*%
G01*
G04 APERTURE LIST*
G04 Aperture macros list*
%AMRoundRect*
0 Rectangle with rounded corners*
0 $1 Rounding radius*
0 $2 $3 $4 $5 $6 $7 $8 $9 X,Y pos of 4 corners*
0 Add a 4 corners polygon primitive as box body*
4,1,4,$2,$3,$4,$5,$6,$7,$8,$9,$2,$3,0*
0 Add four circle primitives for the rounded corners*
1,1,$1+$1,$2,$3*
1,1,$1+$1,$4,$5*
1,1,$1+$1,$6,$7*
1,1,$1+$1,$8,$9*
0 Add four rect primitives between the rounded corners*
20,1,$1+$1,$2,$3,$4,$5,0*
20,1,$1+$1,$4,$5,$6,$7,0*
20,1,$1+$1,$6,$7,$8,$9,0*
20,1,$1+$1,$8,$9,$2,$3,0*%
G04 Aperture macros list end*
%TA.AperFunction,ComponentPad*%
%ADD10R,2.000000X2.000000*%
%TD*%
%TA.AperFunction,ComponentPad*%
%ADD11C,2.000000*%
%TD*%
%TA.AperFunction,ComponentPad*%
%ADD12RoundRect,0.300000X-1.000000X-0.700000X1.000000X-0.700000X1.000000X0.700000X-1.000000X0.700000X0*%
%TD*%
%TA.AperFunction,ComponentPad*%
%ADD13RoundRect,1.000000X0.000010X-0.300000X0.000010X0.300000X-0.000010X0.300000X-0.000010X-0.300000X0*%
%TD*%
%TA.AperFunction,ComponentPad*%
%ADD14RoundRect,1.000000X-0.300000X-0.000010X0.300000X-0.000010X0.300000X0.000010X-0.300000X0.000010X0*%
%TD*%
%TA.AperFunction,ComponentPad*%
%ADD15RoundRect,1.000000X-0.000010X0.300000X-0.000010X-0.300000X0.000010X-0.300000X0.000010X0.300000X0*%
%TD*%
%TA.AperFunction,ComponentPad*%
%ADD16RoundRect,0.400000X0.600000X-0.400000X0.600000X0.400000X-0.600000X0.400000X-0.600000X-0.400000X0*%
%TD*%
%TA.AperFunction,ComponentPad*%
%ADD17O,2.000000X1.600000*%
%TD*%
%TA.AperFunction,ComponentPad*%
%ADD18RoundRect,0.800000X0.200000X-0.000010X0.200000X0.000010X-0.200000X0.000010X-0.200000X-0.000010X0*%
%TD*%
%TA.AperFunction,Conductor*%
%ADD19C,0.800000*%
%TD*%
%TA.AperFunction,Conductor*%
%ADD20C,1.600000*%
%TD*%
G04 APERTURE END LIST*
D10*
%TO.P,BZ2,1,+*%
%TO.N,+3.3V*%
X141700000Y-142000000D03*
D11*
%TO.P,BZ2,2,-*%
%TO.N,Net-(BZ2--)*%
X148300000Y-142000000D03*
%TD*%
D12*
%TO.P,J1,1,Pin_1*%
%TO.N,+3.3V*%
X131700000Y-45500000D03*
D13*
%TO.P,J1,2,Pin_2*%
%TO.N,GND*%
X134500000Y-42700000D03*
D14*
%TO.P,J1,3,Pin_3*%
%TO.N,CLK*%
X137300000Y-45500000D03*
D15*
%TO.P,J1,4,Pin_4*%
%TO.N,DAT1*%
X134500000Y-48300000D03*
D11*
%TO.P,J1,5,Pin_5*%
%TO.N,unconnected-(J1-Pin_5-Pad5)*%
X134500000Y-45500000D03*
%TD*%
%TO.P,SW1,1,1*%
%TO.N,KEY_VAL*%
X131750000Y-145250000D03*
X131750000Y-138750000D03*
%TO.P,SW1,2,2*%
%TO.N,GND*%
X136250000Y-145250000D03*
X136250000Y-138750000D03*
%TD*%
D12*
%TO.P,J4,1,Pin_1*%
%TO.N,+3.3V*%
X156200000Y-70100000D03*
D13*
%TO.P,J4,2,Pin_2*%
%TO.N,GND*%
X159000000Y-67300000D03*
D14*
%TO.P,J4,3,Pin_3*%
%TO.N,CLK*%
X161800000Y-70100000D03*
D15*
%TO.P,J4,4,Pin_4*%
%TO.N,DAT4*%
X159000000Y-72900000D03*
D11*
%TO.P,J4,5,Pin_5*%
%TO.N,unconnected-(J4-Pin_5-Pad5)*%
X159000000Y-70100000D03*
%TD*%
D12*
%TO.P,J3,1,Pin_1*%
%TO.N,+3.3V*%
X131700000Y-70000000D03*
D13*
%TO.P,J3,2,Pin_2*%
%TO.N,GND*%
X134500000Y-67200000D03*
D14*
%TO.P,J3,3,Pin_3*%
%TO.N,CLK*%
X137300000Y-70000000D03*
D15*
%TO.P,J3,4,Pin_4*%
%TO.N,DAT3*%
X134500000Y-72800000D03*
D11*
%TO.P,J3,5,Pin_5*%
%TO.N,unconnected-(J3-Pin_5-Pad5)*%
X134500000Y-70000000D03*
%TD*%
D12*
%TO.P,J5,1,Pin_1*%
%TO.N,+3.3V*%
X131700000Y-94500000D03*
D13*
%TO.P,J5,2,Pin_2*%
%TO.N,GND*%
X134500000Y-91700000D03*
D14*
%TO.P,J5,3,Pin_3*%
%TO.N,CLK*%
X137300000Y-94500000D03*
D15*
%TO.P,J5,4,Pin_4*%
%TO.N,DAT5*%
X134500000Y-97300000D03*
D11*
%TO.P,J5,5,Pin_5*%
%TO.N,unconnected-(J5-Pin_5-Pad5)*%
X134500000Y-94500000D03*
%TD*%
D12*
%TO.P,J2,1,Pin_1*%
%TO.N,+3.3V*%
X156200000Y-45500000D03*
D13*
%TO.P,J2,2,Pin_2*%
%TO.N,GND*%
X159000000Y-42700000D03*
D14*
%TO.P,J2,3,Pin_3*%
%TO.N,CLK*%
X161800000Y-45500000D03*
D15*
%TO.P,J2,4,Pin_4*%
%TO.N,DAT2*%
X159000000Y-48300000D03*
D11*
%TO.P,J2,5,Pin_5*%
%TO.N,unconnected-(J2-Pin_5-Pad5)*%
X159000000Y-45500000D03*
%TD*%
D16*
%TO.P,U3,1,GND*%
%TO.N,GND*%
X128250000Y-128120000D03*
D17*
%TO.P,U3,2,VCC*%
%TO.N,+3.3V*%
X128250000Y-125580000D03*
%TO.P,U3,3,SCL*%
%TO.N,LCD_CLK*%
X128250000Y-123040000D03*
%TO.P,U3,4,SDA*%
%TO.N,LCD_DAT*%
X128250000Y-120500000D03*
%TO.P,U3,5,RES*%
%TO.N,LCD_RES*%
X128250000Y-117960000D03*
%TO.P,U3,6,DVC*%
%TO.N,LCD_DC*%
X128250000Y-115420000D03*
%TO.P,U3,7,BLK*%
%TO.N,LCD_BL*%
X128250000Y-112880000D03*
%TD*%
D18*
%TO.P,U1,1,3V3*%
%TO.N,+3.3V*%
X122000000Y-142350000D03*
%TO.P,U1,2,3V3*%
X121942099Y-139810000D03*
%TO.P,U1,3,GPIO01*%
%TO.N,BUZZER*%
X121942099Y-137270000D03*
%TO.P,U1,4,GPIO02*%
%TO.N,KEY_VAL*%
X121942099Y-134730000D03*
%TO.P,U1,5,GPIO43*%
%TO.N,KEY_CONF*%
X121942099Y-132190000D03*
%TO.P,U1,6,GPIO44*%
%TO.N,unconnected-(U1-GPIO44-Pad6)*%
X121942099Y-129650000D03*
%TO.P,U1,7,GPIO37*%
%TO.N,unconnected-(U1-GPIO37-Pad7)*%
X121942099Y-127110000D03*
%TO.P,U1,8,GPIO36*%
%TO.N,unconnected-(U1-GPIO36-Pad8)*%
X121942099Y-124570000D03*
%TO.P,U1,9,GPIO35*%
%TO.N,LCD_CLK*%
X121942099Y-122030000D03*
%TO.P,U1,10,GPIO00*%
%TO.N,LCD_DAT*%
X121942099Y-119490000D03*
%TO.P,U1,11,GPIO45*%
%TO.N,LCD_RES*%
X121942099Y-116950000D03*
%TO.P,U1,12,GPIO48*%
%TO.N,LCD_DC*%
X121942099Y-114410000D03*
%TO.P,U1,13,GPIO47*%
%TO.N,LCD_BL*%
X121942099Y-111870000D03*
%TO.P,U1,14,GPIO21*%
%TO.N,unconnected-(U1-GPIO21-Pad14)*%
X121942099Y-109330000D03*
%TO.P,U1,15,GND*%
%TO.N,unconnected-(U1-GND-Pad15)*%
X121942099Y-106790000D03*
%TO.P,U1,16,VSYS*%
%TO.N,unconnected-(U1-VSYS-Pad16)*%
X121942099Y-104250000D03*
%TO.P,U1,17,DC5*%
%TO.N,unconnected-(U1-DC5-Pad17)*%
X91800000Y-104250000D03*
%TO.P,U1,18,GND*%
%TO.N,unconnected-(U1-GND-Pad18)*%
X91800000Y-106790000D03*
%TO.P,U1,19,GPIO14*%
%TO.N,DAT1*%
X91800000Y-109330000D03*
%TO.P,U1,20,GPIO13*%
%TO.N,DAT2*%
X91800000Y-111870000D03*
%TO.P,U1,21,GPIO12*%
%TO.N,DAT3*%
X91800000Y-114410000D03*
%TO.P,U1,22,GPIO11*%
%TO.N,DAT4*%
X91800000Y-116950000D03*
%TO.P,U1,23,GPIO10*%
%TO.N,DAT5*%
X91800000Y-119490000D03*
%TO.P,U1,24,GPIO09*%
%TO.N,DAT6*%
X91800000Y-122030000D03*
%TO.P,U1,25,GPIO46*%
%TO.N,CLK*%
X91800000Y-124570000D03*
%TO.P,U1,26,GPIO03*%
%TO.N,unconnected-(U1-GPIO03-Pad26)*%
X91800000Y-127110000D03*
%TO.P,U1,27,GPIO08*%
%TO.N,unconnected-(U1-GPIO08-Pad27)*%
X91800000Y-129650000D03*
%TO.P,U1,28,GPIO18*%
%TO.N,unconnected-(U1-GPIO18-Pad28)*%
X91800000Y-132190000D03*
%TO.P,U1,29,GPIO17*%
%TO.N,unconnected-(U1-GPIO17-Pad29)*%
X91800000Y-134730000D03*
%TO.P,U1,30,GPIO16*%
%TO.N,unconnected-(U1-GPIO16-Pad30)*%
X91800000Y-137270000D03*
%TO.P,U1,31,GND*%
%TO.N,GND*%
X91800000Y-139810000D03*
%TO.P,U1,32,3V3*%
%TO.N,+3.3V*%
X91800000Y-142350000D03*
%TD*%
D11*
%TO.P,SW2,1,1*%
%TO.N,KEY_CONF*%
X153750000Y-145250000D03*
X153750000Y-138750000D03*
%TO.P,SW2,2,2*%
%TO.N,GND*%
X158250000Y-145250000D03*
X158250000Y-138750000D03*
%TD*%
D12*
%TO.P,J6,1,Pin_1*%
%TO.N,+3.3V*%
X156200000Y-94500000D03*
D13*
%TO.P,J6,2,Pin_2*%
%TO.N,GND*%
X159000000Y-91700000D03*
D14*
%TO.P,J6,3,Pin_3*%
%TO.N,CLK*%
X161800000Y-94500000D03*
D15*
%TO.P,J6,4,Pin_4*%
%TO.N,DAT6*%
X159000000Y-97300000D03*
D11*
%TO.P,J6,5,Pin_5*%
%TO.N,unconnected-(J6-Pin_5-Pad5)*%
X159000000Y-94500000D03*
%TD*%
D19*
%TO.N,CLK*%
X161500000Y-70100000D02*
X161500000Y-45500000D01*
X161500000Y-94500000D02*
X161500000Y-70100000D01*
X161500000Y-97371448D02*
X159670448Y-99201000D01*
X141701000Y-99201000D02*
X137000000Y-94500000D01*
X137000000Y-94500000D02*
X137000000Y-45500000D01*
X159670448Y-99201000D02*
X141701000Y-99201000D01*
X161500000Y-94500000D02*
X161500000Y-97371448D01*
D20*
%TO.N,+3.3V*%
X124500000Y-142000000D02*
X122350000Y-142000000D01*
X151399000Y-40399000D02*
X156500000Y-45500000D01*
X132000000Y-94500000D02*
X132000000Y-122286999D01*
X132000000Y-122286999D02*
X128706999Y-125580000D01*
X156500000Y-94500000D02*
X156500000Y-45500000D01*
X141700000Y-142000000D02*
X124500000Y-142000000D01*
X133663866Y-40399000D02*
X151399000Y-40399000D01*
X132000000Y-42062866D02*
X133663866Y-40399000D01*
X122350000Y-142000000D02*
X122000000Y-142350000D01*
X91800000Y-142350000D02*
X122000000Y-142350000D01*
X132000000Y-45500000D02*
X132000000Y-42062866D01*
X132000000Y-94500000D02*
X132000000Y-45500000D01*
X124500000Y-127000000D02*
X124500000Y-142000000D01*
X125920000Y-125580000D02*
X124500000Y-127000000D01*
X128706999Y-125580000D02*
X125920000Y-125580000D01*
%TD*%
%TA.AperFunction,Conductor*%
%TO.N,GND*%
G36*
X169458691Y-30519407D02*
G01*
X169494655Y-30568907D01*
X169499500Y-30599500D01*
X169499500Y-154400500D01*
X169480593Y-154458691D01*
X169431093Y-154494655D01*
X169400500Y-154499500D01*
X90599500Y-154499500D01*
X90541309Y-154480593D01*
X90505345Y-154431093D01*
X90500500Y-154400500D01*
X90500500Y-151378710D01*
X91649500Y-151378710D01*
X91649500Y-151621289D01*
X91681161Y-151861781D01*
X91681161Y-151861786D01*
X91743944Y-152096092D01*
X91743948Y-152096105D01*
X91836772Y-152320204D01*
X91836774Y-152320208D01*
X91836776Y-152320212D01*
X91958064Y-152530289D01*
X91958066Y-152530292D01*
X92105729Y-152722731D01*
X92105731Y-152722733D01*
X92105735Y-152722738D01*
X92277262Y-152894265D01*
X92277266Y-152894268D01*
X92277268Y-152894270D01*
X92469707Y-153041933D01*
X92469711Y-153041936D01*
X92679788Y-153163224D01*
X92903900Y-153256054D01*
X93138211Y-153318838D01*
X93378712Y-153350500D01*
X93378713Y-153350500D01*
X93621287Y-153350500D01*
X93621288Y-153350500D01*
X93861789Y-153318838D01*
X94096100Y-153256054D01*
X94320212Y-153163224D01*
X94530289Y-153041936D01*
X94722738Y-152894265D01*
X94894265Y-152722738D01*
X95041936Y-152530289D01*
X95163224Y-152320212D01*
X95256054Y-152096100D01*
X95318838Y-151861789D01*
X95350500Y-151621288D01*
X95350500Y-151378712D01*
X95350500Y-151378710D01*
X164649500Y-151378710D01*
X164649500Y-151621289D01*
X164681161Y-151861781D01*
X164681161Y-151861786D01*
X164743944Y-152096092D01*
X164743948Y-152096105D01*
X164836772Y-152320204D01*
X164836774Y-152320208D01*
X164836776Y-152320212D01*
X164958064Y-152530289D01*
X164958066Y-152530292D01*
X165105729Y-152722731D01*
X165105731Y-152722733D01*
X165105735Y-152722738D01*
X165277262Y-152894265D01*
X165277266Y-152894268D01*
X165277268Y-152894270D01*
X165469707Y-153041933D01*
X165469711Y-153041936D01*
X165679788Y-153163224D01*
X165903900Y-153256054D01*
X166138211Y-153318838D01*
X166378712Y-153350500D01*
X166378713Y-153350500D01*
X166621287Y-153350500D01*
X166621288Y-153350500D01*
X166861789Y-153318838D01*
X167096100Y-153256054D01*
X167320212Y-153163224D01*
X167530289Y-153041936D01*
X167722738Y-152894265D01*
X167894265Y-152722738D01*
X168041936Y-152530289D01*
X168163224Y-152320212D01*
X168256054Y-152096100D01*
X168318838Y-151861789D01*
X168350500Y-151621288D01*
X168350500Y-151378712D01*
X168318838Y-151138211D01*
X168256054Y-150903900D01*
X168163224Y-150679788D01*
X168041936Y-150469711D01*
X167894265Y-150277262D01*
X167722738Y-150105735D01*
X167722733Y-150105731D01*
X167722731Y-150105729D01*
X167530292Y-149958066D01*
X167530289Y-149958064D01*
X167320212Y-149836776D01*
X167320208Y-149836774D01*
X167320204Y-149836772D01*
X167096105Y-149743948D01*
X167096104Y-149743947D01*
X167096100Y-149743946D01*
X166861789Y-149681162D01*
X166861786Y-149681161D01*
X166861784Y-149681161D01*
X166621289Y-149649500D01*
X166621288Y-149649500D01*
X166378712Y-149649500D01*
X166378710Y-149649500D01*
X166138218Y-149681161D01*
X166138213Y-149681161D01*
X165903907Y-149743944D01*
X165903894Y-149743948D01*
X165679795Y-149836772D01*
X165469707Y-149958066D01*
X165277268Y-150105729D01*
X165105729Y-150277268D01*
X164958066Y-150469707D01*
X164836772Y-150679795D01*
X164743948Y-150903894D01*
X164743944Y-150903907D01*
X164681161Y-151138213D01*
X164681161Y-151138218D01*
X164649500Y-151378710D01*
X95350500Y-151378710D01*
X95318838Y-151138211D01*
X95256054Y-150903900D01*
X95163224Y-150679788D01*
X95041936Y-150469711D01*
X94894265Y-150277262D01*
X94722738Y-150105735D01*
X94722733Y-150105731D01*
X94722731Y-150105729D01*
X94530292Y-149958066D01*
X94530289Y-149958064D01*
X94320212Y-149836776D01*
X94320208Y-149836774D01*
X94320204Y-149836772D01*
X94096105Y-149743948D01*
X94096104Y-149743947D01*
X94096100Y-149743946D01*
X93861789Y-149681162D01*
X93861786Y-149681161D01*
X93861784Y-149681161D01*
X93621289Y-149649500D01*
X93621288Y-149649500D01*
X93378712Y-149649500D01*
X93378710Y-149649500D01*
X93138218Y-149681161D01*
X93138213Y-149681161D01*
X92903907Y-149743944D01*
X92903894Y-149743948D01*
X92679795Y-149836772D01*
X92469707Y-149958066D01*
X92277268Y-150105729D01*
X92105729Y-150277268D01*
X91958066Y-150469707D01*
X91836772Y-150679795D01*
X91743948Y-150903894D01*
X91743944Y-150903907D01*
X91681161Y-151138213D01*
X91681161Y-151138218D01*
X91649500Y-151378710D01*
X90500500Y-151378710D01*
X90500500Y-145031904D01*
X91544500Y-145031904D01*
X91544500Y-145268095D01*
X91581445Y-145501363D01*
X91654432Y-145725992D01*
X91732494Y-145879199D01*
X91761657Y-145936433D01*
X91900483Y-146127510D01*
X92067490Y-146294517D01*
X92258567Y-146433343D01*
X92469008Y-146540568D01*
X92693632Y-146613553D01*
X92693633Y-146613553D01*
X92693636Y-146613554D01*
X92926905Y-146650500D01*
X92926908Y-146650500D01*
X93163095Y-146650500D01*
X93396363Y-146613554D01*
X93396364Y-146613553D01*
X93396368Y-146613553D01*
X93620992Y-146540568D01*
X93831433Y-146433343D01*
X94022510Y-146294517D01*
X94189517Y-146127510D01*
X94328343Y-145936433D01*
X94435568Y-145725992D01*
X94508553Y-145501368D01*
X94514742Y-145462292D01*
X94545500Y-145268095D01*
X94545500Y-145031904D01*
X119254500Y-145031904D01*
X119254500Y-145268095D01*
X119291445Y-145501363D01*
X119364432Y-145725992D01*
X119442494Y-145879199D01*
X119471657Y-145936433D01*
X119610483Y-146127510D01*
X119777490Y-146294517D01*
X119968567Y-146433343D01*
X120179008Y-146540568D01*
X120403632Y-146613553D01*
X120403633Y-146613553D01*
X120403636Y-146613554D01*
X120636905Y-146650500D01*
X120636908Y-146650500D01*
X120873095Y-146650500D01*
X121106363Y-146613554D01*
X121106364Y-146613553D01*
X121106368Y-146613553D01*
X121330992Y-146540568D01*
X121541433Y-146433343D01*
X121732510Y-146294517D01*
X121899517Y-146127510D01*
X122038343Y-145936433D01*
X122145568Y-145725992D01*
X122218553Y-145501368D01*
X122224742Y-145462292D01*
X122255500Y-145268095D01*
X122255500Y-145155515D01*
X130549500Y-145155515D01*
X130549500Y-145344484D01*
X130579058Y-145531113D01*
X130630720Y-145690110D01*
X130637453Y-145710832D01*
X130723240Y-145879199D01*
X130834310Y-146032073D01*
X130967927Y-146165690D01*
X131120801Y-146276760D01*
X131289168Y-146362547D01*
X131468882Y-146420940D01*
X131468883Y-146420940D01*
X131468886Y-146420941D01*
X131655516Y-146450500D01*
X131655519Y-146450500D01*
X131844484Y-146450500D01*
X132031113Y-146420941D01*
X132031114Y-146420940D01*
X132031118Y-146420940D01*
X132210832Y-146362547D01*
X132379199Y-146276760D01*
X132532073Y-146165690D01*
X132665690Y-146032073D01*
X132776760Y-145879199D01*
X132862547Y-145710832D01*
X132920940Y-145531118D01*
X132920941Y-145531113D01*
X132950500Y-145344484D01*
X132950500Y-145155554D01*
X135050000Y-145155554D01*
X135050000Y-145344445D01*
X135079546Y-145530996D01*
X135137914Y-145710635D01*
X135223667Y-145878936D01*
X135223669Y-145878940D01*
X135328406Y-146023098D01*
X135793018Y-145558485D01*
X135809890Y-145587708D01*
X135912292Y-145690110D01*
X135941512Y-145706979D01*
X135476900Y-146171592D01*
X135621059Y-146276330D01*
X135621063Y-146276332D01*
X135789364Y-146362085D01*
X135969003Y-146420453D01*
X136155555Y-146450000D01*
X136344445Y-146450000D01*
X136530996Y-146420453D01*
X136710635Y-146362085D01*
X136878934Y-146276333D01*
X137023098Y-146171591D01*
X136558486Y-145706980D01*
X136587708Y-145690110D01*
X136690110Y-145587708D01*
X136706980Y-145558486D01*
X137171591Y-146023098D01*
X137276333Y-145878934D01*
X137362085Y-145710635D01*
X137420453Y-145530996D01*
X137450000Y-145344445D01*
X137450000Y-145155554D01*
X137449994Y-145155515D01*
X152549500Y-145155515D01*
X152549500Y-145344484D01*
X152579058Y-145531113D01*
X152630720Y-145690110D01*
X152637453Y-145710832D01*
X152723240Y-145879199D01*
X152834310Y-146032073D01*
X152967927Y-146165690D01*
X153120801Y-146276760D01*
X153289168Y-146362547D01*
X153468882Y-146420940D01*
X153468883Y-146420940D01*
X153468886Y-146420941D01*
X153655516Y-146450500D01*
X153655519Y-146450500D01*
X153844484Y-146450500D01*
X154031113Y-146420941D01*
X154031114Y-146420940D01*
X154031118Y-146420940D01*
X154210832Y-146362547D01*
X154379199Y-146276760D01*
X154532073Y-146165690D01*
X154665690Y-146032073D01*
X154776760Y-145879199D01*
X154862547Y-145710832D01*
X154920940Y-145531118D01*
X154920941Y-145531113D01*
X154950500Y-145344484D01*
X154950500Y-145155554D01*
X157050000Y-145155554D01*
X157050000Y-145344445D01*
X157079546Y-145530996D01*
X157137914Y-145710635D01*
X157223667Y-145878936D01*
X157223669Y-145878940D01*
X157328406Y-146023098D01*
X157793018Y-145558485D01*
X157809890Y-145587708D01*
X157912292Y-145690110D01*
X157941512Y-145706979D01*
X157476900Y-146171592D01*
X157621059Y-146276330D01*
X157621063Y-146276332D01*
X157789364Y-146362085D01*
X157969003Y-146420453D01*
X158155555Y-146450000D01*
X158344445Y-146450000D01*
X158530996Y-146420453D01*
X158710635Y-146362085D01*
X158878934Y-146276333D01*
X159023098Y-146171591D01*
X158558486Y-145706980D01*
X158587708Y-145690110D01*
X158690110Y-145587708D01*
X158706980Y-145558486D01*
X159171591Y-146023098D01*
X159276333Y-145878934D01*
X159362085Y-145710635D01*
X159420453Y-145530996D01*
X159450000Y-145344445D01*
X159450000Y-145155554D01*
X159420453Y-144969003D01*
X159362085Y-144789364D01*
X159276332Y-144621063D01*
X159276330Y-144621059D01*
X159171592Y-144476900D01*
X158706979Y-144941512D01*
X158690110Y-144912292D01*
X158587708Y-144809890D01*
X158558485Y-144793018D01*
X159023098Y-144328406D01*
X158878940Y-144223669D01*
X158878936Y-144223667D01*
X158710635Y-144137914D01*
X158530996Y-144079546D01*
X158344445Y-144050000D01*
X158155555Y-144050000D01*
X157969003Y-144079546D01*
X157789364Y-144137914D01*
X157621064Y-144223667D01*
X157476900Y-144328406D01*
X157941513Y-144793019D01*
X157912292Y-144809890D01*
X157809890Y-144912292D01*
X157793019Y-144941513D01*
X157328406Y-144476900D01*
X157223667Y-144621064D01*
X157137914Y-144789364D01*
X157079546Y-144969003D01*
X157050000Y-145155554D01*
X154950500Y-145155554D01*
X154950500Y-145155515D01*
X154920941Y-144968886D01*
X154917680Y-144958850D01*
X154862547Y-144789168D01*
X154776760Y-144620801D01*
X154665690Y-144467927D01*
X154532073Y-144334310D01*
X154379199Y-144223240D01*
X154379198Y-144223239D01*
X154379196Y-144223238D01*
X154210832Y-144137453D01*
X154031113Y-144079058D01*
X153844484Y-144049500D01*
X153844481Y-144049500D01*
X153655519Y-144049500D01*
X153655516Y-144049500D01*
X153468886Y-144079058D01*
X153289167Y-144137453D01*
X153120803Y-144223238D01*
X152967928Y-144334309D01*
X152834309Y-144467928D01*
X152723238Y-144620803D01*
X152637453Y-144789167D01*
X152579058Y-144968886D01*
X152549500Y-145155515D01*
X137449994Y-145155515D01*
X137420453Y-144969003D01*
X137362085Y-144789364D01*
X137276332Y-144621063D01*
X137276330Y-144621059D01*
X137171592Y-144476900D01*
X136706979Y-144941512D01*
X136690110Y-144912292D01*
X136587708Y-144809890D01*
X136558485Y-144793018D01*
X137023098Y-144328406D01*
X136878940Y-144223669D01*
X136878936Y-144223667D01*
X136710635Y-144137914D01*
X136530996Y-144079546D01*
X136344445Y-144050000D01*
X136155555Y-144050000D01*
X135969003Y-144079546D01*
X135789364Y-144137914D01*
X135621064Y-144223667D01*
X135476900Y-144328406D01*
X135941513Y-144793019D01*
X135912292Y-144809890D01*
X135809890Y-144912292D01*
X135793019Y-144941513D01*
X135328406Y-144476900D01*
X135223667Y-144621064D01*
X135137914Y-144789364D01*
X135079546Y-144969003D01*
X135050000Y-145155554D01*
X132950500Y-145155554D01*
X132950500Y-145155515D01*
X132920941Y-144968886D01*
X132917680Y-144958850D01*
X132862547Y-144789168D01*
X132776760Y-144620801D01*
X132665690Y-144467927D01*
X132532073Y-144334310D01*
X132379199Y-144223240D01*
X132379198Y-144223239D01*
X132379196Y-144223238D01*
X132210832Y-144137453D01*
X132031113Y-144079058D01*
X131844484Y-144049500D01*
X131844481Y-144049500D01*
X131655519Y-144049500D01*
X131655516Y-144049500D01*
X131468886Y-144079058D01*
X131289167Y-144137453D01*
X131120803Y-144223238D01*
X130967928Y-144334309D01*
X130834309Y-144467928D01*
X130723238Y-144620803D01*
X130637453Y-144789167D01*
X130579058Y-144968886D01*
X130549500Y-145155515D01*
X122255500Y-145155515D01*
X122255500Y-145031904D01*
X122218554Y-144798636D01*
X122218553Y-144798632D01*
X122145568Y-144574008D01*
X122038343Y-144363567D01*
X121899517Y-144172490D01*
X121732510Y-144005483D01*
X121541433Y-143866657D01*
X121541432Y-143866656D01*
X121541430Y-143866655D01*
X121330992Y-143759432D01*
X121106363Y-143686445D01*
X120873095Y-143649500D01*
X120873092Y-143649500D01*
X120636908Y-143649500D01*
X120636905Y-143649500D01*
X120403636Y-143686445D01*
X120179007Y-143759432D01*
X119968569Y-143866655D01*
X119777491Y-144005482D01*
X119610482Y-144172491D01*
X119471655Y-144363569D01*
X119364432Y-144574007D01*
X119291445Y-144798636D01*
X119254500Y-145031904D01*
X94545500Y-145031904D01*
X94508554Y-144798636D01*
X94508553Y-144798632D01*
X94435568Y-144574008D01*
X94328343Y-144363567D01*
X94189517Y-144172490D01*
X94022510Y-144005483D01*
X93831433Y-143866657D01*
X93831432Y-143866656D01*
X93831430Y-143866655D01*
X93620992Y-143759432D01*
X93396363Y-143686445D01*
X93163095Y-143649500D01*
X93163092Y-143649500D01*
X92926908Y-143649500D01*
X92926905Y-143649500D01*
X92693636Y-143686445D01*
X92469007Y-143759432D01*
X92258569Y-143866655D01*
X92067491Y-144005482D01*
X91900482Y-144172491D01*
X91761655Y-144363569D01*
X91654432Y-144574007D01*
X91581445Y-144798636D01*
X91544500Y-145031904D01*
X90500500Y-145031904D01*
X90500500Y-142809391D01*
X90519407Y-142751200D01*
X90568907Y-142715236D01*
X90630093Y-142715236D01*
X90679593Y-142751200D01*
X90687247Y-142763550D01*
X90760302Y-142903407D01*
X90888891Y-143061109D01*
X91046593Y-143189698D01*
X91226951Y-143283909D01*
X91422582Y-143339886D01*
X91541963Y-143350500D01*
X91689927Y-143350499D01*
X91689935Y-143350500D01*
X91701459Y-143350500D01*
X122106516Y-143350500D01*
X122106528Y-143350499D01*
X122258032Y-143350499D01*
X122258036Y-143350499D01*
X122377418Y-143339886D01*
X122573049Y-143283909D01*
X122753407Y-143189698D01*
X122911109Y-143061109D01*
X122930819Y-143036937D01*
X122982246Y-143003787D01*
X123007545Y-143000500D01*
X124401459Y-143000500D01*
X140414425Y-143000500D01*
X140472616Y-143019407D01*
X140508580Y-143068907D01*
X140510807Y-143077442D01*
X140511134Y-143078233D01*
X140555445Y-143144548D01*
X140555448Y-143144552D01*
X140621769Y-143188867D01*
X140666231Y-143197711D01*
X140680241Y-143200498D01*
X140680246Y-143200498D01*
X140680252Y-143200500D01*
X140680253Y-143200500D01*
X142719747Y-143200500D01*
X142719748Y-143200500D01*
X142778231Y-143188867D01*
X142844552Y-143144552D01*
X142888867Y-143078231D01*
X142900500Y-143019748D01*
X142900500Y-141905515D01*
X147099500Y-141905515D01*
X147099500Y-142094484D01*
X147129058Y-142281113D01*
X147170298Y-142408036D01*
X147187453Y-142460832D01*
X147273240Y-142629199D01*
X147384310Y-142782073D01*
X147517927Y-142915690D01*
X147670801Y-143026760D01*
X147839168Y-143112547D01*
X148018882Y-143170940D01*
X148018883Y-143170940D01*
X148018886Y-143170941D01*
X148205516Y-143200500D01*
X148205519Y-143200500D01*
X148394484Y-143200500D01*
X148581113Y-143170941D01*
X148581114Y-143170940D01*
X148581118Y-143170940D01*
X148760832Y-143112547D01*
X148929199Y-143026760D01*
X149082073Y-142915690D01*
X149215690Y-142782073D01*
X149326760Y-142629199D01*
X149412547Y-142460832D01*
X149470940Y-142281118D01*
X149470941Y-142281113D01*
X149500500Y-142094484D01*
X149500500Y-141905515D01*
X149470941Y-141718886D01*
X149444948Y-141638888D01*
X149412547Y-141539168D01*
X149326760Y-141370801D01*
X149215690Y-141217927D01*
X149082073Y-141084310D01*
X148929199Y-140973240D01*
X148929198Y-140973239D01*
X148929196Y-140973238D01*
X148760832Y-140887453D01*
X148581113Y-140829058D01*
X148394484Y-140799500D01*
X148394481Y-140799500D01*
X148205519Y-140799500D01*
X148205516Y-140799500D01*
X148018886Y-140829058D01*
X147839167Y-140887453D01*
X147670803Y-140973238D01*
X147517928Y-141084309D01*
X147384309Y-141217928D01*
X147273238Y-141370803D01*
X147187453Y-141539167D01*
X147129058Y-141718886D01*
X147099500Y-141905515D01*
X142900500Y-141905515D01*
X142900500Y-140980252D01*
X142888867Y-140921769D01*
X142844552Y-140855448D01*
X142844548Y-140855445D01*
X142778233Y-140811134D01*
X142778231Y-140811133D01*
X142778228Y-140811132D01*
X142778227Y-140811132D01*
X142719758Y-140799501D01*
X142719748Y-140799500D01*
X140680252Y-140799500D01*
X140680251Y-140799500D01*
X140680241Y-140799501D01*
X140621772Y-140811132D01*
X140621766Y-140811134D01*
X140555451Y-140855445D01*
X140555445Y-140855451D01*
X140511134Y-140921766D01*
X140507403Y-140930776D01*
X140505763Y-140930096D01*
X140481629Y-140973195D01*
X140426065Y-140998813D01*
X140414425Y-140999500D01*
X125599500Y-140999500D01*
X125541309Y-140980593D01*
X125505345Y-140931093D01*
X125500500Y-140900500D01*
X125500500Y-138655515D01*
X130549500Y-138655515D01*
X130549500Y-138844484D01*
X130579058Y-139031113D01*
X130601197Y-139099249D01*
X130637453Y-139210832D01*
X130723240Y-139379199D01*
X130834310Y-139532073D01*
X130967927Y-139665690D01*
X131120801Y-139776760D01*
X131289168Y-139862547D01*
X131468882Y-139920940D01*
X131468883Y-139920940D01*
X131468886Y-139920941D01*
X131655516Y-139950500D01*
X131655519Y-139950500D01*
X131844484Y-139950500D01*
X132031113Y-139920941D01*
X132031114Y-139920940D01*
X132031118Y-139920940D01*
X132210832Y-139862547D01*
X132379199Y-139776760D01*
X132532073Y-139665690D01*
X132665690Y-139532073D01*
X132776760Y-139379199D01*
X132862547Y-139210832D01*
X132920940Y-139031118D01*
X132920941Y-139031113D01*
X132950500Y-138844484D01*
X132950500Y-138655554D01*
X135050000Y-138655554D01*
X135050000Y-138844445D01*
X135079546Y-139030996D01*
X135137914Y-139210635D01*
X135223667Y-139378936D01*
X135223669Y-139378940D01*
X135328406Y-139523098D01*
X135793018Y-139058485D01*
X135809890Y-139087708D01*
X135912292Y-139190110D01*
X135941512Y-139206979D01*
X135476900Y-139671592D01*
X135621059Y-139776330D01*
X135621063Y-139776332D01*
X135789364Y-139862085D01*
X135969003Y-139920453D01*
X136155555Y-139950000D01*
X136344445Y-139950000D01*
X136530996Y-139920453D01*
X136710635Y-139862085D01*
X136878934Y-139776333D01*
X137023098Y-139671591D01*
X136558486Y-139206980D01*
X136587708Y-139190110D01*
X136690110Y-139087708D01*
X136706980Y-139058486D01*
X137171591Y-139523098D01*
X137276333Y-139378934D01*
X137362085Y-139210635D01*
X137420453Y-139030996D01*
X137450000Y-138844445D01*
X137450000Y-138655554D01*
X137449994Y-138655515D01*
X152549500Y-138655515D01*
X152549500Y-138844484D01*
X152579058Y-139031113D01*
X152601197Y-139099249D01*
X152637453Y-139210832D01*
X152723240Y-139379199D01*
X152834310Y-139532073D01*
X152967927Y-139665690D01*
X153120801Y-139776760D01*
X153289168Y-139862547D01*
X153468882Y-139920940D01*
X153468883Y-139920940D01*
X153468886Y-139920941D01*
X153655516Y-139950500D01*
X153655519Y-139950500D01*
X153844484Y-139950500D01*
X154031113Y-139920941D01*
X154031114Y-139920940D01*
X154031118Y-139920940D01*
X154210832Y-139862547D01*
X154379199Y-139776760D01*
X154532073Y-139665690D01*
X154665690Y-139532073D01*
X154776760Y-139379199D01*
X154862547Y-139210832D01*
X154920940Y-139031118D01*
X154920941Y-139031113D01*
X154950500Y-138844484D01*
X154950500Y-138655554D01*
X157050000Y-138655554D01*
X157050000Y-138844445D01*
X157079546Y-139030996D01*
X157137914Y-139210635D01*
X157223667Y-139378936D01*
X157223669Y-139378940D01*
X157328406Y-139523098D01*
X157793018Y-139058485D01*
X157809890Y-139087708D01*
X157912292Y-139190110D01*
X157941512Y-139206979D01*
X157476900Y-139671592D01*
X157621059Y-139776330D01*
X157621063Y-139776332D01*
X157789364Y-139862085D01*
X157969003Y-139920453D01*
X158155555Y-139950000D01*
X158344445Y-139950000D01*
X158530996Y-139920453D01*
X158710635Y-139862085D01*
X158878934Y-139776333D01*
X159023098Y-139671591D01*
X158558486Y-139206980D01*
X158587708Y-139190110D01*
X158690110Y-139087708D01*
X158706980Y-139058486D01*
X159171591Y-139523098D01*
X159276333Y-139378934D01*
X159362085Y-139210635D01*
X159420453Y-139030996D01*
X159450000Y-138844445D01*
X159450000Y-138655554D01*
X159420453Y-138469003D01*
X159362085Y-138289364D01*
X159276332Y-138121063D01*
X159276330Y-138121059D01*
X159171592Y-137976900D01*
X158706979Y-138441512D01*
X158690110Y-138412292D01*
X158587708Y-138309890D01*
X158558485Y-138293018D01*
X159023098Y-137828406D01*
X158878940Y-137723669D01*
X158878936Y-137723667D01*
X158710635Y-137637914D01*
X158530996Y-137579546D01*
X158344445Y-137550000D01*
X158155555Y-137550000D01*
X157969003Y-137579546D01*
X157789364Y-137637914D01*
X157621064Y-137723667D01*
X157476900Y-137828406D01*
X157941513Y-138293019D01*
X157912292Y-138309890D01*
X157809890Y-138412292D01*
X157793019Y-138441513D01*
X157328406Y-137976900D01*
X157223667Y-138121064D01*
X157137914Y-138289364D01*
X157079546Y-138469003D01*
X157050000Y-138655554D01*
X154950500Y-138655554D01*
X154950500Y-138655515D01*
X154920941Y-138468886D01*
X154920940Y-138468882D01*
X154862547Y-138289168D01*
X154776760Y-138120801D01*
X154665690Y-137967927D01*
X154532073Y-137834310D01*
X154379199Y-137723240D01*
X154379198Y-137723239D01*
X154379196Y-137723238D01*
X154210832Y-137637453D01*
X154031113Y-137579058D01*
X153844484Y-137549500D01*
X153844481Y-137549500D01*
X153655519Y-137549500D01*
X153655516Y-137549500D01*
X153468886Y-137579058D01*
X153289167Y-137637453D01*
X153120803Y-137723238D01*
X152967928Y-137834309D01*
X152834309Y-137967928D01*
X152723238Y-138120803D01*
X152637453Y-138289167D01*
X152579058Y-138468886D01*
X152549500Y-138655515D01*
X137449994Y-138655515D01*
X137420453Y-138469003D01*
X137362085Y-138289364D01*
X137276332Y-138121063D01*
X137276330Y-138121059D01*
X137171592Y-137976900D01*
X136706979Y-138441512D01*
X136690110Y-138412292D01*
X136587708Y-138309890D01*
X136558485Y-138293018D01*
X137023098Y-137828406D01*
X136878940Y-137723669D01*
X136878936Y-137723667D01*
X136710635Y-137637914D01*
X136530996Y-137579546D01*
X136344445Y-137550000D01*
X136155555Y-137550000D01*
X135969003Y-137579546D01*
X135789364Y-137637914D01*
X135621064Y-137723667D01*
X135476900Y-137828406D01*
X135941513Y-138293019D01*
X135912292Y-138309890D01*
X135809890Y-138412292D01*
X135793019Y-138441513D01*
X135328406Y-137976900D01*
X135223667Y-138121064D01*
X135137914Y-138289364D01*
X135079546Y-138469003D01*
X135050000Y-138655554D01*
X132950500Y-138655554D01*
X132950500Y-138655515D01*
X132920941Y-138468886D01*
X132920940Y-138468882D01*
X132862547Y-138289168D01*
X132776760Y-138120801D01*
X132665690Y-137967927D01*
X132532073Y-137834310D01*
X132379199Y-137723240D01*
X132379198Y-137723239D01*
X132379196Y-137723238D01*
X132210832Y-137637453D01*
X132031113Y-137579058D01*
X131844484Y-137549500D01*
X131844481Y-137549500D01*
X131655519Y-137549500D01*
X131655516Y-137549500D01*
X131468886Y-137579058D01*
X131289167Y-137637453D01*
X131120803Y-137723238D01*
X130967928Y-137834309D01*
X130834309Y-137967928D01*
X130723238Y-138120803D01*
X130637453Y-138289167D01*
X130579058Y-138468886D01*
X130549500Y-138655515D01*
X125500500Y-138655515D01*
X125500500Y-127680676D01*
X127050000Y-127680676D01*
X127050000Y-128014999D01*
X127050001Y-128015000D01*
X127760497Y-128015000D01*
X127750000Y-128054174D01*
X127750000Y-128185826D01*
X127760497Y-128225000D01*
X127050002Y-128225000D01*
X127050001Y-128225001D01*
X127050001Y-128559324D01*
X127065443Y-128676629D01*
X127065444Y-128676631D01*
X127125899Y-128822585D01*
X127125901Y-128822589D01*
X127222070Y-128947919D01*
X127222080Y-128947929D01*
X127347410Y-129044098D01*
X127347414Y-129044100D01*
X127493368Y-129104555D01*
X127493369Y-129104556D01*
X127610676Y-129119999D01*
X128144998Y-129119999D01*
X128145000Y-129119998D01*
X128145000Y-128609503D01*
X128184174Y-128620000D01*
X128315826Y-128620000D01*
X128355000Y-128609503D01*
X128355000Y-129119998D01*
X128355001Y-129119999D01*
X128889320Y-129119999D01*
X128889324Y-129119998D01*
X129006629Y-129104556D01*
X129006631Y-129104555D01*
X129152585Y-129044100D01*
X129152589Y-129044098D01*
X129277919Y-128947929D01*
X129277929Y-128947919D01*
X129374098Y-128822589D01*
X129374100Y-128822585D01*
X129434555Y-128676631D01*
X129434556Y-128676630D01*
X129449999Y-128559323D01*
X129450000Y-128559322D01*
X129450000Y-128225001D01*
X129449999Y-128225000D01*
X128739503Y-128225000D01*
X128750000Y-128185826D01*
X128750000Y-128054174D01*
X128739503Y-128015000D01*
X129449998Y-128015000D01*
X129449999Y-128014999D01*
X129449999Y-127680680D01*
X129449998Y-127680675D01*
X129434556Y-127563370D01*
X129434555Y-127563368D01*
X129374100Y-127417414D01*
X129374098Y-127417410D01*
X129277929Y-127292080D01*
X129277919Y-127292070D01*
X129152589Y-127195901D01*
X129152585Y-127195899D01*
X129006631Y-127135444D01*
X129006630Y-127135443D01*
X128889323Y-127120000D01*
X128355001Y-127120000D01*
X128355000Y-127120001D01*
X128355000Y-127630496D01*
X128315826Y-127620000D01*
X128184174Y-127620000D01*
X128145000Y-127630496D01*
X128145000Y-127120001D01*
X128144999Y-127120000D01*
X127610680Y-127120000D01*
X127610675Y-127120001D01*
X127493370Y-127135443D01*
X127493368Y-127135444D01*
X127347414Y-127195899D01*
X127347410Y-127195901D01*
X127222080Y-127292070D01*
X127222070Y-127292080D01*
X127125901Y-127417410D01*
X127125899Y-127417414D01*
X127065444Y-127563368D01*
X127065443Y-127563369D01*
X127050000Y-127680676D01*
X125500500Y-127680676D01*
X125500500Y-127455428D01*
X125519407Y-127397237D01*
X125529496Y-127385424D01*
X126305425Y-126609496D01*
X126359942Y-126581719D01*
X126375429Y-126580500D01*
X128805539Y-126580500D01*
X128805540Y-126580500D01*
X128925727Y-126556593D01*
X128998835Y-126542051D01*
X129052164Y-126519961D01*
X129180913Y-126466632D01*
X129344781Y-126357139D01*
X129484138Y-126217782D01*
X129484138Y-126217780D01*
X129492284Y-126209635D01*
X129492286Y-126209631D01*
X132777140Y-122924780D01*
X132886632Y-122760913D01*
X132962052Y-122578834D01*
X132997017Y-122403049D01*
X133000500Y-122385540D01*
X133000500Y-95649805D01*
X133019407Y-95591614D01*
X133040168Y-95570554D01*
X133057546Y-95557546D01*
X133143796Y-95442331D01*
X133153733Y-95415690D01*
X133194089Y-95307488D01*
X133194090Y-95307485D01*
X133194091Y-95307483D01*
X133200500Y-95247873D01*
X133200499Y-95006278D01*
X133219406Y-94948091D01*
X133268906Y-94912127D01*
X133330091Y-94912126D01*
X133379591Y-94948090D01*
X133387709Y-94961336D01*
X133451571Y-95086672D01*
X133473240Y-95129199D01*
X133584310Y-95282073D01*
X133717927Y-95415690D01*
X133870801Y-95526760D01*
X134039168Y-95612547D01*
X134171144Y-95655429D01*
X134220643Y-95691392D01*
X134239550Y-95749583D01*
X134220643Y-95807774D01*
X134171143Y-95843738D01*
X134163217Y-95845953D01*
X134116861Y-95856856D01*
X134116857Y-95856857D01*
X134015093Y-95901790D01*
X133913330Y-95946722D01*
X133729783Y-96072454D01*
X133572454Y-96229783D01*
X133446722Y-96413330D01*
X133401790Y-96515093D01*
X133356857Y-96616857D01*
X133356856Y-96616859D01*
X133356855Y-96616863D01*
X133305919Y-96833428D01*
X133305918Y-96833438D01*
X133299500Y-96925904D01*
X133299500Y-97674095D01*
X133305918Y-97766561D01*
X133305919Y-97766571D01*
X133356855Y-97983136D01*
X133356857Y-97983143D01*
X133437315Y-98165364D01*
X133446722Y-98186669D01*
X133572454Y-98370216D01*
X133572455Y-98370217D01*
X133572458Y-98370221D01*
X133729779Y-98527542D01*
X133913329Y-98653277D01*
X134116857Y-98743143D01*
X134268519Y-98778813D01*
X134333428Y-98794080D01*
X134333429Y-98794080D01*
X134333433Y-98794081D01*
X134391229Y-98798092D01*
X134425905Y-98800500D01*
X134425908Y-98800500D01*
X134574095Y-98800500D01*
X134604917Y-98798360D01*
X134666567Y-98794081D01*
X134883143Y-98743143D01*
X135086671Y-98653277D01*
X135270221Y-98527542D01*
X135427542Y-98370221D01*
X135553277Y-98186671D01*
X135643143Y-97983143D01*
X135694081Y-97766567D01*
X135700500Y-97674092D01*
X135700500Y-96925908D01*
X135694081Y-96833433D01*
X135643143Y-96616857D01*
X135553277Y-96413329D01*
X135427542Y-96229779D01*
X135270221Y-96072458D01*
X135270217Y-96072455D01*
X135270216Y-96072454D01*
X135158544Y-95995957D01*
X135086671Y-95946723D01*
X134883143Y-95856857D01*
X134836782Y-95845953D01*
X134784466Y-95814225D01*
X134760791Y-95757806D01*
X134774800Y-95698246D01*
X134821142Y-95658295D01*
X134828845Y-95655432D01*
X134960832Y-95612547D01*
X135129199Y-95526760D01*
X135282073Y-95415690D01*
X135415690Y-95282073D01*
X135526760Y-95129199D01*
X135612547Y-94960832D01*
X135655429Y-94828855D01*
X135691392Y-94779357D01*
X135749583Y-94760449D01*
X135807773Y-94779356D01*
X135843737Y-94828856D01*
X135845953Y-94836782D01*
X135856857Y-94883143D01*
X135946723Y-95086671D01*
X135988632Y-95147850D01*
X136072454Y-95270216D01*
X136072455Y-95270217D01*
X136072458Y-95270221D01*
X136229779Y-95427542D01*
X136413329Y-95553277D01*
X136616857Y-95643143D01*
X136735043Y-95670940D01*
X136833428Y-95694080D01*
X136833429Y-95694080D01*
X136833433Y-95694081D01*
X136891229Y-95698092D01*
X136925905Y-95700500D01*
X136925908Y-95700500D01*
X137310257Y-95700500D01*
X137368448Y-95719407D01*
X137380261Y-95729496D01*
X141220478Y-99569713D01*
X141220480Y-99569716D01*
X141332284Y-99681520D01*
X141332286Y-99681521D01*
X141332289Y-99681524D01*
X141332288Y-99681524D01*
X141419091Y-99731637D01*
X141419093Y-99731639D01*
X141419094Y-99731639D01*
X141448032Y-99748346D01*
X141469215Y-99760577D01*
X141621943Y-99801501D01*
X141621944Y-99801501D01*
X141786120Y-99801501D01*
X141786136Y-99801500D01*
X159585312Y-99801500D01*
X159585328Y-99801501D01*
X159591391Y-99801501D01*
X159749504Y-99801501D01*
X159749505Y-99801501D01*
X159902233Y-99760577D01*
X159952352Y-99731639D01*
X160039164Y-99681520D01*
X160150968Y-99569716D01*
X160150969Y-99569713D01*
X161868713Y-97851969D01*
X161868716Y-97851968D01*
X161980520Y-97740164D01*
X162030639Y-97653352D01*
X162059577Y-97603233D01*
X162100500Y-97450506D01*
X162100500Y-97292391D01*
X162100500Y-95797974D01*
X162119407Y-95739783D01*
X162168907Y-95703819D01*
X162192643Y-95699212D01*
X162266567Y-95694081D01*
X162483143Y-95643143D01*
X162686671Y-95553277D01*
X162870221Y-95427542D01*
X163027542Y-95270221D01*
X163153277Y-95086671D01*
X163243143Y-94883143D01*
X163294081Y-94666567D01*
X163300500Y-94574092D01*
X163300500Y-94425908D01*
X163294081Y-94333433D01*
X163243143Y-94116857D01*
X163153277Y-93913329D01*
X163042852Y-93752129D01*
X163027545Y-93729783D01*
X163027544Y-93729782D01*
X163027542Y-93729779D01*
X162870221Y-93572458D01*
X162870217Y-93572455D01*
X162870216Y-93572454D01*
X162709267Y-93462202D01*
X162686671Y-93446723D01*
X162483143Y-93356857D01*
X162483137Y-93356855D01*
X162483136Y-93356855D01*
X162266571Y-93305919D01*
X162266561Y-93305918D01*
X162192644Y-93300787D01*
X162135902Y-93277895D01*
X162103453Y-93226024D01*
X162100500Y-93202025D01*
X162100500Y-71397974D01*
X162119407Y-71339783D01*
X162168907Y-71303819D01*
X162192643Y-71299212D01*
X162266567Y-71294081D01*
X162483143Y-71243143D01*
X162686671Y-71153277D01*
X162870221Y-71027542D01*
X163027542Y-70870221D01*
X163153277Y-70686671D01*
X163243143Y-70483143D01*
X163294081Y-70266567D01*
X163300500Y-70174092D01*
X163300500Y-70025908D01*
X163294081Y-69933433D01*
X163243143Y-69716857D01*
X163153277Y-69513329D01*
X163042852Y-69352129D01*
X163027545Y-69329783D01*
X163027544Y-69329782D01*
X163027542Y-69329779D01*
X162870221Y-69172458D01*
X162870217Y-69172455D01*
X162870216Y-69172454D01*
X162724239Y-69072458D01*
X162686671Y-69046723D01*
X162483143Y-68956857D01*
X162483137Y-68956855D01*
X162483136Y-68956855D01*
X162266571Y-68905919D01*
X162266561Y-68905918D01*
X162192644Y-68900787D01*
X162135902Y-68877895D01*
X162103453Y-68826024D01*
X162100500Y-68802025D01*
X162100500Y-46797974D01*
X162119407Y-46739783D01*
X162168907Y-46703819D01*
X162192643Y-46699212D01*
X162266567Y-46694081D01*
X162483143Y-46643143D01*
X162686671Y-46553277D01*
X162870221Y-46427542D01*
X163027542Y-46270221D01*
X163153277Y-46086671D01*
X163243143Y-45883143D01*
X163294081Y-45666567D01*
X163300500Y-45574092D01*
X163300500Y-45425908D01*
X163294081Y-45333433D01*
X163243143Y-45116857D01*
X163153277Y-44913329D01*
X163042852Y-44752129D01*
X163027545Y-44729783D01*
X163027544Y-44729782D01*
X163027542Y-44729779D01*
X162870221Y-44572458D01*
X162870217Y-44572455D01*
X162870216Y-44572454D01*
X162725378Y-44473238D01*
X162686671Y-44446723D01*
X162483143Y-44356857D01*
X162483137Y-44356855D01*
X162483136Y-44356855D01*
X162266571Y-44305919D01*
X162266561Y-44305918D01*
X162174095Y-44299500D01*
X162174092Y-44299500D01*
X161425908Y-44299500D01*
X161425905Y-44299500D01*
X161333438Y-44305918D01*
X161333428Y-44305919D01*
X161116863Y-44356855D01*
X161116859Y-44356856D01*
X161116857Y-44356857D01*
X161015093Y-44401790D01*
X160913330Y-44446722D01*
X160729783Y-44572454D01*
X160572454Y-44729783D01*
X160446722Y-44913330D01*
X160411227Y-44993720D01*
X160356857Y-45116857D01*
X160356856Y-45116860D01*
X160356856Y-45116861D01*
X160345953Y-45163217D01*
X160314225Y-45215533D01*
X160257805Y-45239208D01*
X160198245Y-45225199D01*
X160158294Y-45178857D01*
X160155432Y-45171154D01*
X160112547Y-45039168D01*
X160026760Y-44870801D01*
X159915690Y-44717927D01*
X159782073Y-44584310D01*
X159629199Y-44473240D01*
X159629198Y-44473239D01*
X159629196Y-44473238D01*
X159460828Y-44387451D01*
X159460825Y-44387449D01*
X159327940Y-44344272D01*
X159278440Y-44308308D01*
X159259533Y-44250117D01*
X159278441Y-44191927D01*
X159327941Y-44155963D01*
X159335868Y-44153747D01*
X159382983Y-44142666D01*
X159586425Y-44052838D01*
X159769895Y-43927159D01*
X159927159Y-43769895D01*
X160052838Y-43586425D01*
X160142666Y-43382982D01*
X160142668Y-43382975D01*
X160193583Y-43166502D01*
X160193584Y-43166492D01*
X160200000Y-43074068D01*
X160200000Y-42805001D01*
X160199999Y-42805000D01*
X159568916Y-42805000D01*
X159559111Y-42768409D01*
X159480119Y-42631592D01*
X159443527Y-42595000D01*
X160199998Y-42595000D01*
X160199999Y-42594999D01*
X160199999Y-42325932D01*
X160193584Y-42233504D01*
X160193583Y-42233500D01*
X160142668Y-42017024D01*
X160142666Y-42017017D01*
X160052838Y-41813574D01*
X159927159Y-41630104D01*
X159769895Y-41472840D01*
X159586425Y-41347161D01*
X159382982Y-41257333D01*
X159382975Y-41257331D01*
X159166502Y-41206416D01*
X159166493Y-41206415D01*
X159105000Y-41202146D01*
X159105000Y-42406969D01*
X159078991Y-42400000D01*
X158921009Y-42400000D01*
X158895000Y-42406969D01*
X158895000Y-41202147D01*
X158894999Y-41202146D01*
X158833506Y-41206415D01*
X158833497Y-41206416D01*
X158617024Y-41257331D01*
X158617017Y-41257333D01*
X158413574Y-41347161D01*
X158230104Y-41472840D01*
X158072840Y-41630104D01*
X157947161Y-41813574D01*
X157857333Y-42017017D01*
X157857331Y-42017024D01*
X157806416Y-42233497D01*
X157806415Y-42233507D01*
X157800000Y-42325931D01*
X157800000Y-42594999D01*
X157800001Y-42595000D01*
X158556473Y-42595000D01*
X158519881Y-42631592D01*
X158440889Y-42768409D01*
X158431084Y-42805000D01*
X157800002Y-42805000D01*
X157800001Y-42805001D01*
X157800001Y-43074067D01*
X157806415Y-43166495D01*
X157806416Y-43166499D01*
X157857331Y-43382975D01*
X157857333Y-43382982D01*
X157947161Y-43586425D01*
X158072840Y-43769895D01*
X158230104Y-43927159D01*
X158413574Y-44052838D01*
X158617017Y-44142666D01*
X158617016Y-44142666D01*
X158664131Y-44153747D01*
X158716448Y-44185475D01*
X158740124Y-44241894D01*
X158726116Y-44301454D01*
X158679774Y-44341406D01*
X158672059Y-44344272D01*
X158539174Y-44387449D01*
X158539171Y-44387451D01*
X158370803Y-44473238D01*
X158217928Y-44584309D01*
X158084309Y-44717928D01*
X157973238Y-44870803D01*
X157887709Y-45038665D01*
X157844444Y-45081930D01*
X157784012Y-45091501D01*
X157729495Y-45063724D01*
X157701718Y-45009207D01*
X157700499Y-44993720D01*
X157700499Y-44752133D01*
X157700499Y-44752128D01*
X157694091Y-44692517D01*
X157694089Y-44692511D01*
X157643797Y-44557670D01*
X157557549Y-44442458D01*
X157557548Y-44442457D01*
X157557546Y-44442454D01*
X157557541Y-44442450D01*
X157442329Y-44356202D01*
X157307488Y-44305910D01*
X157307483Y-44305909D01*
X157307481Y-44305908D01*
X157307477Y-44305908D01*
X157276249Y-44302550D01*
X157247873Y-44299500D01*
X157247870Y-44299500D01*
X156755429Y-44299500D01*
X156697238Y-44280593D01*
X156685425Y-44270504D01*
X154809145Y-42394224D01*
X152176140Y-39761220D01*
X152176140Y-39761219D01*
X152036790Y-39621868D01*
X152036785Y-39621864D01*
X152036782Y-39621861D01*
X151990099Y-39590668D01*
X151872921Y-39512371D01*
X151872912Y-39512367D01*
X151806364Y-39484802D01*
X151744165Y-39459038D01*
X151744164Y-39459037D01*
X151690837Y-39436949D01*
X151642512Y-39427336D01*
X151594188Y-39417724D01*
X151594187Y-39417723D01*
X151497543Y-39398500D01*
X151497541Y-39398500D01*
X133565325Y-39398500D01*
X133565322Y-39398500D01*
X133468678Y-39417723D01*
X133468678Y-39417724D01*
X133444516Y-39422530D01*
X133372027Y-39436949D01*
X133372024Y-39436950D01*
X133318700Y-39459037D01*
X133318700Y-39459038D01*
X133280990Y-39474657D01*
X133189952Y-39512367D01*
X133026084Y-39621861D01*
X133026080Y-39621864D01*
X131222864Y-41425080D01*
X131222861Y-41425084D01*
X131113367Y-41588952D01*
X131037949Y-41771029D01*
X131037949Y-41771031D01*
X130999500Y-41964322D01*
X130999500Y-44200500D01*
X130980593Y-44258691D01*
X130931093Y-44294655D01*
X130900500Y-44299500D01*
X130652133Y-44299500D01*
X130652129Y-44299500D01*
X130652128Y-44299501D01*
X130644949Y-44300272D01*
X130592519Y-44305908D01*
X130592514Y-44305909D01*
X130457670Y-44356202D01*
X130342458Y-44442450D01*
X130342450Y-44442458D01*
X130256202Y-44557670D01*
X130205910Y-44692511D01*
X130205908Y-44692522D01*
X130199500Y-44752129D01*
X130199500Y-46247866D01*
X130199501Y-46247870D01*
X130205908Y-46307480D01*
X130205909Y-46307485D01*
X130256202Y-46442329D01*
X130319408Y-46526761D01*
X130342454Y-46557546D01*
X130342457Y-46557548D01*
X130342458Y-46557549D01*
X130457670Y-46643797D01*
X130592511Y-46694089D01*
X130592512Y-46694089D01*
X130592517Y-46694091D01*
X130652127Y-46700500D01*
X130900500Y-46700499D01*
X130958690Y-46719406D01*
X130994654Y-46768906D01*
X130999500Y-46799499D01*
X130999500Y-68700500D01*
X130980593Y-68758691D01*
X130931093Y-68794655D01*
X130900500Y-68799500D01*
X130652133Y-68799500D01*
X130652129Y-68799500D01*
X130652128Y-68799501D01*
X130644949Y-68800272D01*
X130592519Y-68805908D01*
X130592514Y-68805909D01*
X130457670Y-68856202D01*
X130342458Y-68942450D01*
X130342450Y-68942458D01*
X130256202Y-69057670D01*
X130205910Y-69192511D01*
X130205908Y-69192522D01*
X130199500Y-69252129D01*
X130199500Y-70747866D01*
X130199501Y-70747870D01*
X130205908Y-70807480D01*
X130205909Y-70807485D01*
X130256202Y-70942329D01*
X130331064Y-71042331D01*
X130342454Y-71057546D01*
X130342457Y-71057548D01*
X130342458Y-71057549D01*
X130457670Y-71143797D01*
X130592511Y-71194089D01*
X130592512Y-71194089D01*
X130592517Y-71194091D01*
X130652127Y-71200500D01*
X130900500Y-71200499D01*
X130958690Y-71219406D01*
X130994654Y-71268906D01*
X130999500Y-71299499D01*
X130999500Y-93200500D01*
X130980593Y-93258691D01*
X130931093Y-93294655D01*
X130900500Y-93299500D01*
X130652133Y-93299500D01*
X130652129Y-93299500D01*
X130652128Y-93299501D01*
X130644949Y-93300272D01*
X130592519Y-93305908D01*
X130592514Y-93305909D01*
X130457670Y-93356202D01*
X130342458Y-93442450D01*
X130342450Y-93442458D01*
X130256202Y-93557670D01*
X130205910Y-93692511D01*
X130205908Y-93692522D01*
X130199500Y-93752129D01*
X130199500Y-95247866D01*
X130199501Y-95247870D01*
X130205908Y-95307480D01*
X130205909Y-95307485D01*
X130256202Y-95442329D01*
X130319408Y-95526761D01*
X130342454Y-95557546D01*
X130342457Y-95557548D01*
X130342458Y-95557549D01*
X130457670Y-95643797D01*
X130592511Y-95694089D01*
X130592512Y-95694089D01*
X130592517Y-95694091D01*
X130652127Y-95700500D01*
X130900500Y-95700499D01*
X130958690Y-95719406D01*
X130994654Y-95768906D01*
X130999500Y-95799499D01*
X130999500Y-121831570D01*
X130980593Y-121889761D01*
X130970504Y-121901574D01*
X129610992Y-123261085D01*
X129556475Y-123288862D01*
X129496043Y-123279291D01*
X129452778Y-123236026D01*
X129443207Y-123175594D01*
X129443891Y-123171764D01*
X129450499Y-123138546D01*
X129450498Y-123138546D01*
X129450500Y-123138541D01*
X129450500Y-122941459D01*
X129412051Y-122748165D01*
X129336632Y-122566086D01*
X129227139Y-122402218D01*
X129087782Y-122262861D01*
X128923914Y-122153368D01*
X128923915Y-122153368D01*
X128923913Y-122153367D01*
X128741835Y-122077949D01*
X128548543Y-122039500D01*
X128548541Y-122039500D01*
X127951459Y-122039500D01*
X127951456Y-122039500D01*
X127758165Y-122077949D01*
X127758163Y-122077949D01*
X127576086Y-122153367D01*
X127412218Y-122262861D01*
X127412214Y-122262864D01*
X127272864Y-122402214D01*
X127272861Y-122402218D01*
X127163367Y-122566086D01*
X127087949Y-122748163D01*
X127087949Y-122748165D01*
X127049500Y-122941456D01*
X127049500Y-123138543D01*
X127087949Y-123331834D01*
X127087949Y-123331836D01*
X127163367Y-123513913D01*
X127163368Y-123513914D01*
X127272861Y-123677782D01*
X127412218Y-123817139D01*
X127576086Y-123926632D01*
X127758165Y-124002051D01*
X127951459Y-124040500D01*
X127951460Y-124040500D01*
X128548540Y-124040500D01*
X128548541Y-124040500D01*
X128581765Y-124033891D01*
X128642526Y-124041081D01*
X128687457Y-124082612D01*
X128699395Y-124142621D01*
X128673781Y-124198187D01*
X128671085Y-124200991D01*
X128321575Y-124550503D01*
X128267058Y-124578281D01*
X128251571Y-124579500D01*
X125821456Y-124579500D01*
X125724812Y-124598724D01*
X125628164Y-124617948D01*
X125603810Y-124628037D01*
X125603809Y-124628037D01*
X125446090Y-124693365D01*
X125446078Y-124693371D01*
X125303094Y-124788912D01*
X125303093Y-124788913D01*
X125282221Y-124802858D01*
X123862220Y-126222859D01*
X123722864Y-126362214D01*
X123722861Y-126362218D01*
X123613367Y-126526086D01*
X123537949Y-126708163D01*
X123537949Y-126708165D01*
X123499500Y-126901456D01*
X123499500Y-140900500D01*
X123480593Y-140958691D01*
X123431093Y-140994655D01*
X123400500Y-140999500D01*
X122251459Y-140999500D01*
X122210237Y-141007699D01*
X122210230Y-141007700D01*
X122154812Y-141018723D01*
X122154812Y-141018724D01*
X122130650Y-141023530D01*
X122058161Y-141037949D01*
X122058158Y-141037950D01*
X122004834Y-141060037D01*
X122004834Y-141060038D01*
X121946240Y-141084309D01*
X121876085Y-141113368D01*
X121814566Y-141154474D01*
X121753046Y-141195580D01*
X121728571Y-141211933D01*
X121712218Y-141222860D01*
X121614575Y-141320504D01*
X121560058Y-141348281D01*
X121544571Y-141349500D01*
X91541967Y-141349500D01*
X91435491Y-141358966D01*
X91422582Y-141360114D01*
X91422581Y-141360114D01*
X91422576Y-141360115D01*
X91226953Y-141416090D01*
X91046595Y-141510300D01*
X90888894Y-141638888D01*
X90888888Y-141638894D01*
X90760302Y-141796593D01*
X90703622Y-141905103D01*
X90687250Y-141936445D01*
X90643549Y-141979269D01*
X90583023Y-141988227D01*
X90528791Y-141959899D01*
X90501567Y-141905103D01*
X90500500Y-141890608D01*
X90500500Y-140268311D01*
X90519407Y-140210120D01*
X90568907Y-140174156D01*
X90630093Y-140174156D01*
X90679593Y-140210120D01*
X90687250Y-140222475D01*
X90760720Y-140363128D01*
X90889244Y-140520750D01*
X90889249Y-140520755D01*
X91046871Y-140649279D01*
X91227138Y-140743442D01*
X91422667Y-140799390D01*
X91542000Y-140810000D01*
X91694999Y-140810000D01*
X91695000Y-140809999D01*
X91695000Y-140299503D01*
X91734174Y-140310000D01*
X91865826Y-140310000D01*
X91905000Y-140299503D01*
X91905000Y-140809999D01*
X91905001Y-140810000D01*
X92058000Y-140810000D01*
X92177332Y-140799390D01*
X92372861Y-140743442D01*
X92553128Y-140649279D01*
X92710750Y-140520755D01*
X92710755Y-140520750D01*
X92839279Y-140363128D01*
X92933442Y-140182861D01*
X92989390Y-139987333D01*
X92989390Y-139987330D01*
X92995822Y-139915000D01*
X92289503Y-139915000D01*
X92300000Y-139875826D01*
X92300000Y-139751966D01*
X120741599Y-139751966D01*
X120741599Y-139868032D01*
X120748931Y-139950500D01*
X120752205Y-139987333D01*
X120752213Y-139987416D01*
X120752214Y-139987423D01*
X120789293Y-140117007D01*
X120808190Y-140183049D01*
X120852727Y-140268311D01*
X120874503Y-140310000D01*
X120902401Y-140363407D01*
X121030990Y-140521109D01*
X121188692Y-140649698D01*
X121369050Y-140743909D01*
X121564681Y-140799886D01*
X121684062Y-140810500D01*
X122200135Y-140810499D01*
X122319517Y-140799886D01*
X122515148Y-140743909D01*
X122695506Y-140649698D01*
X122853208Y-140521109D01*
X122981797Y-140363407D01*
X123076008Y-140183049D01*
X123131985Y-139987418D01*
X123142599Y-139868037D01*
X123142598Y-139751964D01*
X123131985Y-139632582D01*
X123076008Y-139436951D01*
X122981797Y-139256593D01*
X122853208Y-139098891D01*
X122695506Y-138970302D01*
X122695504Y-138970301D01*
X122695503Y-138970300D01*
X122515146Y-138876090D01*
X122319519Y-138820114D01*
X122279723Y-138816576D01*
X122200136Y-138809500D01*
X122200132Y-138809500D01*
X121684066Y-138809500D01*
X121577590Y-138818966D01*
X121564681Y-138820114D01*
X121564680Y-138820114D01*
X121564675Y-138820115D01*
X121369052Y-138876090D01*
X121188694Y-138970300D01*
X121030993Y-139098888D01*
X121030987Y-139098894D01*
X120902399Y-139256595D01*
X120808189Y-139436952D01*
X120752213Y-139632579D01*
X120741599Y-139751966D01*
X92300000Y-139751966D01*
X92300000Y-139744174D01*
X92289503Y-139705000D01*
X92995822Y-139705000D01*
X92989390Y-139632669D01*
X92989390Y-139632666D01*
X92933442Y-139437138D01*
X92839279Y-139256871D01*
X92710755Y-139099249D01*
X92710750Y-139099244D01*
X92553128Y-138970720D01*
X92372861Y-138876557D01*
X92177332Y-138820609D01*
X92058000Y-138810000D01*
X91905001Y-138810000D01*
X91905000Y-138810001D01*
X91905000Y-139320496D01*
X91865826Y-139310000D01*
X91734174Y-139310000D01*
X91695000Y-139320496D01*
X91695000Y-138810001D01*
X91694999Y-138810000D01*
X91542000Y-138810000D01*
X91422667Y-138820609D01*
X91227138Y-138876557D01*
X91046871Y-138970720D01*
X90889249Y-139099244D01*
X90889244Y-139099249D01*
X90760722Y-139256869D01*
X90687250Y-139397525D01*
X90643549Y-139440349D01*
X90583023Y-139449307D01*
X90528791Y-139420979D01*
X90501567Y-139366183D01*
X90500500Y-139351688D01*
X90500500Y-137729391D01*
X90519407Y-137671200D01*
X90568907Y-137635236D01*
X90630093Y-137635236D01*
X90679593Y-137671200D01*
X90687247Y-137683550D01*
X90760302Y-137823407D01*
X90888891Y-137981109D01*
X91046593Y-138109698D01*
X91226951Y-138203909D01*
X91422582Y-138259886D01*
X91541963Y-138270500D01*
X92058036Y-138270499D01*
X92177418Y-138259886D01*
X92373049Y-138203909D01*
X92553407Y-138109698D01*
X92711109Y-137981109D01*
X92839698Y-137823407D01*
X92933909Y-137643049D01*
X92989886Y-137447418D01*
X93000500Y-137328037D01*
X93000499Y-137211966D01*
X120741599Y-137211966D01*
X120741599Y-137328032D01*
X120752213Y-137447416D01*
X120752214Y-137447423D01*
X120805954Y-137635236D01*
X120808190Y-137643049D01*
X120902401Y-137823407D01*
X121030990Y-137981109D01*
X121188692Y-138109698D01*
X121369050Y-138203909D01*
X121564681Y-138259886D01*
X121684062Y-138270500D01*
X122200135Y-138270499D01*
X122319517Y-138259886D01*
X122515148Y-138203909D01*
X122695506Y-138109698D01*
X122853208Y-137981109D01*
X122981797Y-137823407D01*
X123076008Y-137643049D01*
X123131985Y-137447418D01*
X123142599Y-137328037D01*
X123142598Y-137211964D01*
X123131985Y-137092582D01*
X123076008Y-136896951D01*
X122981797Y-136716593D01*
X122853208Y-136558891D01*
X122695506Y-136430302D01*
X122695504Y-136430301D01*
X122695503Y-136430300D01*
X122515146Y-136336090D01*
X122319519Y-136280114D01*
X122279723Y-136276576D01*
X122200136Y-136269500D01*
X122200132Y-136269500D01*
X121684066Y-136269500D01*
X121577590Y-136278966D01*
X121564681Y-136280114D01*
X121564680Y-136280114D01*
X121564675Y-136280115D01*
X121369052Y-136336090D01*
X121188694Y-136430300D01*
X121030993Y-136558888D01*
X121030987Y-136558894D01*
X120902399Y-136716595D01*
X120808189Y-136896952D01*
X120752213Y-137092579D01*
X120741599Y-137211966D01*
X93000499Y-137211966D01*
X93000499Y-137211964D01*
X92989886Y-137092582D01*
X92933909Y-136896951D01*
X92839698Y-136716593D01*
X92711109Y-136558891D01*
X92553407Y-136430302D01*
X92553405Y-136430301D01*
X92553404Y-136430300D01*
X92373047Y-136336090D01*
X92177420Y-136280114D01*
X92137624Y-136276576D01*
X92058037Y-136269500D01*
X92058033Y-136269500D01*
X91541967Y-136269500D01*
X91435491Y-136278966D01*
X91422582Y-136280114D01*
X91422581Y-136280114D01*
X91422576Y-136280115D01*
X91226953Y-136336090D01*
X91046595Y-136430300D01*
X90888894Y-136558888D01*
X90888888Y-136558894D01*
X90760302Y-136716593D01*
X90703622Y-136825103D01*
X90687250Y-136856445D01*
X90643549Y-136899269D01*
X90583023Y-136908227D01*
X90528791Y-136879899D01*
X90501567Y-136825103D01*
X90500500Y-136810608D01*
X90500500Y-135189391D01*
X90519407Y-135131200D01*
X90568907Y-135095236D01*
X90630093Y-135095236D01*
X90679593Y-135131200D01*
X90687247Y-135143550D01*
X90760302Y-135283407D01*
X90888891Y-135441109D01*
X91046593Y-135569698D01*
X91226951Y-135663909D01*
X91422582Y-135719886D01*
X91541963Y-135730500D01*
X92058036Y-135730499D01*
X92177418Y-135719886D01*
X92373049Y-135663909D01*
X92553407Y-135569698D01*
X92711109Y-135441109D01*
X92839698Y-135283407D01*
X92933909Y-135103049D01*
X92989886Y-134907418D01*
X93000500Y-134788037D01*
X93000499Y-134671966D01*
X120741599Y-134671966D01*
X120741599Y-134788032D01*
X120749917Y-134881599D01*
X120752213Y-134907418D01*
X120808190Y-135103049D01*
X120902401Y-135283407D01*
X121030990Y-135441109D01*
X121188692Y-135569698D01*
X121369050Y-135663909D01*
X121564681Y-135719886D01*
X121684062Y-135730500D01*
X122200135Y-135730499D01*
X122319517Y-135719886D01*
X122515148Y-135663909D01*
X122695506Y-135569698D01*
X122853208Y-135441109D01*
X122981797Y-135283407D01*
X123076008Y-135103049D01*
X123131985Y-134907418D01*
X123142599Y-134788037D01*
X123142598Y-134671964D01*
X123131985Y-134552582D01*
X123076008Y-134356951D01*
X122981797Y-134176593D01*
X122853208Y-134018891D01*
X122695506Y-133890302D01*
X122695504Y-133890301D01*
X122695503Y-133890300D01*
X122515146Y-133796090D01*
X122319519Y-133740114D01*
X122279723Y-133736576D01*
X122200136Y-133729500D01*
X122200132Y-133729500D01*
X121684066Y-133729500D01*
X121577590Y-133738966D01*
X121564681Y-133740114D01*
X121564680Y-133740114D01*
X121564675Y-133740115D01*
X121369052Y-133796090D01*
X121188694Y-133890300D01*
X121030993Y-134018888D01*
X121030987Y-134018894D01*
X120902399Y-134176595D01*
X120808189Y-134356952D01*
X120752213Y-134552579D01*
X120741599Y-134671966D01*
X93000499Y-134671966D01*
X93000499Y-134671964D01*
X92989886Y-134552582D01*
X92933909Y-134356951D01*
X92839698Y-134176593D01*
X92711109Y-134018891D01*
X92553407Y-133890302D01*
X92553405Y-133890301D01*
X92553404Y-133890300D01*
X92373047Y-133796090D01*
X92177420Y-133740114D01*
X92137624Y-133736576D01*
X92058037Y-133729500D01*
X92058033Y-133729500D01*
X91541967Y-133729500D01*
X91435491Y-133738966D01*
X91422582Y-133740114D01*
X91422581Y-133740114D01*
X91422576Y-133740115D01*
X91226953Y-133796090D01*
X91046595Y-133890300D01*
X90888894Y-134018888D01*
X90888888Y-134018894D01*
X90760302Y-134176593D01*
X90703622Y-134285103D01*
X90687250Y-134316445D01*
X90643549Y-134359269D01*
X90583023Y-134368227D01*
X90528791Y-134339899D01*
X90501567Y-134285103D01*
X90500500Y-134270608D01*
X90500500Y-132649391D01*
X90519407Y-132591200D01*
X90568907Y-132555236D01*
X90630093Y-132555236D01*
X90679593Y-132591200D01*
X90687247Y-132603550D01*
X90760302Y-132743407D01*
X90888891Y-132901109D01*
X91046593Y-133029698D01*
X91226951Y-133123909D01*
X91422582Y-133179886D01*
X91541963Y-133190500D01*
X92058036Y-133190499D01*
X92177418Y-133179886D01*
X92373049Y-133123909D01*
X92553407Y-133029698D01*
X92711109Y-132901109D01*
X92839698Y-132743407D01*
X92933909Y-132563049D01*
X92989886Y-132367418D01*
X93000500Y-132248037D01*
X93000499Y-132131966D01*
X120741599Y-132131966D01*
X120741599Y-132248032D01*
X120749917Y-132341599D01*
X120752213Y-132367418D01*
X120808190Y-132563049D01*
X120902401Y-132743407D01*
X121030990Y-132901109D01*
X121188692Y-133029698D01*
X121369050Y-133123909D01*
X121564681Y-133179886D01*
X121684062Y-133190500D01*
X122200135Y-133190499D01*
X122319517Y-133179886D01*
X122515148Y-133123909D01*
X122695506Y-133029698D01*
X122853208Y-132901109D01*
X122981797Y-132743407D01*
X123076008Y-132563049D01*
X123131985Y-132367418D01*
X123142599Y-132248037D01*
X123142598Y-132131964D01*
X123131985Y-132012582D01*
X123076008Y-131816951D01*
X122981797Y-131636593D01*
X122853208Y-131478891D01*
X122695506Y-131350302D01*
X122695504Y-131350301D01*
X122695503Y-131350300D01*
X122515146Y-131256090D01*
X122319519Y-131200114D01*
X122279723Y-131196576D01*
X122200136Y-131189500D01*
X122200132Y-131189500D01*
X121684066Y-131189500D01*
X121577590Y-131198966D01*
X121564681Y-131200114D01*
X121564680Y-131200114D01*
X121564675Y-131200115D01*
X121369052Y-131256090D01*
X121188694Y-131350300D01*
X121030993Y-131478888D01*
X121030987Y-131478894D01*
X120902399Y-131636595D01*
X120808189Y-131816952D01*
X120752213Y-132012579D01*
X120741599Y-132131966D01*
X93000499Y-132131966D01*
X93000499Y-132131964D01*
X92989886Y-132012582D01*
X92933909Y-131816951D01*
X92839698Y-131636593D01*
X92711109Y-131478891D01*
X92553407Y-131350302D01*
X92553405Y-131350301D01*
X92553404Y-131350300D01*
X92373047Y-131256090D01*
X92177420Y-131200114D01*
X92137624Y-131196576D01*
X92058037Y-131189500D01*
X92058033Y-131189500D01*
X91541967Y-131189500D01*
X91435491Y-131198966D01*
X91422582Y-131200114D01*
X91422581Y-131200114D01*
X91422576Y-131200115D01*
X91226953Y-131256090D01*
X91046595Y-131350300D01*
X90888894Y-131478888D01*
X90888888Y-131478894D01*
X90760302Y-131636593D01*
X90703622Y-131745103D01*
X90687250Y-131776445D01*
X90643549Y-131819269D01*
X90583023Y-131828227D01*
X90528791Y-131799899D01*
X90501567Y-131745103D01*
X90500500Y-131730608D01*
X90500500Y-130109391D01*
X90519407Y-130051200D01*
X90568907Y-130015236D01*
X90630093Y-130015236D01*
X90679593Y-130051200D01*
X90687247Y-130063550D01*
X90760302Y-130203407D01*
X90888891Y-130361109D01*
X91046593Y-130489698D01*
X91226951Y-130583909D01*
X91422582Y-130639886D01*
X91541963Y-130650500D01*
X92058036Y-130650499D01*
X92177418Y-130639886D01*
X92373049Y-130583909D01*
X92553407Y-130489698D01*
X92711109Y-130361109D01*
X92839698Y-130203407D01*
X92933909Y-130023049D01*
X92989886Y-129827418D01*
X93000500Y-129708037D01*
X93000499Y-129591966D01*
X120741599Y-129591966D01*
X120741599Y-129708032D01*
X120749917Y-129801599D01*
X120752213Y-129827418D01*
X120808190Y-130023049D01*
X120902401Y-130203407D01*
X121030990Y-130361109D01*
X121188692Y-130489698D01*
X121369050Y-130583909D01*
X121564681Y-130639886D01*
X121684062Y-130650500D01*
X122200135Y-130650499D01*
X122319517Y-130639886D01*
X122515148Y-130583909D01*
X122695506Y-130489698D01*
X122853208Y-130361109D01*
X122981797Y-130203407D01*
X123076008Y-130023049D01*
X123131985Y-129827418D01*
X123142599Y-129708037D01*
X123142598Y-129591964D01*
X123131985Y-129472582D01*
X123076008Y-129276951D01*
X122981797Y-129096593D01*
X122853208Y-128938891D01*
X122695506Y-128810302D01*
X122695504Y-128810301D01*
X122695503Y-128810300D01*
X122515146Y-128716090D01*
X122319519Y-128660114D01*
X122279723Y-128656576D01*
X122200136Y-128649500D01*
X122200132Y-128649500D01*
X121684066Y-128649500D01*
X121577590Y-128658966D01*
X121564681Y-128660114D01*
X121564680Y-128660114D01*
X121564675Y-128660115D01*
X121369052Y-128716090D01*
X121188694Y-128810300D01*
X121030993Y-128938888D01*
X121030987Y-128938894D01*
X120902399Y-129096595D01*
X120808189Y-129276952D01*
X120752213Y-129472579D01*
X120741599Y-129591966D01*
X93000499Y-129591966D01*
X93000499Y-129591964D01*
X92989886Y-129472582D01*
X92933909Y-129276951D01*
X92839698Y-129096593D01*
X92711109Y-128938891D01*
X92553407Y-128810302D01*
X92553405Y-128810301D01*
X92553404Y-128810300D01*
X92373047Y-128716090D01*
X92177420Y-128660114D01*
X92137624Y-128656576D01*
X92058037Y-128649500D01*
X92058033Y-128649500D01*
X91541967Y-128649500D01*
X91435491Y-128658966D01*
X91422582Y-128660114D01*
X91422581Y-128660114D01*
X91422576Y-128660115D01*
X91226953Y-128716090D01*
X91046595Y-128810300D01*
X90888894Y-128938888D01*
X90888888Y-128938894D01*
X90881521Y-128947929D01*
X90760302Y-129096593D01*
X90703622Y-129205103D01*
X90687250Y-129236445D01*
X90643549Y-129279269D01*
X90583023Y-129288227D01*
X90528791Y-129259899D01*
X90501567Y-129205103D01*
X90500500Y-129190608D01*
X90500500Y-127569391D01*
X90519407Y-127511200D01*
X90568907Y-127475236D01*
X90630093Y-127475236D01*
X90679593Y-127511200D01*
X90687247Y-127523550D01*
X90760302Y-127663407D01*
X90888891Y-127821109D01*
X91046593Y-127949698D01*
X91226951Y-128043909D01*
X91422582Y-128099886D01*
X91541963Y-128110500D01*
X92058036Y-128110499D01*
X92177418Y-128099886D01*
X92373049Y-128043909D01*
X92553407Y-127949698D01*
X92711109Y-127821109D01*
X92839698Y-127663407D01*
X92933909Y-127483049D01*
X92989886Y-127287418D01*
X93000500Y-127168037D01*
X93000499Y-127051966D01*
X120741599Y-127051966D01*
X120741599Y-127168032D01*
X120752213Y-127287416D01*
X120752214Y-127287423D01*
X120805954Y-127475236D01*
X120808190Y-127483049D01*
X120902401Y-127663407D01*
X121030990Y-127821109D01*
X121188692Y-127949698D01*
X121369050Y-128043909D01*
X121564681Y-128099886D01*
X121684062Y-128110500D01*
X122200135Y-128110499D01*
X122319517Y-128099886D01*
X122515148Y-128043909D01*
X122695506Y-127949698D01*
X122853208Y-127821109D01*
X122981797Y-127663407D01*
X123076008Y-127483049D01*
X123131985Y-127287418D01*
X123142599Y-127168037D01*
X123142598Y-127051964D01*
X123131985Y-126932582D01*
X123076008Y-126736951D01*
X122981797Y-126556593D01*
X122853208Y-126398891D01*
X122695506Y-126270302D01*
X122695504Y-126270301D01*
X122695503Y-126270300D01*
X122515146Y-126176090D01*
X122319519Y-126120114D01*
X122279723Y-126116576D01*
X122200136Y-126109500D01*
X122200132Y-126109500D01*
X121684066Y-126109500D01*
X121577590Y-126118966D01*
X121564681Y-126120114D01*
X121564680Y-126120114D01*
X121564675Y-126120115D01*
X121369052Y-126176090D01*
X121188694Y-126270300D01*
X121030993Y-126398888D01*
X121030987Y-126398894D01*
X120902399Y-126556595D01*
X120808189Y-126736952D01*
X120752213Y-126932579D01*
X120741599Y-127051966D01*
X93000499Y-127051966D01*
X93000499Y-127051964D01*
X92989886Y-126932582D01*
X92933909Y-126736951D01*
X92839698Y-126556593D01*
X92711109Y-126398891D01*
X92553407Y-126270302D01*
X92553405Y-126270301D01*
X92553404Y-126270300D01*
X92373047Y-126176090D01*
X92177420Y-126120114D01*
X92137624Y-126116576D01*
X92058037Y-126109500D01*
X92058033Y-126109500D01*
X91541967Y-126109500D01*
X91435491Y-126118966D01*
X91422582Y-126120114D01*
X91422581Y-126120114D01*
X91422576Y-126120115D01*
X91226953Y-126176090D01*
X91046595Y-126270300D01*
X90888894Y-126398888D01*
X90888888Y-126398894D01*
X90791860Y-126517890D01*
X90760302Y-126556593D01*
X90703622Y-126665103D01*
X90687250Y-126696445D01*
X90643549Y-126739269D01*
X90583023Y-126748227D01*
X90528791Y-126719899D01*
X90501567Y-126665103D01*
X90500500Y-126650608D01*
X90500500Y-125029391D01*
X90519407Y-124971200D01*
X90568907Y-124935236D01*
X90630093Y-124935236D01*
X90679593Y-124971200D01*
X90687247Y-124983550D01*
X90760302Y-125123407D01*
X90888891Y-125281109D01*
X91046593Y-125409698D01*
X91226951Y-125503909D01*
X91422582Y-125559886D01*
X91541963Y-125570500D01*
X92058036Y-125570499D01*
X92177418Y-125559886D01*
X92373049Y-125503909D01*
X92553407Y-125409698D01*
X92711109Y-125281109D01*
X92839698Y-125123407D01*
X92933909Y-124943049D01*
X92989886Y-124747418D01*
X93000500Y-124628037D01*
X93000499Y-124511966D01*
X120741599Y-124511966D01*
X120741599Y-124628032D01*
X120747408Y-124693365D01*
X120752213Y-124747418D01*
X120808190Y-124943049D01*
X120902401Y-125123407D01*
X121030990Y-125281109D01*
X121188692Y-125409698D01*
X121369050Y-125503909D01*
X121564681Y-125559886D01*
X121684062Y-125570500D01*
X122200135Y-125570499D01*
X122319517Y-125559886D01*
X122515148Y-125503909D01*
X122695506Y-125409698D01*
X122853208Y-125281109D01*
X122981797Y-125123407D01*
X123076008Y-124943049D01*
X123131985Y-124747418D01*
X123142599Y-124628037D01*
X123142598Y-124511964D01*
X123131985Y-124392582D01*
X123076008Y-124196951D01*
X122981797Y-124016593D01*
X122853208Y-123858891D01*
X122695506Y-123730302D01*
X122695504Y-123730301D01*
X122695503Y-123730300D01*
X122515146Y-123636090D01*
X122319519Y-123580114D01*
X122279723Y-123576576D01*
X122200136Y-123569500D01*
X122200132Y-123569500D01*
X121684066Y-123569500D01*
X121579394Y-123578806D01*
X121564681Y-123580114D01*
X121564680Y-123580114D01*
X121564675Y-123580115D01*
X121369052Y-123636090D01*
X121188694Y-123730300D01*
X121030993Y-123858888D01*
X121030987Y-123858894D01*
X120902399Y-124016595D01*
X120808189Y-124196952D01*
X120752213Y-124392579D01*
X120741599Y-124511966D01*
X93000499Y-124511966D01*
X93000499Y-124511964D01*
X92989886Y-124392582D01*
X92933909Y-124196951D01*
X92839698Y-124016593D01*
X92711109Y-123858891D01*
X92553407Y-123730302D01*
X92553405Y-123730301D01*
X92553404Y-123730300D01*
X92373047Y-123636090D01*
X92177420Y-123580114D01*
X92137624Y-123576576D01*
X92058037Y-123569500D01*
X92058033Y-123569500D01*
X91541967Y-123569500D01*
X91437295Y-123578806D01*
X91422582Y-123580114D01*
X91422581Y-123580114D01*
X91422576Y-123580115D01*
X91226953Y-123636090D01*
X91046595Y-123730300D01*
X90888894Y-123858888D01*
X90888888Y-123858894D01*
X90772160Y-124002050D01*
X90760302Y-124016593D01*
X90703622Y-124125103D01*
X90687250Y-124156445D01*
X90643549Y-124199269D01*
X90583023Y-124208227D01*
X90528791Y-124179899D01*
X90501567Y-124125103D01*
X90500500Y-124110608D01*
X90500500Y-122489391D01*
X90519407Y-122431200D01*
X90568907Y-122395236D01*
X90630093Y-122395236D01*
X90679593Y-122431200D01*
X90687247Y-122443550D01*
X90760302Y-122583407D01*
X90888891Y-122741109D01*
X91046593Y-122869698D01*
X91226951Y-122963909D01*
X91422582Y-123019886D01*
X91541963Y-123030500D01*
X92058036Y-123030499D01*
X92177418Y-123019886D01*
X92373049Y-122963909D01*
X92553407Y-122869698D01*
X92711109Y-122741109D01*
X92839698Y-122583407D01*
X92933909Y-122403049D01*
X92989886Y-122207418D01*
X93000500Y-122088037D01*
X93000499Y-121971966D01*
X120741599Y-121971966D01*
X120741599Y-122088032D01*
X120747408Y-122153367D01*
X120752213Y-122207418D01*
X120805954Y-122395236D01*
X120808189Y-122403045D01*
X120808188Y-122403045D01*
X120808189Y-122403048D01*
X120808190Y-122403049D01*
X120902401Y-122583407D01*
X121030990Y-122741109D01*
X121188692Y-122869698D01*
X121369050Y-122963909D01*
X121564681Y-123019886D01*
X121684062Y-123030500D01*
X122200135Y-123030499D01*
X122319517Y-123019886D01*
X122515148Y-122963909D01*
X122695506Y-122869698D01*
X122853208Y-122741109D01*
X122981797Y-122583407D01*
X123076008Y-122403049D01*
X123131985Y-122207418D01*
X123142599Y-122088037D01*
X123142598Y-121971964D01*
X123131985Y-121852582D01*
X123076008Y-121656951D01*
X122981797Y-121476593D01*
X122853208Y-121318891D01*
X122695506Y-121190302D01*
X122695504Y-121190301D01*
X122695503Y-121190300D01*
X122515146Y-121096090D01*
X122319519Y-121040114D01*
X122279723Y-121036576D01*
X122200136Y-121029500D01*
X122200132Y-121029500D01*
X121684066Y-121029500D01*
X121577590Y-121038966D01*
X121564681Y-121040114D01*
X121564680Y-121040114D01*
X121564675Y-121040115D01*
X121369052Y-121096090D01*
X121188694Y-121190300D01*
X121030993Y-121318888D01*
X121030987Y-121318894D01*
X120902399Y-121476595D01*
X120808189Y-121656952D01*
X120752213Y-121852579D01*
X120741599Y-121971966D01*
X93000499Y-121971966D01*
X93000499Y-121971964D01*
X92989886Y-121852582D01*
X92933909Y-121656951D01*
X92839698Y-121476593D01*
X92711109Y-121318891D01*
X92553407Y-121190302D01*
X92553405Y-121190301D01*
X92553404Y-121190300D01*
X92373047Y-121096090D01*
X92177420Y-121040114D01*
X92137624Y-121036576D01*
X92058037Y-121029500D01*
X92058033Y-121029500D01*
X91541967Y-121029500D01*
X91435491Y-121038966D01*
X91422582Y-121040114D01*
X91422581Y-121040114D01*
X91422576Y-121040115D01*
X91226953Y-121096090D01*
X91046595Y-121190300D01*
X90888894Y-121318888D01*
X90888888Y-121318894D01*
X90772160Y-121462050D01*
X90760302Y-121476593D01*
X90703622Y-121585103D01*
X90687250Y-121616445D01*
X90643549Y-121659269D01*
X90583023Y-121668227D01*
X90528791Y-121639899D01*
X90501567Y-121585103D01*
X90500500Y-121570608D01*
X90500500Y-119949391D01*
X90519407Y-119891200D01*
X90568907Y-119855236D01*
X90630093Y-119855236D01*
X90679593Y-119891200D01*
X90687247Y-119903550D01*
X90760302Y-120043407D01*
X90888891Y-120201109D01*
X91046593Y-120329698D01*
X91226951Y-120423909D01*
X91422582Y-120479886D01*
X91541963Y-120490500D01*
X92058036Y-120490499D01*
X92177418Y-120479886D01*
X92373049Y-120423909D01*
X92553407Y-120329698D01*
X92711109Y-120201109D01*
X92839698Y-120043407D01*
X92933909Y-119863049D01*
X92989886Y-119667418D01*
X93000500Y-119548037D01*
X93000499Y-119431966D01*
X120741599Y-119431966D01*
X120741599Y-119548032D01*
X120747408Y-119613367D01*
X120752213Y-119667418D01*
X120808190Y-119863049D01*
X120902401Y-120043407D01*
X121030990Y-120201109D01*
X121188692Y-120329698D01*
X121369050Y-120423909D01*
X121564681Y-120479886D01*
X121684062Y-120490500D01*
X122200135Y-120490499D01*
X122319517Y-120479886D01*
X122515148Y-120423909D01*
X122558132Y-120401456D01*
X127049500Y-120401456D01*
X127049500Y-120598543D01*
X127087949Y-120791834D01*
X127087949Y-120791836D01*
X127163367Y-120973913D01*
X127163368Y-120973914D01*
X127272861Y-121137782D01*
X127412218Y-121277139D01*
X127576086Y-121386632D01*
X127758165Y-121462051D01*
X127951459Y-121500500D01*
X127951460Y-121500500D01*
X128548540Y-121500500D01*
X128548541Y-121500500D01*
X128741835Y-121462051D01*
X128923914Y-121386632D01*
X129087782Y-121277139D01*
X129227139Y-121137782D01*
X129336632Y-120973914D01*
X129412051Y-120791835D01*
X129450500Y-120598541D01*
X129450500Y-120401459D01*
X129412051Y-120208165D01*
X129336632Y-120026086D01*
X129227139Y-119862218D01*
X129087782Y-119722861D01*
X128923914Y-119613368D01*
X128923915Y-119613368D01*
X128923913Y-119613367D01*
X128741835Y-119537949D01*
X128548543Y-119499500D01*
X128548541Y-119499500D01*
X127951459Y-119499500D01*
X127951456Y-119499500D01*
X127758165Y-119537949D01*
X127758163Y-119537949D01*
X127576086Y-119613367D01*
X127412218Y-119722861D01*
X127412214Y-119722864D01*
X127272864Y-119862214D01*
X127272861Y-119862218D01*
X127163367Y-120026086D01*
X127087949Y-120208163D01*
X127087949Y-120208165D01*
X127049500Y-120401456D01*
X122558132Y-120401456D01*
X122695506Y-120329698D01*
X122853208Y-120201109D01*
X122981797Y-120043407D01*
X123076008Y-119863049D01*
X123131985Y-119667418D01*
X123142599Y-119548037D01*
X123142598Y-119431964D01*
X123131985Y-119312582D01*
X123076008Y-119116951D01*
X122981797Y-118936593D01*
X122853208Y-118778891D01*
X122695506Y-118650302D01*
X122695504Y-118650301D01*
X122695503Y-118650300D01*
X122515146Y-118556090D01*
X122319519Y-118500114D01*
X122279723Y-118496576D01*
X122200136Y-118489500D01*
X122200132Y-118489500D01*
X121684066Y-118489500D01*
X121577590Y-118498966D01*
X121564681Y-118500114D01*
X121564680Y-118500114D01*
X121564675Y-118500115D01*
X121369052Y-118556090D01*
X121188694Y-118650300D01*
X121030993Y-118778888D01*
X121030987Y-118778894D01*
X120902399Y-118936595D01*
X120808189Y-119116952D01*
X120752213Y-119312579D01*
X120741599Y-119431966D01*
X93000499Y-119431966D01*
X93000499Y-119431964D01*
X92989886Y-119312582D01*
X92933909Y-119116951D01*
X92839698Y-118936593D01*
X92711109Y-118778891D01*
X92553407Y-118650302D01*
X92553405Y-118650301D01*
X92553404Y-118650300D01*
X92373047Y-118556090D01*
X92177420Y-118500114D01*
X92137624Y-118496576D01*
X92058037Y-118489500D01*
X92058033Y-118489500D01*
X91541967Y-118489500D01*
X91435491Y-118498966D01*
X91422582Y-118500114D01*
X91422581Y-118500114D01*
X91422576Y-118500115D01*
X91226953Y-118556090D01*
X91046595Y-118650300D01*
X90888894Y-118778888D01*
X90888888Y-118778894D01*
X90772160Y-118922050D01*
X90760302Y-118936593D01*
X90703622Y-119045103D01*
X90687250Y-119076445D01*
X90643549Y-119119269D01*
X90583023Y-119128227D01*
X90528791Y-119099899D01*
X90501567Y-119045103D01*
X90500500Y-119030608D01*
X90500500Y-117409391D01*
X90519407Y-117351200D01*
X90568907Y-117315236D01*
X90630093Y-117315236D01*
X90679593Y-117351200D01*
X90687247Y-117363550D01*
X90760302Y-117503407D01*
X90888891Y-117661109D01*
X91046593Y-117789698D01*
X91226951Y-117883909D01*
X91422582Y-117939886D01*
X91541963Y-117950500D01*
X92058036Y-117950499D01*
X92177418Y-117939886D01*
X92373049Y-117883909D01*
X92553407Y-117789698D01*
X92711109Y-117661109D01*
X92839698Y-117503407D01*
X92933909Y-117323049D01*
X92989886Y-117127418D01*
X93000500Y-117008037D01*
X93000499Y-116891966D01*
X120741599Y-116891966D01*
X120741599Y-117008032D01*
X120747408Y-117073367D01*
X120752213Y-117127418D01*
X120808190Y-117323049D01*
X120902401Y-117503407D01*
X121030990Y-117661109D01*
X121188692Y-117789698D01*
X121369050Y-117883909D01*
X121564681Y-117939886D01*
X121684062Y-117950500D01*
X122200135Y-117950499D01*
X122319517Y-117939886D01*
X122515148Y-117883909D01*
X122558132Y-117861456D01*
X127049500Y-117861456D01*
X127049500Y-118058543D01*
X127087949Y-118251834D01*
X127087949Y-118251836D01*
X127163367Y-118433913D01*
X127163368Y-118433914D01*
X127272861Y-118597782D01*
X127412218Y-118737139D01*
X127576086Y-118846632D01*
X127758165Y-118922051D01*
X127951459Y-118960500D01*
X127951460Y-118960500D01*
X128548540Y-118960500D01*
X128548541Y-118960500D01*
X128741835Y-118922051D01*
X128923914Y-118846632D01*
X129087782Y-118737139D01*
X129227139Y-118597782D01*
X129336632Y-118433914D01*
X129412051Y-118251835D01*
X129450500Y-118058541D01*
X129450500Y-117861459D01*
X129412051Y-117668165D01*
X129336632Y-117486086D01*
X129227139Y-117322218D01*
X129087782Y-117182861D01*
X128923914Y-117073368D01*
X128923915Y-117073368D01*
X128923913Y-117073367D01*
X128741835Y-116997949D01*
X128548543Y-116959500D01*
X128548541Y-116959500D01*
X127951459Y-116959500D01*
X127951456Y-116959500D01*
X127758165Y-116997949D01*
X127758163Y-116997949D01*
X127576086Y-117073367D01*
X127412218Y-117182861D01*
X127412214Y-117182864D01*
X127272864Y-117322214D01*
X127272861Y-117322218D01*
X127163367Y-117486086D01*
X127087949Y-117668163D01*
X127087949Y-117668165D01*
X127049500Y-117861456D01*
X122558132Y-117861456D01*
X122695506Y-117789698D01*
X122853208Y-117661109D01*
X122981797Y-117503407D01*
X123076008Y-117323049D01*
X123131985Y-117127418D01*
X123142599Y-117008037D01*
X123142598Y-116891964D01*
X123131985Y-116772582D01*
X123076008Y-116576951D01*
X122981797Y-116396593D01*
X122853208Y-116238891D01*
X122695506Y-116110302D01*
X122695504Y-116110301D01*
X122695503Y-116110300D01*
X122515146Y-116016090D01*
X122319519Y-115960114D01*
X122279723Y-115956576D01*
X122200136Y-115949500D01*
X122200132Y-115949500D01*
X121684066Y-115949500D01*
X121577590Y-115958966D01*
X121564681Y-115960114D01*
X121564680Y-115960114D01*
X121564675Y-115960115D01*
X121369052Y-116016090D01*
X121188694Y-116110300D01*
X121030993Y-116238888D01*
X121030987Y-116238894D01*
X120902399Y-116396595D01*
X120808189Y-116576952D01*
X120752213Y-116772579D01*
X120741599Y-116891966D01*
X93000499Y-116891966D01*
X93000499Y-116891964D01*
X92989886Y-116772582D01*
X92933909Y-116576951D01*
X92839698Y-116396593D01*
X92711109Y-116238891D01*
X92553407Y-116110302D01*
X92553405Y-116110301D01*
X92553404Y-116110300D01*
X92373047Y-116016090D01*
X92177420Y-115960114D01*
X92137624Y-115956576D01*
X92058037Y-115949500D01*
X92058033Y-115949500D01*
X91541967Y-115949500D01*
X91435491Y-115958966D01*
X91422582Y-115960114D01*
X91422581Y-115960114D01*
X91422576Y-115960115D01*
X91226953Y-116016090D01*
X91046595Y-116110300D01*
X90888894Y-116238888D01*
X90888888Y-116238894D01*
X90772160Y-116382050D01*
X90760302Y-116396593D01*
X90703622Y-116505103D01*
X90687250Y-116536445D01*
X90643549Y-116579269D01*
X90583023Y-116588227D01*
X90528791Y-116559899D01*
X90501567Y-116505103D01*
X90500500Y-116490608D01*
X90500500Y-114869391D01*
X90519407Y-114811200D01*
X90568907Y-114775236D01*
X90630093Y-114775236D01*
X90679593Y-114811200D01*
X90687247Y-114823550D01*
X90760302Y-114963407D01*
X90888891Y-115121109D01*
X91046593Y-115249698D01*
X91226951Y-115343909D01*
X91422582Y-115399886D01*
X91541963Y-115410500D01*
X92058036Y-115410499D01*
X92177418Y-115399886D01*
X92373049Y-115343909D01*
X92553407Y-115249698D01*
X92711109Y-115121109D01*
X92839698Y-114963407D01*
X92933909Y-114783049D01*
X92989886Y-114587418D01*
X93000500Y-114468037D01*
X93000499Y-114351966D01*
X120741599Y-114351966D01*
X120741599Y-114468032D01*
X120747408Y-114533367D01*
X120752213Y-114587418D01*
X120808190Y-114783049D01*
X120902401Y-114963407D01*
X121030990Y-115121109D01*
X121188692Y-115249698D01*
X121369050Y-115343909D01*
X121564681Y-115399886D01*
X121684062Y-115410500D01*
X122200135Y-115410499D01*
X122319517Y-115399886D01*
X122515148Y-115343909D01*
X122558132Y-115321456D01*
X127049500Y-115321456D01*
X127049500Y-115518543D01*
X127087949Y-115711834D01*
X127087949Y-115711836D01*
X127163367Y-115893913D01*
X127163368Y-115893914D01*
X127272861Y-116057782D01*
X127412218Y-116197139D01*
X127576086Y-116306632D01*
X127758165Y-116382051D01*
X127951459Y-116420500D01*
X127951460Y-116420500D01*
X128548540Y-116420500D01*
X128548541Y-116420500D01*
X128741835Y-116382051D01*
X128923914Y-116306632D01*
X129087782Y-116197139D01*
X129227139Y-116057782D01*
X129336632Y-115893914D01*
X129412051Y-115711835D01*
X129450500Y-115518541D01*
X129450500Y-115321459D01*
X129412051Y-115128165D01*
X129336632Y-114946086D01*
X129227139Y-114782218D01*
X129087782Y-114642861D01*
X128923914Y-114533368D01*
X128923915Y-114533368D01*
X128923913Y-114533367D01*
X128741835Y-114457949D01*
X128548543Y-114419500D01*
X128548541Y-114419500D01*
X127951459Y-114419500D01*
X127951456Y-114419500D01*
X127758165Y-114457949D01*
X127758163Y-114457949D01*
X127576086Y-114533367D01*
X127412218Y-114642861D01*
X127412214Y-114642864D01*
X127272864Y-114782214D01*
X127272861Y-114782218D01*
X127163367Y-114946086D01*
X127087949Y-115128163D01*
X127087949Y-115128165D01*
X127049500Y-115321456D01*
X122558132Y-115321456D01*
X122695506Y-115249698D01*
X122853208Y-115121109D01*
X122981797Y-114963407D01*
X123076008Y-114783049D01*
X123131985Y-114587418D01*
X123142599Y-114468037D01*
X123142598Y-114351964D01*
X123131985Y-114232582D01*
X123076008Y-114036951D01*
X122981797Y-113856593D01*
X122853208Y-113698891D01*
X122695506Y-113570302D01*
X122695504Y-113570301D01*
X122695503Y-113570300D01*
X122515146Y-113476090D01*
X122319519Y-113420114D01*
X122279723Y-113416576D01*
X122200136Y-113409500D01*
X122200132Y-113409500D01*
X121684066Y-113409500D01*
X121577590Y-113418966D01*
X121564681Y-113420114D01*
X121564680Y-113420114D01*
X121564675Y-113420115D01*
X121369052Y-113476090D01*
X121188694Y-113570300D01*
X121030993Y-113698888D01*
X121030987Y-113698894D01*
X120902399Y-113856595D01*
X120808189Y-114036952D01*
X120752213Y-114232579D01*
X120741599Y-114351966D01*
X93000499Y-114351966D01*
X93000499Y-114351964D01*
X92989886Y-114232582D01*
X92933909Y-114036951D01*
X92839698Y-113856593D01*
X92711109Y-113698891D01*
X92553407Y-113570302D01*
X92553405Y-113570301D01*
X92553404Y-113570300D01*
X92373047Y-113476090D01*
X92177420Y-113420114D01*
X92137624Y-113416576D01*
X92058037Y-113409500D01*
X92058033Y-113409500D01*
X91541967Y-113409500D01*
X91435491Y-113418966D01*
X91422582Y-113420114D01*
X91422581Y-113420114D01*
X91422576Y-113420115D01*
X91226953Y-113476090D01*
X91046595Y-113570300D01*
X90888894Y-113698888D01*
X90888888Y-113698894D01*
X90772160Y-113842050D01*
X90760302Y-113856593D01*
X90703622Y-113965103D01*
X90687250Y-113996445D01*
X90643549Y-114039269D01*
X90583023Y-114048227D01*
X90528791Y-114019899D01*
X90501567Y-113965103D01*
X90500500Y-113950608D01*
X90500500Y-112329391D01*
X90519407Y-112271200D01*
X90568907Y-112235236D01*
X90630093Y-112235236D01*
X90679593Y-112271200D01*
X90687247Y-112283550D01*
X90760302Y-112423407D01*
X90888891Y-112581109D01*
X91046593Y-112709698D01*
X91226951Y-112803909D01*
X91422582Y-112859886D01*
X91541963Y-112870500D01*
X92058036Y-112870499D01*
X92177418Y-112859886D01*
X92373049Y-112803909D01*
X92553407Y-112709698D01*
X92711109Y-112581109D01*
X92839698Y-112423407D01*
X92933909Y-112243049D01*
X92989886Y-112047418D01*
X93000500Y-111928037D01*
X93000499Y-111811966D01*
X120741599Y-111811966D01*
X120741599Y-111928032D01*
X120747408Y-111993367D01*
X120752213Y-112047418D01*
X120808190Y-112243049D01*
X120902401Y-112423407D01*
X121030990Y-112581109D01*
X121188692Y-112709698D01*
X121369050Y-112803909D01*
X121564681Y-112859886D01*
X121684062Y-112870500D01*
X122200135Y-112870499D01*
X122319517Y-112859886D01*
X122515148Y-112803909D01*
X122558132Y-112781456D01*
X127049500Y-112781456D01*
X127049500Y-112978543D01*
X127087949Y-113171834D01*
X127087949Y-113171836D01*
X127163367Y-113353913D01*
X127163368Y-113353914D01*
X127272861Y-113517782D01*
X127412218Y-113657139D01*
X127576086Y-113766632D01*
X127758165Y-113842051D01*
X127951459Y-113880500D01*
X127951460Y-113880500D01*
X128548540Y-113880500D01*
X128548541Y-113880500D01*
X128741835Y-113842051D01*
X128923914Y-113766632D01*
X129087782Y-113657139D01*
X129227139Y-113517782D01*
X129336632Y-113353914D01*
X129412051Y-113171835D01*
X129450500Y-112978541D01*
X129450500Y-112781459D01*
X129412051Y-112588165D01*
X129336632Y-112406086D01*
X129227139Y-112242218D01*
X129087782Y-112102861D01*
X128923914Y-111993368D01*
X128923915Y-111993368D01*
X128923913Y-111993367D01*
X128741835Y-111917949D01*
X128548543Y-111879500D01*
X128548541Y-111879500D01*
X127951459Y-111879500D01*
X127951456Y-111879500D01*
X127758165Y-111917949D01*
X127758163Y-111917949D01*
X127576086Y-111993367D01*
X127412218Y-112102861D01*
X127412214Y-112102864D01*
X127272864Y-112242214D01*
X127272861Y-112242218D01*
X127163367Y-112406086D01*
X127087949Y-112588163D01*
X127087949Y-112588165D01*
X127049500Y-112781456D01*
X122558132Y-112781456D01*
X122695506Y-112709698D01*
X122853208Y-112581109D01*
X122981797Y-112423407D01*
X123076008Y-112243049D01*
X123131985Y-112047418D01*
X123142599Y-111928037D01*
X123142598Y-111811964D01*
X123131985Y-111692582D01*
X123076008Y-111496951D01*
X122981797Y-111316593D01*
X122853208Y-111158891D01*
X122695506Y-111030302D01*
X122695504Y-111030301D01*
X122695503Y-111030300D01*
X122515146Y-110936090D01*
X122319519Y-110880114D01*
X122279723Y-110876576D01*
X122200136Y-110869500D01*
X122200132Y-110869500D01*
X121684066Y-110869500D01*
X121577590Y-110878966D01*
X121564681Y-110880114D01*
X121564680Y-110880114D01*
X121564675Y-110880115D01*
X121369052Y-110936090D01*
X121188694Y-111030300D01*
X121030993Y-111158888D01*
X121030987Y-111158894D01*
X120902399Y-111316595D01*
X120808189Y-111496952D01*
X120752213Y-111692579D01*
X120741599Y-111811966D01*
X93000499Y-111811966D01*
X93000499Y-111811964D01*
X92989886Y-111692582D01*
X92933909Y-111496951D01*
X92839698Y-111316593D01*
X92711109Y-111158891D01*
X92553407Y-111030302D01*
X92553405Y-111030301D01*
X92553404Y-111030300D01*
X92373047Y-110936090D01*
X92177420Y-110880114D01*
X92137624Y-110876576D01*
X92058037Y-110869500D01*
X92058033Y-110869500D01*
X91541967Y-110869500D01*
X91435491Y-110878966D01*
X91422582Y-110880114D01*
X91422581Y-110880114D01*
X91422576Y-110880115D01*
X91226953Y-110936090D01*
X91046595Y-111030300D01*
X90888894Y-111158888D01*
X90888888Y-111158894D01*
X90760302Y-111316593D01*
X90703622Y-111425103D01*
X90687250Y-111456445D01*
X90643549Y-111499269D01*
X90583023Y-111508227D01*
X90528791Y-111479899D01*
X90501567Y-111425103D01*
X90500500Y-111410608D01*
X90500500Y-109789391D01*
X90519407Y-109731200D01*
X90568907Y-109695236D01*
X90630093Y-109695236D01*
X90679593Y-109731200D01*
X90687247Y-109743550D01*
X90760302Y-109883407D01*
X90888891Y-110041109D01*
X91046593Y-110169698D01*
X91226951Y-110263909D01*
X91422582Y-110319886D01*
X91541963Y-110330500D01*
X92058036Y-110330499D01*
X92177418Y-110319886D01*
X92373049Y-110263909D01*
X92553407Y-110169698D01*
X92711109Y-110041109D01*
X92839698Y-109883407D01*
X92933909Y-109703049D01*
X92989886Y-109507418D01*
X93000500Y-109388037D01*
X93000499Y-109271966D01*
X120741599Y-109271966D01*
X120741599Y-109388032D01*
X120749917Y-109481599D01*
X120752213Y-109507418D01*
X120808190Y-109703049D01*
X120902401Y-109883407D01*
X121030990Y-110041109D01*
X121188692Y-110169698D01*
X121369050Y-110263909D01*
X121564681Y-110319886D01*
X121684062Y-110330500D01*
X122200135Y-110330499D01*
X122319517Y-110319886D01*
X122515148Y-110263909D01*
X122695506Y-110169698D01*
X122853208Y-110041109D01*
X122981797Y-109883407D01*
X123076008Y-109703049D01*
X123131985Y-109507418D01*
X123142599Y-109388037D01*
X123142598Y-109271964D01*
X123131985Y-109152582D01*
X123076008Y-108956951D01*
X122981797Y-108776593D01*
X122853208Y-108618891D01*
X122695506Y-108490302D01*
X122695504Y-108490301D01*
X122695503Y-108490300D01*
X122515146Y-108396090D01*
X122319519Y-108340114D01*
X122279723Y-108336576D01*
X122200136Y-108329500D01*
X122200132Y-108329500D01*
X121684066Y-108329500D01*
X121577590Y-108338966D01*
X121564681Y-108340114D01*
X121564680Y-108340114D01*
X121564675Y-108340115D01*
X121369052Y-108396090D01*
X121188694Y-108490300D01*
X121030993Y-108618888D01*
X121030987Y-108618894D01*
X120902399Y-108776595D01*
X120808189Y-108956952D01*
X120752213Y-109152579D01*
X120741599Y-109271966D01*
X93000499Y-109271966D01*
X93000499Y-109271964D01*
X92989886Y-109152582D01*
X92933909Y-108956951D01*
X92839698Y-108776593D01*
X92711109Y-108618891D01*
X92553407Y-108490302D01*
X92553405Y-108490301D01*
X92553404Y-108490300D01*
X92373047Y-108396090D01*
X92177420Y-108340114D01*
X92137624Y-108336576D01*
X92058037Y-108329500D01*
X92058033Y-108329500D01*
X91541967Y-108329500D01*
X91435491Y-108338966D01*
X91422582Y-108340114D01*
X91422581Y-108340114D01*
X91422576Y-108340115D01*
X91226953Y-108396090D01*
X91046595Y-108490300D01*
X90888894Y-108618888D01*
X90888888Y-108618894D01*
X90760302Y-108776593D01*
X90703622Y-108885103D01*
X90687250Y-108916445D01*
X90643549Y-108959269D01*
X90583023Y-108968227D01*
X90528791Y-108939899D01*
X90501567Y-108885103D01*
X90500500Y-108870608D01*
X90500500Y-107249391D01*
X90519407Y-107191200D01*
X90568907Y-107155236D01*
X90630093Y-107155236D01*
X90679593Y-107191200D01*
X90687247Y-107203550D01*
X90760302Y-107343407D01*
X90888891Y-107501109D01*
X91046593Y-107629698D01*
X91226951Y-107723909D01*
X91422582Y-107779886D01*
X91541963Y-107790500D01*
X92058036Y-107790499D01*
X92177418Y-107779886D01*
X92373049Y-107723909D01*
X92553407Y-107629698D01*
X92711109Y-107501109D01*
X92839698Y-107343407D01*
X92933909Y-107163049D01*
X92989886Y-106967418D01*
X93000500Y-106848037D01*
X93000499Y-106731966D01*
X120741599Y-106731966D01*
X120741599Y-106848032D01*
X120749917Y-106941599D01*
X120752213Y-106967418D01*
X120808190Y-107163049D01*
X120902401Y-107343407D01*
X121030990Y-107501109D01*
X121188692Y-107629698D01*
X121369050Y-107723909D01*
X121564681Y-107779886D01*
X121684062Y-107790500D01*
X122200135Y-107790499D01*
X122319517Y-107779886D01*
X122515148Y-107723909D01*
X122695506Y-107629698D01*
X122853208Y-107501109D01*
X122981797Y-107343407D01*
X123076008Y-107163049D01*
X123131985Y-106967418D01*
X123142599Y-106848037D01*
X123142598Y-106731964D01*
X123131985Y-106612582D01*
X123076008Y-106416951D01*
X122981797Y-106236593D01*
X122853208Y-106078891D01*
X122695506Y-105950302D01*
X122695504Y-105950301D01*
X122695503Y-105950300D01*
X122515146Y-105856090D01*
X122319519Y-105800114D01*
X122279723Y-105796576D01*
X122200136Y-105789500D01*
X122200132Y-105789500D01*
X121684066Y-105789500D01*
X121577590Y-105798966D01*
X121564681Y-105800114D01*
X121564680Y-105800114D01*
X121564675Y-105800115D01*
X121369052Y-105856090D01*
X121188694Y-105950300D01*
X121030993Y-106078888D01*
X121030987Y-106078894D01*
X120902399Y-106236595D01*
X120808189Y-106416952D01*
X120752213Y-106612579D01*
X120741599Y-106731966D01*
X93000499Y-106731966D01*
X93000499Y-106731964D01*
X92989886Y-106612582D01*
X92933909Y-106416951D01*
X92839698Y-106236593D01*
X92711109Y-106078891D01*
X92553407Y-105950302D01*
X92553405Y-105950301D01*
X92553404Y-105950300D01*
X92373047Y-105856090D01*
X92177420Y-105800114D01*
X92137624Y-105796576D01*
X92058037Y-105789500D01*
X92058033Y-105789500D01*
X91541967Y-105789500D01*
X91435491Y-105798966D01*
X91422582Y-105800114D01*
X91422581Y-105800114D01*
X91422576Y-105800115D01*
X91226953Y-105856090D01*
X91046595Y-105950300D01*
X90888894Y-106078888D01*
X90888888Y-106078894D01*
X90760302Y-106236593D01*
X90703622Y-106345103D01*
X90687250Y-106376445D01*
X90643549Y-106419269D01*
X90583023Y-106428227D01*
X90528791Y-106399899D01*
X90501567Y-106345103D01*
X90500500Y-106330608D01*
X90500500Y-104709391D01*
X90519407Y-104651200D01*
X90568907Y-104615236D01*
X90630093Y-104615236D01*
X90679593Y-104651200D01*
X90687247Y-104663550D01*
X90760302Y-104803407D01*
X90888891Y-104961109D01*
X91046593Y-105089698D01*
X91226951Y-105183909D01*
X91422582Y-105239886D01*
X91541963Y-105250500D01*
X92058036Y-105250499D01*
X92177418Y-105239886D01*
X92373049Y-105183909D01*
X92553407Y-105089698D01*
X92711109Y-104961109D01*
X92839698Y-104803407D01*
X92933909Y-104623049D01*
X92989886Y-104427418D01*
X93000500Y-104308037D01*
X93000499Y-104191966D01*
X120741599Y-104191966D01*
X120741599Y-104308032D01*
X120749917Y-104401599D01*
X120752213Y-104427418D01*
X120808190Y-104623049D01*
X120902401Y-104803407D01*
X121030990Y-104961109D01*
X121188692Y-105089698D01*
X121369050Y-105183909D01*
X121564681Y-105239886D01*
X121684062Y-105250500D01*
X122200135Y-105250499D01*
X122319517Y-105239886D01*
X122515148Y-105183909D01*
X122695506Y-105089698D01*
X122853208Y-104961109D01*
X122981797Y-104803407D01*
X123076008Y-104623049D01*
X123131985Y-104427418D01*
X123142599Y-104308037D01*
X123142598Y-104191964D01*
X123131985Y-104072582D01*
X123076008Y-103876951D01*
X122981797Y-103696593D01*
X122853208Y-103538891D01*
X122695506Y-103410302D01*
X122695504Y-103410301D01*
X122695503Y-103410300D01*
X122515146Y-103316090D01*
X122319519Y-103260114D01*
X122279723Y-103256576D01*
X122200136Y-103249500D01*
X122200132Y-103249500D01*
X121684066Y-103249500D01*
X121577590Y-103258966D01*
X121564681Y-103260114D01*
X121564680Y-103260114D01*
X121564675Y-103260115D01*
X121369052Y-103316090D01*
X121188694Y-103410300D01*
X121030993Y-103538888D01*
X121030987Y-103538894D01*
X120902399Y-103696595D01*
X120808189Y-103876952D01*
X120752213Y-104072579D01*
X120741599Y-104191966D01*
X93000499Y-104191966D01*
X93000499Y-104191964D01*
X92989886Y-104072582D01*
X92933909Y-103876951D01*
X92839698Y-103696593D01*
X92711109Y-103538891D01*
X92553407Y-103410302D01*
X92553405Y-103410301D01*
X92553404Y-103410300D01*
X92373047Y-103316090D01*
X92177420Y-103260114D01*
X92137624Y-103256576D01*
X92058037Y-103249500D01*
X92058033Y-103249500D01*
X91541967Y-103249500D01*
X91435491Y-103258966D01*
X91422582Y-103260114D01*
X91422581Y-103260114D01*
X91422576Y-103260115D01*
X91226953Y-103316090D01*
X91046595Y-103410300D01*
X90888894Y-103538888D01*
X90888888Y-103538894D01*
X90760302Y-103696593D01*
X90703622Y-103805103D01*
X90687250Y-103836445D01*
X90643549Y-103879269D01*
X90583023Y-103888227D01*
X90528791Y-103859899D01*
X90501567Y-103805103D01*
X90500500Y-103790608D01*
X90500500Y-39431904D01*
X91544500Y-39431904D01*
X91544500Y-39668095D01*
X91581445Y-39901363D01*
X91581447Y-39901368D01*
X91654432Y-40125992D01*
X91761657Y-40336433D01*
X91900483Y-40527510D01*
X92067490Y-40694517D01*
X92258567Y-40833343D01*
X92469008Y-40940568D01*
X92693632Y-41013553D01*
X92693633Y-41013553D01*
X92693636Y-41013554D01*
X92926905Y-41050500D01*
X92926908Y-41050500D01*
X93163095Y-41050500D01*
X93396363Y-41013554D01*
X93396364Y-41013553D01*
X93396368Y-41013553D01*
X93620992Y-40940568D01*
X93831433Y-40833343D01*
X94022510Y-40694517D01*
X94189517Y-40527510D01*
X94328343Y-40336433D01*
X94435568Y-40125992D01*
X94508553Y-39901368D01*
X94508554Y-39901363D01*
X94545500Y-39668095D01*
X94545500Y-39431904D01*
X119254500Y-39431904D01*
X119254500Y-39668095D01*
X119291445Y-39901363D01*
X119291447Y-39901368D01*
X119364432Y-40125992D01*
X119471657Y-40336433D01*
X119610483Y-40527510D01*
X119777490Y-40694517D01*
X119968567Y-40833343D01*
X120179008Y-40940568D01*
X120403632Y-41013553D01*
X120403633Y-41013553D01*
X120403636Y-41013554D01*
X120636905Y-41050500D01*
X120636908Y-41050500D01*
X120873095Y-41050500D01*
X121106363Y-41013554D01*
X121106364Y-41013553D01*
X121106368Y-41013553D01*
X121330992Y-40940568D01*
X121541433Y-40833343D01*
X121732510Y-40694517D01*
X121899517Y-40527510D01*
X122038343Y-40336433D01*
X122145568Y-40125992D01*
X122218553Y-39901368D01*
X122218554Y-39901363D01*
X122255500Y-39668095D01*
X122255500Y-39431904D01*
X122218554Y-39198636D01*
X122203960Y-39153720D01*
X122145568Y-38974008D01*
X122038343Y-38763567D01*
X121899517Y-38572490D01*
X121732510Y-38405483D01*
X121541433Y-38266657D01*
X121541432Y-38266656D01*
X121541430Y-38266655D01*
X121330992Y-38159432D01*
X121106363Y-38086445D01*
X120873095Y-38049500D01*
X120873092Y-38049500D01*
X120636908Y-38049500D01*
X120636905Y-38049500D01*
X120403636Y-38086445D01*
X120179007Y-38159432D01*
X119968569Y-38266655D01*
X119777491Y-38405482D01*
X119610482Y-38572491D01*
X119471655Y-38763569D01*
X119364432Y-38974007D01*
X119291445Y-39198636D01*
X119254500Y-39431904D01*
X94545500Y-39431904D01*
X94508554Y-39198636D01*
X94493960Y-39153720D01*
X94435568Y-38974008D01*
X94328343Y-38763567D01*
X94189517Y-38572490D01*
X94022510Y-38405483D01*
X93831433Y-38266657D01*
X93831432Y-38266656D01*
X93831430Y-38266655D01*
X93620992Y-38159432D01*
X93396363Y-38086445D01*
X93163095Y-38049500D01*
X93163092Y-38049500D01*
X92926908Y-38049500D01*
X92926905Y-38049500D01*
X92693636Y-38086445D01*
X92469007Y-38159432D01*
X92258569Y-38266655D01*
X92067491Y-38405482D01*
X91900482Y-38572491D01*
X91761655Y-38763569D01*
X91654432Y-38974007D01*
X91581445Y-39198636D01*
X91544500Y-39431904D01*
X90500500Y-39431904D01*
X90500500Y-33378710D01*
X91649500Y-33378710D01*
X91649500Y-33621289D01*
X91681161Y-33861781D01*
X91681161Y-33861786D01*
X91743944Y-34096092D01*
X91743948Y-34096105D01*
X91836772Y-34320204D01*
X91836774Y-34320208D01*
X91836776Y-34320212D01*
X91958064Y-34530289D01*
X91958066Y-34530292D01*
X92105729Y-34722731D01*
X92105731Y-34722733D01*
X92105735Y-34722738D01*
X92277262Y-34894265D01*
X92277266Y-34894268D01*
X92277268Y-34894270D01*
X92469707Y-35041933D01*
X92469711Y-35041936D01*
X92679788Y-35163224D01*
X92903900Y-35256054D01*
X93138211Y-35318838D01*
X93378712Y-35350500D01*
X93378713Y-35350500D01*
X93621287Y-35350500D01*
X93621288Y-35350500D01*
X93861789Y-35318838D01*
X94096100Y-35256054D01*
X94320212Y-35163224D01*
X94530289Y-35041936D01*
X94722738Y-34894265D01*
X94894265Y-34722738D01*
X95041936Y-34530289D01*
X95163224Y-34320212D01*
X95256054Y-34096100D01*
X95318838Y-33861789D01*
X95350500Y-33621288D01*
X95350500Y-33378712D01*
X95350500Y-33378710D01*
X164649500Y-33378710D01*
X164649500Y-33621289D01*
X164681161Y-33861781D01*
X164681161Y-33861786D01*
X164743944Y-34096092D01*
X164743948Y-34096105D01*
X164836772Y-34320204D01*
X164836774Y-34320208D01*
X164836776Y-34320212D01*
X164958064Y-34530289D01*
X164958066Y-34530292D01*
X165105729Y-34722731D01*
X165105731Y-34722733D01*
X165105735Y-34722738D01*
X165277262Y-34894265D01*
X165277266Y-34894268D01*
X165277268Y-34894270D01*
X165469707Y-35041933D01*
X165469711Y-35041936D01*
X165679788Y-35163224D01*
X165903900Y-35256054D01*
X166138211Y-35318838D01*
X166378712Y-35350500D01*
X166378713Y-35350500D01*
X166621287Y-35350500D01*
X166621288Y-35350500D01*
X166861789Y-35318838D01*
X167096100Y-35256054D01*
X167320212Y-35163224D01*
X167530289Y-35041936D01*
X167722738Y-34894265D01*
X167894265Y-34722738D01*
X168041936Y-34530289D01*
X168163224Y-34320212D01*
X168256054Y-34096100D01*
X168318838Y-33861789D01*
X168350500Y-33621288D01*
X168350500Y-33378712D01*
X168318838Y-33138211D01*
X168256054Y-32903900D01*
X168163224Y-32679788D01*
X168041936Y-32469711D01*
X167894265Y-32277262D01*
X167722738Y-32105735D01*
X167722733Y-32105731D01*
X167722731Y-32105729D01*
X167530292Y-31958066D01*
X167530289Y-31958064D01*
X167320212Y-31836776D01*
X167320208Y-31836774D01*
X167320204Y-31836772D01*
X167096105Y-31743948D01*
X167096104Y-31743947D01*
X167096100Y-31743946D01*
X166861789Y-31681162D01*
X166861786Y-31681161D01*
X166861784Y-31681161D01*
X166621289Y-31649500D01*
X166621288Y-31649500D01*
X166378712Y-31649500D01*
X166378710Y-31649500D01*
X166138218Y-31681161D01*
X166138213Y-31681161D01*
X165903907Y-31743944D01*
X165903894Y-31743948D01*
X165679795Y-31836772D01*
X165469707Y-31958066D01*
X165277268Y-32105729D01*
X165105729Y-32277268D01*
X164958066Y-32469707D01*
X164836772Y-32679795D01*
X164743948Y-32903894D01*
X164743944Y-32903907D01*
X164681161Y-33138213D01*
X164681161Y-33138218D01*
X164649500Y-33378710D01*
X95350500Y-33378710D01*
X95318838Y-33138211D01*
X95256054Y-32903900D01*
X95163224Y-32679788D01*
X95041936Y-32469711D01*
X94894265Y-32277262D01*
X94722738Y-32105735D01*
X94722733Y-32105731D01*
X94722731Y-32105729D01*
X94530292Y-31958066D01*
X94530289Y-31958064D01*
X94320212Y-31836776D01*
X94320208Y-31836774D01*
X94320204Y-31836772D01*
X94096105Y-31743948D01*
X94096104Y-31743947D01*
X94096100Y-31743946D01*
X93861789Y-31681162D01*
X93861786Y-31681161D01*
X93861784Y-31681161D01*
X93621289Y-31649500D01*
X93621288Y-31649500D01*
X93378712Y-31649500D01*
X93378710Y-31649500D01*
X93138218Y-31681161D01*
X93138213Y-31681161D01*
X92903907Y-31743944D01*
X92903894Y-31743948D01*
X92679795Y-31836772D01*
X92469707Y-31958066D01*
X92277268Y-32105729D01*
X92105729Y-32277268D01*
X91958066Y-32469707D01*
X91836772Y-32679795D01*
X91743948Y-32903894D01*
X91743944Y-32903907D01*
X91681161Y-33138213D01*
X91681161Y-33138218D01*
X91649500Y-33378710D01*
X90500500Y-33378710D01*
X90500500Y-30599500D01*
X90519407Y-30541309D01*
X90568907Y-30505345D01*
X90599500Y-30500500D01*
X169400500Y-30500500D01*
X169458691Y-30519407D01*
G37*
%TD.AperFunction*%
%TA.AperFunction,Conductor*%
G36*
X151001763Y-41418407D02*
G01*
X151013576Y-41428496D01*
X154670504Y-45085425D01*
X154698281Y-45139942D01*
X154699500Y-45155429D01*
X154699500Y-46247866D01*
X154699501Y-46247870D01*
X154705908Y-46307480D01*
X154705909Y-46307485D01*
X154756202Y-46442329D01*
X154819408Y-46526761D01*
X154842454Y-46557546D01*
X154842457Y-46557548D01*
X154842458Y-46557549D01*
X154957670Y-46643797D01*
X155092511Y-46694089D01*
X155092512Y-46694089D01*
X155092517Y-46694091D01*
X155152127Y-46700500D01*
X155400500Y-46700499D01*
X155458690Y-46719406D01*
X155494654Y-46768906D01*
X155499500Y-46799499D01*
X155499500Y-68800500D01*
X155480593Y-68858691D01*
X155431093Y-68894655D01*
X155400500Y-68899500D01*
X155152133Y-68899500D01*
X155152129Y-68899500D01*
X155152128Y-68899501D01*
X155144949Y-68900272D01*
X155092519Y-68905908D01*
X155092514Y-68905909D01*
X154957670Y-68956202D01*
X154842458Y-69042450D01*
X154842450Y-69042458D01*
X154756202Y-69157670D01*
X154705910Y-69292511D01*
X154705908Y-69292522D01*
X154699500Y-69352129D01*
X154699500Y-70847866D01*
X154699501Y-70847870D01*
X154705908Y-70907480D01*
X154705909Y-70907485D01*
X154756202Y-71042329D01*
X154832161Y-71143797D01*
X154842454Y-71157546D01*
X154842457Y-71157548D01*
X154842458Y-71157549D01*
X154957670Y-71243797D01*
X155092511Y-71294089D01*
X155092512Y-71294089D01*
X155092517Y-71294091D01*
X155152127Y-71300500D01*
X155400500Y-71300499D01*
X155458690Y-71319406D01*
X155494654Y-71368906D01*
X155499500Y-71399499D01*
X155499500Y-93200500D01*
X155480593Y-93258691D01*
X155431093Y-93294655D01*
X155400500Y-93299500D01*
X155152133Y-93299500D01*
X155152129Y-93299500D01*
X155152128Y-93299501D01*
X155144949Y-93300272D01*
X155092519Y-93305908D01*
X155092514Y-93305909D01*
X154957670Y-93356202D01*
X154842458Y-93442450D01*
X154842450Y-93442458D01*
X154756202Y-93557670D01*
X154705910Y-93692511D01*
X154705908Y-93692522D01*
X154699500Y-93752129D01*
X154699500Y-95247866D01*
X154699501Y-95247870D01*
X154705908Y-95307480D01*
X154705909Y-95307485D01*
X154756202Y-95442329D01*
X154819408Y-95526761D01*
X154842454Y-95557546D01*
X154842457Y-95557548D01*
X154842458Y-95557549D01*
X154957670Y-95643797D01*
X155092511Y-95694089D01*
X155092512Y-95694089D01*
X155092517Y-95694091D01*
X155152127Y-95700500D01*
X157247872Y-95700499D01*
X157307483Y-95694091D01*
X157411144Y-95655428D01*
X157442329Y-95643797D01*
X157442329Y-95643796D01*
X157442331Y-95643796D01*
X157557546Y-95557546D01*
X157643796Y-95442331D01*
X157653733Y-95415690D01*
X157694089Y-95307488D01*
X157694090Y-95307485D01*
X157694091Y-95307483D01*
X157700500Y-95247873D01*
X157700499Y-95006278D01*
X157719406Y-94948091D01*
X157768906Y-94912127D01*
X157830091Y-94912126D01*
X157879591Y-94948090D01*
X157887709Y-94961336D01*
X157951571Y-95086672D01*
X157973240Y-95129199D01*
X158084310Y-95282073D01*
X158217927Y-95415690D01*
X158370801Y-95526760D01*
X158539168Y-95612547D01*
X158671144Y-95655429D01*
X158720643Y-95691392D01*
X158739550Y-95749583D01*
X158720643Y-95807774D01*
X158671143Y-95843738D01*
X158663217Y-95845953D01*
X158616861Y-95856856D01*
X158616857Y-95856857D01*
X158515093Y-95901790D01*
X158413330Y-95946722D01*
X158229783Y-96072454D01*
X158072454Y-96229783D01*
X157946722Y-96413330D01*
X157901790Y-96515093D01*
X157856857Y-96616857D01*
X157856856Y-96616859D01*
X157856855Y-96616863D01*
X157805919Y-96833428D01*
X157805918Y-96833438D01*
X157799500Y-96925904D01*
X157799500Y-97674095D01*
X157805918Y-97766561D01*
X157805919Y-97766571D01*
X157856855Y-97983136D01*
X157856857Y-97983143D01*
X157937315Y-98165364D01*
X157946722Y-98186669D01*
X158072454Y-98370216D01*
X158072455Y-98370217D01*
X158072458Y-98370221D01*
X158133735Y-98431498D01*
X158161511Y-98486013D01*
X158151940Y-98546445D01*
X158108675Y-98589710D01*
X158063730Y-98600500D01*
X141990743Y-98600500D01*
X141932552Y-98581593D01*
X141920739Y-98571504D01*
X138623038Y-95273803D01*
X138595261Y-95219286D01*
X138604832Y-95158854D01*
X138611368Y-95147850D01*
X138624147Y-95129196D01*
X138653277Y-95086671D01*
X138743143Y-94883143D01*
X138794081Y-94666567D01*
X138800500Y-94574092D01*
X138800500Y-94425908D01*
X138794081Y-94333433D01*
X138743143Y-94116857D01*
X138653277Y-93913329D01*
X138542852Y-93752129D01*
X138527545Y-93729783D01*
X138527544Y-93729782D01*
X138527542Y-93729779D01*
X138370221Y-93572458D01*
X138370217Y-93572455D01*
X138370216Y-93572454D01*
X138209267Y-93462202D01*
X138186671Y-93446723D01*
X137983143Y-93356857D01*
X137983137Y-93356855D01*
X137983136Y-93356855D01*
X137766571Y-93305919D01*
X137766561Y-93305918D01*
X137692644Y-93300787D01*
X137635902Y-93277895D01*
X137603453Y-93226024D01*
X137600500Y-93202025D01*
X137600500Y-82128710D01*
X144899500Y-82128710D01*
X144899500Y-82371289D01*
X144931161Y-82611781D01*
X144931161Y-82611786D01*
X144993944Y-82846092D01*
X144993948Y-82846105D01*
X145086772Y-83070204D01*
X145086774Y-83070208D01*
X145086776Y-83070212D01*
X145208064Y-83280289D01*
X145208066Y-83280292D01*
X145355729Y-83472731D01*
X145355731Y-83472733D01*
X145355735Y-83472738D01*
X145527262Y-83644265D01*
X145527266Y-83644268D01*
X145527268Y-83644270D01*
X145719707Y-83791933D01*
X145719711Y-83791936D01*
X145929788Y-83913224D01*
X146153900Y-84006054D01*
X146388211Y-84068838D01*
X146628712Y-84100500D01*
X146628713Y-84100500D01*
X146871287Y-84100500D01*
X146871288Y-84100500D01*
X147111789Y-84068838D01*
X147346100Y-84006054D01*
X147570212Y-83913224D01*
X147780289Y-83791936D01*
X147972738Y-83644265D01*
X148144265Y-83472738D01*
X148291936Y-83280289D01*
X148413224Y-83070212D01*
X148506054Y-82846100D01*
X148568838Y-82611789D01*
X148600500Y-82371288D01*
X148600500Y-82128712D01*
X148568838Y-81888211D01*
X148506054Y-81653900D01*
X148413224Y-81429788D01*
X148291936Y-81219711D01*
X148144265Y-81027262D01*
X147972738Y-80855735D01*
X147972733Y-80855731D01*
X147972731Y-80855729D01*
X147780292Y-80708066D01*
X147780289Y-80708064D01*
X147570212Y-80586776D01*
X147570208Y-80586774D01*
X147570204Y-80586772D01*
X147346105Y-80493948D01*
X147346104Y-80493947D01*
X147346100Y-80493946D01*
X147111789Y-80431162D01*
X147111786Y-80431161D01*
X147111784Y-80431161D01*
X146871289Y-80399500D01*
X146871288Y-80399500D01*
X146628712Y-80399500D01*
X146628710Y-80399500D01*
X146388218Y-80431161D01*
X146388213Y-80431161D01*
X146153907Y-80493944D01*
X146153894Y-80493948D01*
X145929795Y-80586772D01*
X145719707Y-80708066D01*
X145527268Y-80855729D01*
X145355729Y-81027268D01*
X145208066Y-81219707D01*
X145086772Y-81429795D01*
X144993948Y-81653894D01*
X144993944Y-81653907D01*
X144931161Y-81888213D01*
X144931161Y-81888218D01*
X144899500Y-82128710D01*
X137600500Y-82128710D01*
X137600500Y-71297974D01*
X137619407Y-71239783D01*
X137668907Y-71203819D01*
X137692643Y-71199212D01*
X137766567Y-71194081D01*
X137983143Y-71143143D01*
X138186671Y-71053277D01*
X138370221Y-70927542D01*
X138527542Y-70770221D01*
X138653277Y-70586671D01*
X138743143Y-70383143D01*
X138794081Y-70166567D01*
X138800500Y-70074092D01*
X138800500Y-69925908D01*
X138794081Y-69833433D01*
X138792144Y-69825199D01*
X138777566Y-69763217D01*
X138743143Y-69616857D01*
X138653277Y-69413329D01*
X138542852Y-69252129D01*
X138527545Y-69229783D01*
X138527544Y-69229782D01*
X138527542Y-69229779D01*
X138370221Y-69072458D01*
X138370217Y-69072455D01*
X138370216Y-69072454D01*
X138243548Y-68985685D01*
X138186671Y-68946723D01*
X137983143Y-68856857D01*
X137983137Y-68856855D01*
X137983136Y-68856855D01*
X137766571Y-68805919D01*
X137766561Y-68805918D01*
X137692644Y-68800787D01*
X137635902Y-68777895D01*
X137603453Y-68726024D01*
X137600500Y-68702025D01*
X137600500Y-57628710D01*
X144899500Y-57628710D01*
X144899500Y-57871289D01*
X144931161Y-58111781D01*
X144931161Y-58111786D01*
X144993944Y-58346092D01*
X144993948Y-58346105D01*
X145086772Y-58570204D01*
X145086774Y-58570208D01*
X145086776Y-58570212D01*
X145208064Y-58780289D01*
X145208066Y-58780292D01*
X145355729Y-58972731D01*
X145355731Y-58972733D01*
X145355735Y-58972738D01*
X145527262Y-59144265D01*
X145527266Y-59144268D01*
X145527268Y-59144270D01*
X145719707Y-59291933D01*
X145719711Y-59291936D01*
X145929788Y-59413224D01*
X146153900Y-59506054D01*
X146388211Y-59568838D01*
X146628712Y-59600500D01*
X146628713Y-59600500D01*
X146871287Y-59600500D01*
X146871288Y-59600500D01*
X147111789Y-59568838D01*
X147346100Y-59506054D01*
X147570212Y-59413224D01*
X147780289Y-59291936D01*
X147972738Y-59144265D01*
X148144265Y-58972738D01*
X148291936Y-58780289D01*
X148413224Y-58570212D01*
X148506054Y-58346100D01*
X148568838Y-58111789D01*
X148600500Y-57871288D01*
X148600500Y-57628712D01*
X148568838Y-57388211D01*
X148506054Y-57153900D01*
X148413224Y-56929788D01*
X148291936Y-56719711D01*
X148144265Y-56527262D01*
X147972738Y-56355735D01*
X147972733Y-56355731D01*
X147972731Y-56355729D01*
X147780292Y-56208066D01*
X147780289Y-56208064D01*
X147570212Y-56086776D01*
X147570208Y-56086774D01*
X147570204Y-56086772D01*
X147346105Y-55993948D01*
X147346104Y-55993947D01*
X147346100Y-55993946D01*
X147111789Y-55931162D01*
X147111786Y-55931161D01*
X147111784Y-55931161D01*
X146871289Y-55899500D01*
X146871288Y-55899500D01*
X146628712Y-55899500D01*
X146628710Y-55899500D01*
X146388218Y-55931161D01*
X146388213Y-55931161D01*
X146153907Y-55993944D01*
X146153894Y-55993948D01*
X145929795Y-56086772D01*
X145719707Y-56208066D01*
X145527268Y-56355729D01*
X145355729Y-56527268D01*
X145208066Y-56719707D01*
X145086772Y-56929795D01*
X144993948Y-57153894D01*
X144993944Y-57153907D01*
X144931161Y-57388213D01*
X144931161Y-57388218D01*
X144899500Y-57628710D01*
X137600500Y-57628710D01*
X137600500Y-46797974D01*
X137619407Y-46739783D01*
X137668907Y-46703819D01*
X137692643Y-46699212D01*
X137766567Y-46694081D01*
X137983143Y-46643143D01*
X138186671Y-46553277D01*
X138370221Y-46427542D01*
X138527542Y-46270221D01*
X138653277Y-46086671D01*
X138743143Y-45883143D01*
X138794081Y-45666567D01*
X138800500Y-45574092D01*
X138800500Y-45425908D01*
X138794081Y-45333433D01*
X138743143Y-45116857D01*
X138653277Y-44913329D01*
X138542852Y-44752129D01*
X138527545Y-44729783D01*
X138527544Y-44729782D01*
X138527542Y-44729779D01*
X138370221Y-44572458D01*
X138370217Y-44572455D01*
X138370216Y-44572454D01*
X138225378Y-44473238D01*
X138186671Y-44446723D01*
X137983143Y-44356857D01*
X137983137Y-44356855D01*
X137983136Y-44356855D01*
X137766571Y-44305919D01*
X137766561Y-44305918D01*
X137674095Y-44299500D01*
X137674092Y-44299500D01*
X136925908Y-44299500D01*
X136925905Y-44299500D01*
X136833438Y-44305918D01*
X136833428Y-44305919D01*
X136616863Y-44356855D01*
X136616859Y-44356856D01*
X136616857Y-44356857D01*
X136515093Y-44401790D01*
X136413330Y-44446722D01*
X136229783Y-44572454D01*
X136072454Y-44729783D01*
X135946722Y-44913330D01*
X135911227Y-44993720D01*
X135856857Y-45116857D01*
X135856856Y-45116860D01*
X135856856Y-45116861D01*
X135845953Y-45163217D01*
X135814225Y-45215533D01*
X135757805Y-45239208D01*
X135698245Y-45225199D01*
X135658294Y-45178857D01*
X135655432Y-45171154D01*
X135612547Y-45039168D01*
X135526760Y-44870801D01*
X135415690Y-44717927D01*
X135282073Y-44584310D01*
X135129199Y-44473240D01*
X135129198Y-44473239D01*
X135129196Y-44473238D01*
X134960828Y-44387451D01*
X134960825Y-44387449D01*
X134827940Y-44344272D01*
X134778440Y-44308308D01*
X134759533Y-44250117D01*
X134778441Y-44191927D01*
X134827941Y-44155963D01*
X134835868Y-44153747D01*
X134882983Y-44142666D01*
X135086425Y-44052838D01*
X135269895Y-43927159D01*
X135427159Y-43769895D01*
X135552838Y-43586425D01*
X135642666Y-43382982D01*
X135642668Y-43382975D01*
X135693583Y-43166502D01*
X135693584Y-43166492D01*
X135700000Y-43074068D01*
X135700000Y-42805001D01*
X135699999Y-42805000D01*
X135068916Y-42805000D01*
X135059111Y-42768409D01*
X134980119Y-42631592D01*
X134943527Y-42595000D01*
X135699998Y-42595000D01*
X135699999Y-42594999D01*
X135699999Y-42325932D01*
X135693584Y-42233504D01*
X135693583Y-42233500D01*
X135642668Y-42017024D01*
X135642666Y-42017017D01*
X135552838Y-41813574D01*
X135427159Y-41630104D01*
X135365559Y-41568504D01*
X135337782Y-41513987D01*
X135347353Y-41453555D01*
X135390618Y-41410290D01*
X135435563Y-41399500D01*
X150943572Y-41399500D01*
X151001763Y-41418407D01*
G37*
%TD.AperFunction*%
%TA.AperFunction,Conductor*%
G36*
X135807773Y-70279356D02*
G01*
X135843737Y-70328856D01*
X135845953Y-70336782D01*
X135856857Y-70383143D01*
X135946723Y-70586671D01*
X135995957Y-70658544D01*
X136072454Y-70770216D01*
X136072455Y-70770217D01*
X136072458Y-70770221D01*
X136229779Y-70927542D01*
X136356449Y-71014312D01*
X136393770Y-71062795D01*
X136399500Y-71095986D01*
X136399500Y-93404011D01*
X136380593Y-93462202D01*
X136356449Y-93485685D01*
X136229784Y-93572453D01*
X136072454Y-93729783D01*
X135946722Y-93913330D01*
X135911227Y-93993720D01*
X135856857Y-94116857D01*
X135856856Y-94116860D01*
X135856856Y-94116861D01*
X135845953Y-94163217D01*
X135814225Y-94215533D01*
X135757805Y-94239208D01*
X135698245Y-94225199D01*
X135658294Y-94178857D01*
X135655432Y-94171154D01*
X135612547Y-94039168D01*
X135526760Y-93870801D01*
X135415690Y-93717927D01*
X135282073Y-93584310D01*
X135129199Y-93473240D01*
X135129198Y-93473239D01*
X135129196Y-93473238D01*
X134960828Y-93387451D01*
X134960825Y-93387449D01*
X134827940Y-93344272D01*
X134778440Y-93308308D01*
X134759533Y-93250117D01*
X134778441Y-93191927D01*
X134827941Y-93155963D01*
X134835868Y-93153747D01*
X134882983Y-93142666D01*
X135086425Y-93052838D01*
X135269895Y-92927159D01*
X135427159Y-92769895D01*
X135552838Y-92586425D01*
X135642666Y-92382982D01*
X135642668Y-92382975D01*
X135693583Y-92166502D01*
X135693584Y-92166492D01*
X135700000Y-92074068D01*
X135700000Y-91805001D01*
X135699999Y-91805000D01*
X135068916Y-91805000D01*
X135059111Y-91768409D01*
X134980119Y-91631592D01*
X134943527Y-91595000D01*
X135699998Y-91595000D01*
X135699999Y-91594999D01*
X135699999Y-91325932D01*
X135693584Y-91233504D01*
X135693583Y-91233500D01*
X135642668Y-91017024D01*
X135642666Y-91017017D01*
X135552838Y-90813574D01*
X135427159Y-90630104D01*
X135269895Y-90472840D01*
X135086425Y-90347161D01*
X134882982Y-90257333D01*
X134882975Y-90257331D01*
X134666502Y-90206416D01*
X134666493Y-90206415D01*
X134605000Y-90202146D01*
X134605000Y-91406969D01*
X134578991Y-91400000D01*
X134421009Y-91400000D01*
X134395000Y-91406969D01*
X134395000Y-90202147D01*
X134394999Y-90202146D01*
X134333506Y-90206415D01*
X134333497Y-90206416D01*
X134117024Y-90257331D01*
X134117017Y-90257333D01*
X133913574Y-90347161D01*
X133730104Y-90472840D01*
X133572840Y-90630104D01*
X133447161Y-90813574D01*
X133357333Y-91017017D01*
X133357331Y-91017024D01*
X133306416Y-91233497D01*
X133306415Y-91233507D01*
X133300000Y-91325931D01*
X133300000Y-91594999D01*
X133300001Y-91595000D01*
X134056473Y-91595000D01*
X134019881Y-91631592D01*
X133940889Y-91768409D01*
X133931084Y-91805000D01*
X133300002Y-91805000D01*
X133300001Y-91805001D01*
X133300001Y-92074067D01*
X133306415Y-92166495D01*
X133306416Y-92166499D01*
X133357331Y-92382975D01*
X133357333Y-92382982D01*
X133447161Y-92586425D01*
X133572840Y-92769895D01*
X133730104Y-92927159D01*
X133913574Y-93052838D01*
X134117017Y-93142666D01*
X134117016Y-93142666D01*
X134164131Y-93153747D01*
X134216448Y-93185475D01*
X134240124Y-93241894D01*
X134226116Y-93301454D01*
X134179774Y-93341406D01*
X134172059Y-93344272D01*
X134039174Y-93387449D01*
X134039171Y-93387451D01*
X133870803Y-93473238D01*
X133717928Y-93584309D01*
X133584309Y-93717928D01*
X133473238Y-93870803D01*
X133387709Y-94038665D01*
X133344444Y-94081930D01*
X133284012Y-94091501D01*
X133229495Y-94063724D01*
X133201718Y-94009207D01*
X133200499Y-93993720D01*
X133200499Y-93752133D01*
X133200499Y-93752128D01*
X133194091Y-93692517D01*
X133194089Y-93692511D01*
X133143797Y-93557670D01*
X133057549Y-93442458D01*
X133057548Y-93442457D01*
X133057546Y-93442454D01*
X133057541Y-93442450D01*
X133040169Y-93429445D01*
X133004917Y-93379435D01*
X133000500Y-93350193D01*
X133000500Y-71149805D01*
X133019407Y-71091614D01*
X133040168Y-71070554D01*
X133057546Y-71057546D01*
X133143796Y-70942331D01*
X133153733Y-70915690D01*
X133194089Y-70807488D01*
X133194090Y-70807485D01*
X133194091Y-70807483D01*
X133200500Y-70747873D01*
X133200499Y-70506278D01*
X133219406Y-70448091D01*
X133268906Y-70412127D01*
X133330091Y-70412126D01*
X133379591Y-70448090D01*
X133387709Y-70461336D01*
X133473238Y-70629196D01*
X133473240Y-70629199D01*
X133584310Y-70782073D01*
X133717927Y-70915690D01*
X133870801Y-71026760D01*
X134039168Y-71112547D01*
X134171144Y-71155429D01*
X134220643Y-71191392D01*
X134239550Y-71249583D01*
X134220643Y-71307774D01*
X134171143Y-71343738D01*
X134163217Y-71345953D01*
X134116861Y-71356856D01*
X134116857Y-71356857D01*
X134020282Y-71399499D01*
X133913330Y-71446722D01*
X133729783Y-71572454D01*
X133572454Y-71729783D01*
X133446722Y-71913330D01*
X133402569Y-72013329D01*
X133356857Y-72116857D01*
X133356856Y-72116859D01*
X133356855Y-72116863D01*
X133305919Y-72333428D01*
X133305918Y-72333438D01*
X133299500Y-72425904D01*
X133299500Y-73174095D01*
X133305918Y-73266561D01*
X133305919Y-73266571D01*
X133356855Y-73483136D01*
X133356857Y-73483143D01*
X133437315Y-73665364D01*
X133446722Y-73686669D01*
X133572454Y-73870216D01*
X133572455Y-73870217D01*
X133572458Y-73870221D01*
X133729779Y-74027542D01*
X133913329Y-74153277D01*
X134116857Y-74243143D01*
X134268519Y-74278813D01*
X134333428Y-74294080D01*
X134333429Y-74294080D01*
X134333433Y-74294081D01*
X134391229Y-74298092D01*
X134425905Y-74300500D01*
X134425908Y-74300500D01*
X134574095Y-74300500D01*
X134604917Y-74298360D01*
X134666567Y-74294081D01*
X134883143Y-74243143D01*
X135086671Y-74153277D01*
X135270221Y-74027542D01*
X135427542Y-73870221D01*
X135553277Y-73686671D01*
X135643143Y-73483143D01*
X135694081Y-73266567D01*
X135700500Y-73174092D01*
X135700500Y-72425908D01*
X135694081Y-72333433D01*
X135643143Y-72116857D01*
X135553277Y-71913329D01*
X135427542Y-71729779D01*
X135270221Y-71572458D01*
X135270217Y-71572455D01*
X135270216Y-71572454D01*
X135101466Y-71456858D01*
X135086671Y-71446723D01*
X134883143Y-71356857D01*
X134836782Y-71345953D01*
X134784466Y-71314225D01*
X134760791Y-71257806D01*
X134774800Y-71198246D01*
X134821142Y-71158295D01*
X134828845Y-71155432D01*
X134960832Y-71112547D01*
X135129199Y-71026760D01*
X135282073Y-70915690D01*
X135415690Y-70782073D01*
X135526760Y-70629199D01*
X135612547Y-70460832D01*
X135655429Y-70328855D01*
X135691392Y-70279357D01*
X135749583Y-70260449D01*
X135807773Y-70279356D01*
G37*
%TD.AperFunction*%
%TA.AperFunction,Conductor*%
G36*
X160253646Y-70361769D02*
G01*
X160257806Y-70360791D01*
X160282405Y-70371113D01*
X160307773Y-70379356D01*
X160310284Y-70382812D01*
X160314225Y-70384466D01*
X160328060Y-70407279D01*
X160343737Y-70428856D01*
X160345953Y-70436782D01*
X160356857Y-70483143D01*
X160446723Y-70686671D01*
X160495957Y-70758544D01*
X160572454Y-70870216D01*
X160572455Y-70870217D01*
X160572458Y-70870221D01*
X160729779Y-71027542D01*
X160856449Y-71114312D01*
X160893770Y-71162795D01*
X160899500Y-71195986D01*
X160899500Y-93404011D01*
X160880593Y-93462202D01*
X160856449Y-93485685D01*
X160729784Y-93572453D01*
X160572454Y-93729783D01*
X160446722Y-93913330D01*
X160411227Y-93993720D01*
X160356857Y-94116857D01*
X160356856Y-94116860D01*
X160356856Y-94116861D01*
X160345953Y-94163217D01*
X160314225Y-94215533D01*
X160257805Y-94239208D01*
X160198245Y-94225199D01*
X160158294Y-94178857D01*
X160155432Y-94171154D01*
X160112547Y-94039168D01*
X160026760Y-93870801D01*
X159915690Y-93717927D01*
X159782073Y-93584310D01*
X159629199Y-93473240D01*
X159629198Y-93473239D01*
X159629196Y-93473238D01*
X159460828Y-93387451D01*
X159460825Y-93387449D01*
X159327940Y-93344272D01*
X159278440Y-93308308D01*
X159259533Y-93250117D01*
X159278441Y-93191927D01*
X159327941Y-93155963D01*
X159335868Y-93153747D01*
X159382983Y-93142666D01*
X159586425Y-93052838D01*
X159769895Y-92927159D01*
X159927159Y-92769895D01*
X160052838Y-92586425D01*
X160142666Y-92382982D01*
X160142668Y-92382975D01*
X160193583Y-92166502D01*
X160193584Y-92166492D01*
X160200000Y-92074068D01*
X160200000Y-91805001D01*
X160199999Y-91805000D01*
X159568916Y-91805000D01*
X159559111Y-91768409D01*
X159480119Y-91631592D01*
X159443527Y-91595000D01*
X160199998Y-91595000D01*
X160199999Y-91594999D01*
X160199999Y-91325932D01*
X160193584Y-91233504D01*
X160193583Y-91233500D01*
X160142668Y-91017024D01*
X160142666Y-91017017D01*
X160052838Y-90813574D01*
X159927159Y-90630104D01*
X159769895Y-90472840D01*
X159586425Y-90347161D01*
X159382982Y-90257333D01*
X159382975Y-90257331D01*
X159166502Y-90206416D01*
X159166493Y-90206415D01*
X159105000Y-90202146D01*
X159105000Y-91406969D01*
X159078991Y-91400000D01*
X158921009Y-91400000D01*
X158895000Y-91406969D01*
X158895000Y-90202147D01*
X158894999Y-90202146D01*
X158833506Y-90206415D01*
X158833497Y-90206416D01*
X158617024Y-90257331D01*
X158617017Y-90257333D01*
X158413574Y-90347161D01*
X158230104Y-90472840D01*
X158072840Y-90630104D01*
X157947161Y-90813574D01*
X157857333Y-91017017D01*
X157857331Y-91017024D01*
X157806416Y-91233497D01*
X157806415Y-91233507D01*
X157800000Y-91325931D01*
X157800000Y-91594999D01*
X157800001Y-91595000D01*
X158556473Y-91595000D01*
X158519881Y-91631592D01*
X158440889Y-91768409D01*
X158431084Y-91805000D01*
X157800002Y-91805000D01*
X157800001Y-91805001D01*
X157800001Y-92074067D01*
X157806415Y-92166495D01*
X157806416Y-92166499D01*
X157857331Y-92382975D01*
X157857333Y-92382982D01*
X157947161Y-92586425D01*
X158072840Y-92769895D01*
X158230104Y-92927159D01*
X158413574Y-93052838D01*
X158617017Y-93142666D01*
X158617016Y-93142666D01*
X158664131Y-93153747D01*
X158716448Y-93185475D01*
X158740124Y-93241894D01*
X158726116Y-93301454D01*
X158679774Y-93341406D01*
X158672059Y-93344272D01*
X158539174Y-93387449D01*
X158539171Y-93387451D01*
X158370803Y-93473238D01*
X158217928Y-93584309D01*
X158084309Y-93717928D01*
X157973238Y-93870803D01*
X157887709Y-94038665D01*
X157844444Y-94081930D01*
X157784012Y-94091501D01*
X157729495Y-94063724D01*
X157701718Y-94009207D01*
X157700499Y-93993720D01*
X157700499Y-93752133D01*
X157700499Y-93752128D01*
X157694091Y-93692517D01*
X157694089Y-93692511D01*
X157643797Y-93557670D01*
X157557549Y-93442458D01*
X157557548Y-93442457D01*
X157557546Y-93442454D01*
X157557541Y-93442450D01*
X157540169Y-93429445D01*
X157504917Y-93379435D01*
X157500500Y-93350193D01*
X157500500Y-71249805D01*
X157519407Y-71191614D01*
X157540168Y-71170554D01*
X157557546Y-71157546D01*
X157643796Y-71042331D01*
X157653733Y-71015690D01*
X157694089Y-70907488D01*
X157694090Y-70907485D01*
X157694091Y-70907483D01*
X157700500Y-70847873D01*
X157700499Y-70606278D01*
X157719406Y-70548091D01*
X157768906Y-70512127D01*
X157830091Y-70512126D01*
X157879591Y-70548090D01*
X157887709Y-70561336D01*
X157973238Y-70729196D01*
X157973240Y-70729199D01*
X158084310Y-70882073D01*
X158217927Y-71015690D01*
X158370801Y-71126760D01*
X158539168Y-71212547D01*
X158671144Y-71255429D01*
X158720643Y-71291392D01*
X158739550Y-71349583D01*
X158720643Y-71407774D01*
X158671143Y-71443738D01*
X158663217Y-71445953D01*
X158616861Y-71456856D01*
X158616857Y-71456857D01*
X158515093Y-71501790D01*
X158413330Y-71546722D01*
X158229783Y-71672454D01*
X158072454Y-71829783D01*
X157946722Y-72013330D01*
X157901790Y-72115093D01*
X157856857Y-72216857D01*
X157856856Y-72216859D01*
X157856855Y-72216863D01*
X157805919Y-72433428D01*
X157805918Y-72433438D01*
X157799500Y-72525904D01*
X157799500Y-73274095D01*
X157805918Y-73366561D01*
X157805919Y-73366571D01*
X157833337Y-73483143D01*
X157856857Y-73583143D01*
X157902568Y-73686669D01*
X157946722Y-73786669D01*
X158072454Y-73970216D01*
X158072455Y-73970217D01*
X158072458Y-73970221D01*
X158229779Y-74127542D01*
X158413329Y-74253277D01*
X158616857Y-74343143D01*
X158768519Y-74378813D01*
X158833428Y-74394080D01*
X158833429Y-74394080D01*
X158833433Y-74394081D01*
X158891229Y-74398092D01*
X158925905Y-74400500D01*
X158925908Y-74400500D01*
X159074095Y-74400500D01*
X159104917Y-74398360D01*
X159166567Y-74394081D01*
X159383143Y-74343143D01*
X159586671Y-74253277D01*
X159770221Y-74127542D01*
X159927542Y-73970221D01*
X160053277Y-73786671D01*
X160143143Y-73583143D01*
X160194081Y-73366567D01*
X160200500Y-73274092D01*
X160200500Y-72525908D01*
X160194081Y-72433433D01*
X160143143Y-72216857D01*
X160053277Y-72013329D01*
X159927542Y-71829779D01*
X159770221Y-71672458D01*
X159770217Y-71672455D01*
X159770216Y-71672454D01*
X159624239Y-71572458D01*
X159586671Y-71546723D01*
X159383143Y-71456857D01*
X159340056Y-71446723D01*
X159336782Y-71445953D01*
X159284466Y-71414225D01*
X159260791Y-71357806D01*
X159274800Y-71298246D01*
X159321142Y-71258295D01*
X159328845Y-71255432D01*
X159460832Y-71212547D01*
X159629199Y-71126760D01*
X159782073Y-71015690D01*
X159915690Y-70882073D01*
X160026760Y-70729199D01*
X160112547Y-70560832D01*
X160155429Y-70428855D01*
X160157940Y-70425399D01*
X160158295Y-70421142D01*
X160175711Y-70400939D01*
X160191392Y-70379357D01*
X160195455Y-70378036D01*
X160198246Y-70374800D01*
X160224214Y-70368692D01*
X160249583Y-70360449D01*
X160253646Y-70361769D01*
G37*
%TD.AperFunction*%
%TA.AperFunction,Conductor*%
G36*
X160307773Y-45779356D02*
G01*
X160343737Y-45828856D01*
X160345953Y-45836782D01*
X160356857Y-45883143D01*
X160446723Y-46086671D01*
X160495957Y-46158544D01*
X160572454Y-46270216D01*
X160572455Y-46270217D01*
X160572458Y-46270221D01*
X160729779Y-46427542D01*
X160856449Y-46514312D01*
X160893770Y-46562795D01*
X160899500Y-46595986D01*
X160899500Y-69004011D01*
X160880593Y-69062202D01*
X160856449Y-69085685D01*
X160729784Y-69172453D01*
X160572454Y-69329783D01*
X160446722Y-69513330D01*
X160416433Y-69581930D01*
X160356857Y-69716857D01*
X160356856Y-69716860D01*
X160356856Y-69716861D01*
X160345953Y-69763217D01*
X160314225Y-69815533D01*
X160257805Y-69839208D01*
X160198245Y-69825199D01*
X160158294Y-69778857D01*
X160155432Y-69771154D01*
X160112547Y-69639168D01*
X160026760Y-69470801D01*
X159915690Y-69317927D01*
X159782073Y-69184310D01*
X159629199Y-69073240D01*
X159629198Y-69073239D01*
X159629196Y-69073238D01*
X159460828Y-68987451D01*
X159460825Y-68987449D01*
X159327940Y-68944272D01*
X159278440Y-68908308D01*
X159259533Y-68850117D01*
X159278441Y-68791927D01*
X159327941Y-68755963D01*
X159335868Y-68753747D01*
X159382983Y-68742666D01*
X159586425Y-68652838D01*
X159769895Y-68527159D01*
X159927159Y-68369895D01*
X160052838Y-68186425D01*
X160142666Y-67982982D01*
X160142668Y-67982975D01*
X160193583Y-67766502D01*
X160193584Y-67766492D01*
X160200000Y-67674068D01*
X160200000Y-67405001D01*
X160199999Y-67405000D01*
X159568916Y-67405000D01*
X159559111Y-67368409D01*
X159480119Y-67231592D01*
X159443527Y-67195000D01*
X160199998Y-67195000D01*
X160199999Y-67194999D01*
X160199999Y-66925932D01*
X160193584Y-66833504D01*
X160193583Y-66833500D01*
X160142668Y-66617024D01*
X160142666Y-66617017D01*
X160052838Y-66413574D01*
X159927159Y-66230104D01*
X159769895Y-66072840D01*
X159586425Y-65947161D01*
X159382982Y-65857333D01*
X159382975Y-65857331D01*
X159166502Y-65806416D01*
X159166493Y-65806415D01*
X159105000Y-65802146D01*
X159105000Y-67006969D01*
X159078991Y-67000000D01*
X158921009Y-67000000D01*
X158895000Y-67006969D01*
X158895000Y-65802147D01*
X158894999Y-65802146D01*
X158833506Y-65806415D01*
X158833497Y-65806416D01*
X158617024Y-65857331D01*
X158617017Y-65857333D01*
X158413574Y-65947161D01*
X158230104Y-66072840D01*
X158072840Y-66230104D01*
X157947161Y-66413574D01*
X157857333Y-66617017D01*
X157857331Y-66617024D01*
X157806416Y-66833497D01*
X157806415Y-66833507D01*
X157800000Y-66925931D01*
X157800000Y-67194999D01*
X157800001Y-67195000D01*
X158556473Y-67195000D01*
X158519881Y-67231592D01*
X158440889Y-67368409D01*
X158431084Y-67405000D01*
X157800002Y-67405000D01*
X157800001Y-67405001D01*
X157800001Y-67674067D01*
X157806415Y-67766495D01*
X157806416Y-67766499D01*
X157857331Y-67982975D01*
X157857333Y-67982982D01*
X157947161Y-68186425D01*
X158072840Y-68369895D01*
X158230104Y-68527159D01*
X158413574Y-68652838D01*
X158617017Y-68742666D01*
X158617016Y-68742666D01*
X158664131Y-68753747D01*
X158716448Y-68785475D01*
X158740124Y-68841894D01*
X158726116Y-68901454D01*
X158679774Y-68941406D01*
X158672059Y-68944272D01*
X158539174Y-68987449D01*
X158539171Y-68987451D01*
X158370803Y-69073238D01*
X158217928Y-69184309D01*
X158084309Y-69317928D01*
X157973238Y-69470803D01*
X157887709Y-69638665D01*
X157844444Y-69681930D01*
X157784012Y-69691501D01*
X157729495Y-69663724D01*
X157701718Y-69609207D01*
X157700499Y-69593720D01*
X157700499Y-69352133D01*
X157700499Y-69352128D01*
X157694091Y-69292517D01*
X157679029Y-69252133D01*
X157643797Y-69157670D01*
X157557549Y-69042458D01*
X157557548Y-69042457D01*
X157557546Y-69042454D01*
X157557541Y-69042450D01*
X157540169Y-69029445D01*
X157504917Y-68979435D01*
X157500500Y-68950193D01*
X157500500Y-46649805D01*
X157519407Y-46591614D01*
X157540168Y-46570554D01*
X157557546Y-46557546D01*
X157643796Y-46442331D01*
X157653733Y-46415690D01*
X157694089Y-46307488D01*
X157694090Y-46307485D01*
X157694091Y-46307483D01*
X157700500Y-46247873D01*
X157700499Y-46006278D01*
X157719406Y-45948091D01*
X157768906Y-45912127D01*
X157830091Y-45912126D01*
X157879591Y-45948090D01*
X157887709Y-45961336D01*
X157973238Y-46129196D01*
X157973240Y-46129199D01*
X158084310Y-46282073D01*
X158217927Y-46415690D01*
X158370801Y-46526760D01*
X158539168Y-46612547D01*
X158671144Y-46655429D01*
X158720643Y-46691392D01*
X158739550Y-46749583D01*
X158720643Y-46807774D01*
X158671143Y-46843738D01*
X158663217Y-46845953D01*
X158616861Y-46856856D01*
X158616857Y-46856857D01*
X158515093Y-46901790D01*
X158413330Y-46946722D01*
X158229783Y-47072454D01*
X158072454Y-47229783D01*
X157946722Y-47413330D01*
X157901790Y-47515093D01*
X157856857Y-47616857D01*
X157856856Y-47616859D01*
X157856855Y-47616863D01*
X157805919Y-47833428D01*
X157805918Y-47833438D01*
X157799500Y-47925904D01*
X157799500Y-48674095D01*
X157805918Y-48766561D01*
X157805919Y-48766571D01*
X157856855Y-48983136D01*
X157856857Y-48983143D01*
X157937315Y-49165364D01*
X157946722Y-49186669D01*
X158072454Y-49370216D01*
X158072455Y-49370217D01*
X158072458Y-49370221D01*
X158229779Y-49527542D01*
X158413329Y-49653277D01*
X158616857Y-49743143D01*
X158768519Y-49778813D01*
X158833428Y-49794080D01*
X158833429Y-49794080D01*
X158833433Y-49794081D01*
X158891229Y-49798092D01*
X158925905Y-49800500D01*
X158925908Y-49800500D01*
X159074095Y-49800500D01*
X159104917Y-49798360D01*
X159166567Y-49794081D01*
X159383143Y-49743143D01*
X159586671Y-49653277D01*
X159770221Y-49527542D01*
X159927542Y-49370221D01*
X160053277Y-49186671D01*
X160143143Y-48983143D01*
X160194081Y-48766567D01*
X160200500Y-48674092D01*
X160200500Y-47925908D01*
X160194081Y-47833433D01*
X160143143Y-47616857D01*
X160053277Y-47413329D01*
X159927542Y-47229779D01*
X159770221Y-47072458D01*
X159770217Y-47072455D01*
X159770216Y-47072454D01*
X159658544Y-46995957D01*
X159586671Y-46946723D01*
X159383143Y-46856857D01*
X159336782Y-46845953D01*
X159284466Y-46814225D01*
X159260791Y-46757806D01*
X159274800Y-46698246D01*
X159321142Y-46658295D01*
X159328845Y-46655432D01*
X159460832Y-46612547D01*
X159629199Y-46526760D01*
X159782073Y-46415690D01*
X159915690Y-46282073D01*
X160026760Y-46129199D01*
X160112547Y-45960832D01*
X160155429Y-45828855D01*
X160191392Y-45779357D01*
X160249583Y-45760449D01*
X160307773Y-45779356D01*
G37*
%TD.AperFunction*%
%TA.AperFunction,Conductor*%
G36*
X135807773Y-45779356D02*
G01*
X135843737Y-45828856D01*
X135845953Y-45836782D01*
X135856857Y-45883143D01*
X135946723Y-46086671D01*
X135995957Y-46158544D01*
X136072454Y-46270216D01*
X136072455Y-46270217D01*
X136072458Y-46270221D01*
X136229779Y-46427542D01*
X136356449Y-46514312D01*
X136393770Y-46562795D01*
X136399500Y-46595986D01*
X136399500Y-68904011D01*
X136380593Y-68962202D01*
X136356449Y-68985685D01*
X136229784Y-69072453D01*
X136072454Y-69229783D01*
X135946722Y-69413330D01*
X135921347Y-69470801D01*
X135856857Y-69616857D01*
X135856856Y-69616860D01*
X135856856Y-69616861D01*
X135845953Y-69663217D01*
X135814225Y-69715533D01*
X135757805Y-69739208D01*
X135698245Y-69725199D01*
X135658294Y-69678857D01*
X135655432Y-69671154D01*
X135612547Y-69539168D01*
X135526760Y-69370801D01*
X135415690Y-69217927D01*
X135282073Y-69084310D01*
X135129199Y-68973240D01*
X135129198Y-68973239D01*
X135129196Y-68973238D01*
X134960828Y-68887451D01*
X134960825Y-68887449D01*
X134827940Y-68844272D01*
X134778440Y-68808308D01*
X134759533Y-68750117D01*
X134778441Y-68691927D01*
X134827941Y-68655963D01*
X134835868Y-68653747D01*
X134882983Y-68642666D01*
X135086425Y-68552838D01*
X135269895Y-68427159D01*
X135427159Y-68269895D01*
X135552838Y-68086425D01*
X135642666Y-67882982D01*
X135642668Y-67882975D01*
X135693583Y-67666502D01*
X135693584Y-67666492D01*
X135700000Y-67574068D01*
X135700000Y-67305001D01*
X135699999Y-67305000D01*
X135068916Y-67305000D01*
X135059111Y-67268409D01*
X134980119Y-67131592D01*
X134943527Y-67095000D01*
X135699998Y-67095000D01*
X135699999Y-67094999D01*
X135699999Y-66825932D01*
X135693584Y-66733504D01*
X135693583Y-66733500D01*
X135642668Y-66517024D01*
X135642666Y-66517017D01*
X135552838Y-66313574D01*
X135427159Y-66130104D01*
X135269895Y-65972840D01*
X135086425Y-65847161D01*
X134882982Y-65757333D01*
X134882975Y-65757331D01*
X134666502Y-65706416D01*
X134666493Y-65706415D01*
X134605000Y-65702146D01*
X134605000Y-66906969D01*
X134578991Y-66900000D01*
X134421009Y-66900000D01*
X134395000Y-66906969D01*
X134395000Y-65702147D01*
X134394999Y-65702146D01*
X134333506Y-65706415D01*
X134333497Y-65706416D01*
X134117024Y-65757331D01*
X134117017Y-65757333D01*
X133913574Y-65847161D01*
X133730104Y-65972840D01*
X133572840Y-66130104D01*
X133447161Y-66313574D01*
X133357333Y-66517017D01*
X133357331Y-66517024D01*
X133306416Y-66733497D01*
X133306415Y-66733507D01*
X133300000Y-66825931D01*
X133300000Y-67094999D01*
X133300001Y-67095000D01*
X134056473Y-67095000D01*
X134019881Y-67131592D01*
X133940889Y-67268409D01*
X133931084Y-67305000D01*
X133300002Y-67305000D01*
X133300001Y-67305001D01*
X133300001Y-67574067D01*
X133306415Y-67666495D01*
X133306416Y-67666499D01*
X133357331Y-67882975D01*
X133357333Y-67882982D01*
X133447161Y-68086425D01*
X133572840Y-68269895D01*
X133730104Y-68427159D01*
X133913574Y-68552838D01*
X134117017Y-68642666D01*
X134117016Y-68642666D01*
X134164131Y-68653747D01*
X134216448Y-68685475D01*
X134240124Y-68741894D01*
X134226116Y-68801454D01*
X134179774Y-68841406D01*
X134172059Y-68844272D01*
X134039174Y-68887449D01*
X134039171Y-68887451D01*
X133870803Y-68973238D01*
X133717928Y-69084309D01*
X133584309Y-69217928D01*
X133473238Y-69370803D01*
X133387709Y-69538665D01*
X133344444Y-69581930D01*
X133284012Y-69591501D01*
X133229495Y-69563724D01*
X133201718Y-69509207D01*
X133200499Y-69493720D01*
X133200499Y-69252133D01*
X133200499Y-69252128D01*
X133194091Y-69192517D01*
X133191030Y-69184309D01*
X133143797Y-69057670D01*
X133057549Y-68942458D01*
X133057548Y-68942457D01*
X133057546Y-68942454D01*
X133056146Y-68941406D01*
X133040169Y-68929445D01*
X133004917Y-68879435D01*
X133000500Y-68850193D01*
X133000500Y-46649805D01*
X133019407Y-46591614D01*
X133040168Y-46570554D01*
X133057546Y-46557546D01*
X133143796Y-46442331D01*
X133153733Y-46415690D01*
X133194089Y-46307488D01*
X133194090Y-46307485D01*
X133194091Y-46307483D01*
X133200500Y-46247873D01*
X133200499Y-46006278D01*
X133219406Y-45948091D01*
X133268906Y-45912127D01*
X133330091Y-45912126D01*
X133379591Y-45948090D01*
X133387709Y-45961336D01*
X133473238Y-46129196D01*
X133473240Y-46129199D01*
X133584310Y-46282073D01*
X133717927Y-46415690D01*
X133870801Y-46526760D01*
X134039168Y-46612547D01*
X134171144Y-46655429D01*
X134220643Y-46691392D01*
X134239550Y-46749583D01*
X134220643Y-46807774D01*
X134171143Y-46843738D01*
X134163217Y-46845953D01*
X134116861Y-46856856D01*
X134116857Y-46856857D01*
X134015093Y-46901790D01*
X133913330Y-46946722D01*
X133729783Y-47072454D01*
X133572454Y-47229783D01*
X133446722Y-47413330D01*
X133401790Y-47515093D01*
X133356857Y-47616857D01*
X133356856Y-47616859D01*
X133356855Y-47616863D01*
X133305919Y-47833428D01*
X133305918Y-47833438D01*
X133299500Y-47925904D01*
X133299500Y-48674095D01*
X133305918Y-48766561D01*
X133305919Y-48766571D01*
X133356855Y-48983136D01*
X133356857Y-48983143D01*
X133437315Y-49165364D01*
X133446722Y-49186669D01*
X133572454Y-49370216D01*
X133572455Y-49370217D01*
X133572458Y-49370221D01*
X133729779Y-49527542D01*
X133913329Y-49653277D01*
X134116857Y-49743143D01*
X134268519Y-49778813D01*
X134333428Y-49794080D01*
X134333429Y-49794080D01*
X134333433Y-49794081D01*
X134391229Y-49798092D01*
X134425905Y-49800500D01*
X134425908Y-49800500D01*
X134574095Y-49800500D01*
X134604917Y-49798360D01*
X134666567Y-49794081D01*
X134883143Y-49743143D01*
X135086671Y-49653277D01*
X135270221Y-49527542D01*
X135427542Y-49370221D01*
X135553277Y-49186671D01*
X135643143Y-48983143D01*
X135694081Y-48766567D01*
X135700500Y-48674092D01*
X135700500Y-47925908D01*
X135694081Y-47833433D01*
X135643143Y-47616857D01*
X135553277Y-47413329D01*
X135427542Y-47229779D01*
X135270221Y-47072458D01*
X135270217Y-47072455D01*
X135270216Y-47072454D01*
X135158544Y-46995957D01*
X135086671Y-46946723D01*
X134883143Y-46856857D01*
X134836782Y-46845953D01*
X134784466Y-46814225D01*
X134760791Y-46757806D01*
X134774800Y-46698246D01*
X134821142Y-46658295D01*
X134828845Y-46655432D01*
X134960832Y-46612547D01*
X135129199Y-46526760D01*
X135282073Y-46415690D01*
X135415690Y-46282073D01*
X135526760Y-46129199D01*
X135612547Y-45960832D01*
X135655429Y-45828855D01*
X135691392Y-45779357D01*
X135749583Y-45760449D01*
X135807773Y-45779356D01*
G37*
%TD.AperFunction*%
%TA.AperFunction,Conductor*%
G36*
X133245945Y-42328582D02*
G01*
X133289210Y-42371847D01*
X133300000Y-42416792D01*
X133300000Y-42594999D01*
X133300001Y-42595000D01*
X134056473Y-42595000D01*
X134019881Y-42631592D01*
X133940889Y-42768409D01*
X133931084Y-42805000D01*
X133300002Y-42805000D01*
X133300001Y-42805001D01*
X133300001Y-43074067D01*
X133306415Y-43166495D01*
X133306416Y-43166499D01*
X133357331Y-43382975D01*
X133357333Y-43382982D01*
X133447161Y-43586425D01*
X133572840Y-43769895D01*
X133730104Y-43927159D01*
X133913574Y-44052838D01*
X134117017Y-44142666D01*
X134117016Y-44142666D01*
X134164131Y-44153747D01*
X134216448Y-44185475D01*
X134240124Y-44241894D01*
X134226116Y-44301454D01*
X134179774Y-44341406D01*
X134172059Y-44344272D01*
X134039174Y-44387449D01*
X134039171Y-44387451D01*
X133870803Y-44473238D01*
X133717928Y-44584309D01*
X133584309Y-44717928D01*
X133473238Y-44870803D01*
X133387709Y-45038665D01*
X133344444Y-45081930D01*
X133284012Y-45091501D01*
X133229495Y-45063724D01*
X133201718Y-45009207D01*
X133200499Y-44993720D01*
X133200499Y-44752133D01*
X133200499Y-44752128D01*
X133194091Y-44692517D01*
X133194089Y-44692511D01*
X133143797Y-44557670D01*
X133057549Y-44442458D01*
X133057548Y-44442457D01*
X133057546Y-44442454D01*
X133057541Y-44442450D01*
X133040169Y-44429445D01*
X133004917Y-44379435D01*
X133000500Y-44350193D01*
X133000500Y-42518292D01*
X133002968Y-42510694D01*
X133001719Y-42502805D01*
X133012243Y-42482149D01*
X133019407Y-42460101D01*
X133029484Y-42448301D01*
X133131000Y-42346785D01*
X133185513Y-42319011D01*
X133245945Y-42328582D01*
G37*
%TD.AperFunction*%
%TD*%
M02*
