M48
; DRILL file {KiCad 9.0.2} date 2025-10-29T16:28:33+0100
; FORMAT={-:-/ absolute / inch / decimal}
; #@! TF.CreationDate,2025-10-29T16:28:33+01:00
; #@! TF.GenerationSoftware,Kicad,Pcbnew,9.0.2
; #@! TF.FileFunction,Plated,1,2,PTH
FMAT,2
INCH
; #@! TA.AperFunction,Plated,PTH,ComponentDrill
T1C0.0394
; #@! TA.AperFunction,Plated,PTH,ComponentDrill
T2C0.0433
; #@! TA.AperFunction,Plated,PTH,ComponentDrill
T3C0.0472
%
G90
G05
T1
X3.6142Y-4.1043
X3.6142Y-4.2043
X3.6142Y-4.3043
X3.6142Y-4.4043
X3.6142Y-4.5043
X3.6142Y-4.6043
X3.6142Y-4.7043
X3.6142Y-4.8043
X3.6142Y-4.9043
X3.6142Y-5.0043
X3.6142Y-5.1043
X3.6142Y-5.2043
X3.6142Y-5.3043
X3.6142Y-5.4043
X3.6142Y-5.5043
X3.6142Y-5.6043
X4.8009Y-4.1043
X4.8009Y-4.2043
X4.8009Y-4.3043
X4.8009Y-4.4043
X4.8009Y-4.5043
X4.8009Y-4.6043
X4.8009Y-4.7043
X4.8009Y-4.8043
X4.8009Y-4.9043
X4.8009Y-5.0043
X4.8009Y-5.1043
X4.8009Y-5.2043
X4.8009Y-5.3043
X4.8009Y-5.4043
X4.8009Y-5.5043
X4.8031Y-5.6043
X5.0492Y-4.4441
X5.0492Y-4.5441
X5.0492Y-4.6441
X5.0492Y-4.7441
X5.0492Y-4.8441
X5.0492Y-4.9441
X5.0492Y-5.0441
X5.5787Y-5.5906
X5.8386Y-5.5906
T2
X5.187Y-5.4626
X5.187Y-5.7185
X5.3642Y-5.4626
X5.3642Y-5.7185
X6.0531Y-5.4626
X6.0531Y-5.7185
X6.2303Y-5.4626
X6.2303Y-5.7185
T3
X5.1969Y-1.7913
X5.1969Y-2.7559
X5.1969Y-3.7205
X5.2953Y-1.6929
X5.2953Y-1.7913
X5.2953Y-1.8898
X5.2953Y-2.6575
X5.2953Y-2.7559
X5.2953Y-2.8543
X5.2953Y-3.622
X5.2953Y-3.7205
X5.2953Y-3.8189
X5.3937Y-1.7913
X5.3937Y-2.7559
X5.3937Y-3.7205
X6.1614Y-1.7913
X6.1614Y-2.7598
X6.1614Y-3.7205
X6.2598Y-1.6929
X6.2598Y-1.7913
X6.2598Y-1.8898
X6.2598Y-2.6614
X6.2598Y-2.7598
X6.2598Y-2.8583
X6.2598Y-3.622
X6.2598Y-3.7205
X6.2598Y-3.8189
X6.3583Y-1.7913
X6.3583Y-2.7598
X6.3583Y-3.7205
M30
