%TF.GenerationSoftware,KiCad,Pcbnew,9.0.2*%
%TF.CreationDate,2025-10-29T16:28:33+01:00*%
%TF.ProjectId,neverx_main,6e657665-7278-45f6-9d61-696e2e6b6963,rev?*%
%TF.SameCoordinates,Original*%
%TF.FileFunction,Soldermask,Bot*%
%TF.FilePolarity,Negative*%
%FSLAX46Y46*%
G04 Gerber Fmt 4.6, Leading zero omitted, Abs format (unit mm)*
G04 Created by KiCad (PCBNEW 9.0.2) date 2025-10-29 16:28:33*
%MOMM*%
%LPD*%
G01*
G04 APERTURE LIST*
G04 Aperture macros list*
%AMRoundRect*
0 Rectangle with rounded corners*
0 $1 Rounding radius*
0 $2 $3 $4 $5 $6 $7 $8 $9 X,Y pos of 4 corners*
0 Add a 4 corners polygon primitive as box body*
4,1,4,$2,$3,$4,$5,$6,$7,$8,$9,$2,$3,0*
0 Add four circle primitives for the rounded corners*
1,1,$1+$1,$2,$3*
1,1,$1+$1,$4,$5*
1,1,$1+$1,$6,$7*
1,1,$1+$1,$8,$9*
0 Add four rect primitives between the rounded corners*
20,1,$1+$1,$2,$3,$4,$5,0*
20,1,$1+$1,$4,$5,$6,$7,0*
20,1,$1+$1,$6,$7,$8,$9,0*
20,1,$1+$1,$8,$9,$2,$3,0*%
G04 Aperture macros list end*
%ADD10C,3.200000*%
%ADD11R,2.000000X2.000000*%
%ADD12C,2.000000*%
%ADD13RoundRect,0.300000X-1.000000X-0.700000X1.000000X-0.700000X1.000000X0.700000X-1.000000X0.700000X0*%
%ADD14RoundRect,1.000000X0.000010X-0.300000X0.000010X0.300000X-0.000010X0.300000X-0.000010X-0.300000X0*%
%ADD15RoundRect,1.000000X-0.300000X-0.000010X0.300000X-0.000010X0.300000X0.000010X-0.300000X0.000010X0*%
%ADD16RoundRect,1.000000X-0.000010X0.300000X-0.000010X-0.300000X0.000010X-0.300000X0.000010X0.300000X0*%
%ADD17RoundRect,0.400000X0.600000X-0.400000X0.600000X0.400000X-0.600000X0.400000X-0.600000X-0.400000X0*%
%ADD18O,2.000000X1.600000*%
%ADD19RoundRect,0.800000X0.200000X-0.000010X0.200000X0.000010X-0.200000X0.000010X-0.200000X-0.000010X0*%
G04 APERTURE END LIST*
D10*
%TO.C,H6*%
X146750000Y-57750000D03*
%TD*%
D11*
%TO.C,BZ2*%
X141700000Y-142000000D03*
D12*
X148300000Y-142000000D03*
%TD*%
D10*
%TO.C,H5*%
X146750000Y-82250000D03*
%TD*%
D13*
%TO.C,J1*%
X131700000Y-45500000D03*
D14*
X134500000Y-42700000D03*
D15*
X137300000Y-45500000D03*
D16*
X134500000Y-48300000D03*
D12*
X134500000Y-45500000D03*
%TD*%
%TO.C,SW1*%
X131750000Y-145250000D03*
X131750000Y-138750000D03*
X136250000Y-145250000D03*
X136250000Y-138750000D03*
%TD*%
D10*
%TO.C,H2*%
X93500000Y-33500000D03*
%TD*%
D13*
%TO.C,J4*%
X156200000Y-70100000D03*
D14*
X159000000Y-67300000D03*
D15*
X161800000Y-70100000D03*
D16*
X159000000Y-72900000D03*
D12*
X159000000Y-70100000D03*
%TD*%
D13*
%TO.C,J3*%
X131700000Y-70000000D03*
D14*
X134500000Y-67200000D03*
D15*
X137300000Y-70000000D03*
D16*
X134500000Y-72800000D03*
D12*
X134500000Y-70000000D03*
%TD*%
D10*
%TO.C,H3*%
X166500000Y-151500000D03*
%TD*%
%TO.C,H4*%
X166500000Y-33500000D03*
%TD*%
D13*
%TO.C,J5*%
X131700000Y-94500000D03*
D14*
X134500000Y-91700000D03*
D15*
X137300000Y-94500000D03*
D16*
X134500000Y-97300000D03*
D12*
X134500000Y-94500000D03*
%TD*%
D13*
%TO.C,J2*%
X156200000Y-45500000D03*
D14*
X159000000Y-42700000D03*
D15*
X161800000Y-45500000D03*
D16*
X159000000Y-48300000D03*
D12*
X159000000Y-45500000D03*
%TD*%
D17*
%TO.C,U3*%
X128250000Y-128120000D03*
D18*
X128250000Y-125580000D03*
X128250000Y-123040000D03*
X128250000Y-120500000D03*
X128250000Y-117960000D03*
X128250000Y-115420000D03*
X128250000Y-112880000D03*
%TD*%
D19*
%TO.C,U1*%
X122000000Y-142350000D03*
X121942099Y-139810000D03*
X121942099Y-137270000D03*
X121942099Y-134730000D03*
X121942099Y-132190000D03*
X121942099Y-129650000D03*
X121942099Y-127110000D03*
X121942099Y-124570000D03*
X121942099Y-122030000D03*
X121942099Y-119490000D03*
X121942099Y-116950000D03*
X121942099Y-114410000D03*
X121942099Y-111870000D03*
X121942099Y-109330000D03*
X121942099Y-106790000D03*
X121942099Y-104250000D03*
X91800000Y-104250000D03*
X91800000Y-106790000D03*
X91800000Y-109330000D03*
X91800000Y-111870000D03*
X91800000Y-114410000D03*
X91800000Y-116950000D03*
X91800000Y-119490000D03*
X91800000Y-122030000D03*
X91800000Y-124570000D03*
X91800000Y-127110000D03*
X91800000Y-129650000D03*
X91800000Y-132190000D03*
X91800000Y-134730000D03*
X91800000Y-137270000D03*
X91800000Y-139810000D03*
X91800000Y-142350000D03*
%TD*%
D12*
%TO.C,SW2*%
X153750000Y-145250000D03*
X153750000Y-138750000D03*
X158250000Y-145250000D03*
X158250000Y-138750000D03*
%TD*%
D10*
%TO.C,H1*%
X93500000Y-151500000D03*
%TD*%
D13*
%TO.C,J6*%
X156200000Y-94500000D03*
D14*
X159000000Y-91700000D03*
D15*
X161800000Y-94500000D03*
D16*
X159000000Y-97300000D03*
D12*
X159000000Y-94500000D03*
%TD*%
M02*
