M48
; DRILL file {KiCad 9.0.4} date 2025-12-19T12:51:36+0100
; FORMAT={-:-/ absolute / inch / decimal}
; #@! TF.CreationDate,2025-12-19T12:51:36+01:00
; #@! TF.GenerationSoftware,Kicad,Pcbnew,9.0.4
; #@! TF.FileFunction,Plated,1,2,PTH
FMAT,2
INCH
; #@! TA.AperFunction,Plated,PTH,ViaDrill
T1C0.0118
; #@! TA.AperFunction,Plated,PTH,ComponentDrill
T2C0.0374
; #@! TA.AperFunction,Plated,PTH,ComponentDrill
T3C0.0472
%
G90
G05
T1
X3.5728Y-3.8878
X3.6024Y-4.0354
X3.6417Y-3.7303
X3.6614Y-3.8189
X3.6614Y-4.1339
X3.6713Y-3.9665
X3.7106Y-3.6417
X3.7402Y-3.7402
X3.75Y-4.2618
X3.7697Y-4.0551
X3.7795Y-4.2913
X3.7894Y-3.8583
X3.8189Y-3.622
X3.8189Y-4.0157
X3.8484Y-4.1043
X3.8681Y-3.8681
X3.8681Y-4.0059
X3.9075Y-3.6909
X3.9272Y-4.1535
X3.937Y-3.5827
X3.9469Y-4.3307
X3.9764Y-4.1732
X3.9764Y-4.252
X3.9862Y-3.8878
X4.0059Y-3.9961
X4.0157Y-3.622
X4.0551Y-3.7598
X4.0551Y-4.0551
X4.065Y-4.3307
X4.0846Y-3.9961
X4.0846Y-4.1043
X4.0945Y-3.6614
X4.1043Y-3.5531
X4.1142Y-3.7598
X4.124Y-3.8878
X4.1496Y-3.7165
X4.2323Y-4.0059
X4.2323Y-4.1339
X4.252Y-4.0551
X4.252Y-4.1732
X4.252Y-4.2913
X4.2913Y-3.75
X4.2913Y-3.937
X4.3031Y-4.2008
X4.3071Y-4.1024
X4.3307Y-3.5827
X4.3307Y-3.6417
X4.3533Y-3.9173
X4.3701Y-3.7008
X4.3996Y-3.5728
X4.4055Y-4.0512
X4.4488Y-3.622
X4.4488Y-3.6811
X4.4882Y-3.563
X4.4882Y-3.7402
X4.4882Y-3.8287
X4.4882Y-3.9764
X4.5768Y-3.8878
X4.5768Y-4.2028
X4.5945Y-4.3071
X4.6063Y-3.9764
X4.6063Y-4.0945
X4.6299Y-4.2347
X4.6457Y-3.5827
X4.7244Y-3.622
X4.7244Y-3.7795
X4.7244Y-3.8583
X4.7343Y-4.1043
X4.7343Y-4.1831
X4.7539Y-3.9862
X4.7933Y-4.3307
X4.8819Y-3.8976
X4.8819Y-4.0157
X4.8819Y-4.0945
X4.8819Y-4.2126
X4.8819Y-4.2717
X4.8819Y-4.3307
X4.9016Y-4.1437
T2
X4.5266Y-4.0512
X4.5266Y-4.1496
X4.5266Y-4.248
X4.5669Y-3.622
X4.5669Y-3.7205
X4.5669Y-3.8189
X4.7943Y-4.0512
X4.7943Y-4.1496
X4.7943Y-4.248
X4.8346Y-3.622
X4.8346Y-3.7205
X4.8346Y-3.8189
T3
X3.8386Y-3.937
X3.937Y-3.8386
X3.937Y-3.937
X3.937Y-4.0354
X4.0354Y-3.937
M30
