M48
; DRILL file {KiCad 9.0.2} date 2025-10-29T16:27:15+0100
; FORMAT={-:-/ absolute / inch / decimal}
; #@! TF.CreationDate,2025-10-29T16:27:15+01:00
; #@! TF.GenerationSoftware,Kicad,Pcbnew,9.0.2
; #@! TF.FileFunction,Plated,1,2,PTH
FMAT,2
INCH
; #@! TA.AperFunction,Plated,PTH,ViaDrill
T1C0.0118
; #@! TA.AperFunction,Plated,PTH,ComponentDrill
T2C0.0374
; #@! TA.AperFunction,Plated,PTH,ComponentDrill
T3C0.0472
%
G90
G05
T1
X4.1496Y-3.7165
X4.3031Y-4.2008
X4.3071Y-4.1024
X4.3533Y-3.9173
X4.4055Y-4.0512
X4.5945Y-4.3071
X4.6299Y-4.2347
T2
X4.5266Y-4.0512
X4.5266Y-4.1496
X4.5266Y-4.248
X4.5669Y-3.622
X4.5669Y-3.7205
X4.5669Y-3.8189
X4.7943Y-4.0512
X4.7943Y-4.1496
X4.7943Y-4.248
X4.8346Y-3.622
X4.8346Y-3.7205
X4.8346Y-3.8189
T3
X3.8386Y-3.937
X3.937Y-3.8386
X3.937Y-3.937
X3.937Y-4.0354
X4.0354Y-3.937
M30
