%TF.GenerationSoftware,KiCad,Pcbnew,9.0.4*%
%TF.CreationDate,2025-12-19T12:51:36+01:00*%
%TF.ProjectId,neverx_daugther,6e657665-7278-45f6-9461-756774686572,rev?*%
%TF.SameCoordinates,Original*%
%TF.FileFunction,Legend,Top*%
%TF.FilePolarity,Positive*%
%FSLAX46Y46*%
G04 Gerber Fmt 4.6, Leading zero omitted, Abs format (unit mm)*
G04 Created by KiCad (PCBNEW 9.0.4) date 2025-12-19 12:51:36*
%MOMM*%
%LPD*%
G01*
G04 APERTURE LIST*
G04 Aperture macros list*
%AMRoundRect*
0 Rectangle with rounded corners*
0 $1 Rounding radius*
0 $2 $3 $4 $5 $6 $7 $8 $9 X,Y pos of 4 corners*
0 Add a 4 corners polygon primitive as box body*
4,1,4,$2,$3,$4,$5,$6,$7,$8,$9,$2,$3,0*
0 Add four circle primitives for the rounded corners*
1,1,$1+$1,$2,$3*
1,1,$1+$1,$4,$5*
1,1,$1+$1,$6,$7*
1,1,$1+$1,$8,$9*
0 Add four rect primitives between the rounded corners*
20,1,$1+$1,$2,$3,$4,$5,0*
20,1,$1+$1,$4,$5,$6,$7,0*
20,1,$1+$1,$6,$7,$8,$9,0*
20,1,$1+$1,$8,$9,$2,$3,0*%
G04 Aperture macros list end*
%ADD10C,0.150000*%
%ADD11C,0.100000*%
%ADD12C,0.120000*%
%ADD13RoundRect,0.250000X0.450000X-0.350000X0.450000X0.350000X-0.450000X0.350000X-0.450000X-0.350000X0*%
%ADD14RoundRect,0.250000X-0.475000X0.337500X-0.475000X-0.337500X0.475000X-0.337500X0.475000X0.337500X0*%
%ADD15RoundRect,0.250000X0.475000X-0.337500X0.475000X0.337500X-0.475000X0.337500X-0.475000X-0.337500X0*%
%ADD16RoundRect,0.250000X0.337500X0.475000X-0.337500X0.475000X-0.337500X-0.475000X0.337500X-0.475000X0*%
%ADD17RoundRect,0.250000X0.450000X-0.325000X0.450000X0.325000X-0.450000X0.325000X-0.450000X-0.325000X0*%
%ADD18RoundRect,0.300000X-1.000000X-0.700000X1.000000X-0.700000X1.000000X0.700000X-1.000000X0.700000X0*%
%ADD19RoundRect,1.000000X0.000010X-0.300000X0.000010X0.300000X-0.000010X0.300000X-0.000010X-0.300000X0*%
%ADD20RoundRect,1.000000X-0.300000X-0.000010X0.300000X-0.000010X0.300000X0.000010X-0.300000X0.000010X0*%
%ADD21RoundRect,1.000000X-0.000010X0.300000X-0.000010X-0.300000X0.000010X-0.300000X0.000010X0.300000X0*%
%ADD22C,2.000000*%
%ADD23RoundRect,0.250000X0.725000X-0.600000X0.725000X0.600000X-0.725000X0.600000X-0.725000X-0.600000X0*%
%ADD24O,1.950000X1.700000*%
%ADD25RoundRect,0.250000X-0.725000X0.600000X-0.725000X-0.600000X0.725000X-0.600000X0.725000X0.600000X0*%
G04 APERTURE END LIST*
D10*
X118004819Y-101666666D02*
X117528628Y-101999999D01*
X118004819Y-102238094D02*
X117004819Y-102238094D01*
X117004819Y-102238094D02*
X117004819Y-101857142D01*
X117004819Y-101857142D02*
X117052438Y-101761904D01*
X117052438Y-101761904D02*
X117100057Y-101714285D01*
X117100057Y-101714285D02*
X117195295Y-101666666D01*
X117195295Y-101666666D02*
X117338152Y-101666666D01*
X117338152Y-101666666D02*
X117433390Y-101714285D01*
X117433390Y-101714285D02*
X117481009Y-101761904D01*
X117481009Y-101761904D02*
X117528628Y-101857142D01*
X117528628Y-101857142D02*
X117528628Y-102238094D01*
X117338152Y-100809523D02*
X118004819Y-100809523D01*
X116957200Y-101047618D02*
X117671485Y-101285713D01*
X117671485Y-101285713D02*
X117671485Y-100666666D01*
X118404819Y-108566666D02*
X117928628Y-108899999D01*
X118404819Y-109138094D02*
X117404819Y-109138094D01*
X117404819Y-109138094D02*
X117404819Y-108757142D01*
X117404819Y-108757142D02*
X117452438Y-108661904D01*
X117452438Y-108661904D02*
X117500057Y-108614285D01*
X117500057Y-108614285D02*
X117595295Y-108566666D01*
X117595295Y-108566666D02*
X117738152Y-108566666D01*
X117738152Y-108566666D02*
X117833390Y-108614285D01*
X117833390Y-108614285D02*
X117881009Y-108661904D01*
X117881009Y-108661904D02*
X117928628Y-108757142D01*
X117928628Y-108757142D02*
X117928628Y-109138094D01*
X117404819Y-108233332D02*
X117404819Y-107614285D01*
X117404819Y-107614285D02*
X117785771Y-107947618D01*
X117785771Y-107947618D02*
X117785771Y-107804761D01*
X117785771Y-107804761D02*
X117833390Y-107709523D01*
X117833390Y-107709523D02*
X117881009Y-107661904D01*
X117881009Y-107661904D02*
X117976247Y-107614285D01*
X117976247Y-107614285D02*
X118214342Y-107614285D01*
X118214342Y-107614285D02*
X118309580Y-107661904D01*
X118309580Y-107661904D02*
X118357200Y-107709523D01*
X118357200Y-107709523D02*
X118404819Y-107804761D01*
X118404819Y-107804761D02*
X118404819Y-108090475D01*
X118404819Y-108090475D02*
X118357200Y-108185713D01*
X118357200Y-108185713D02*
X118309580Y-108233332D01*
X111439580Y-108866666D02*
X111487200Y-108914285D01*
X111487200Y-108914285D02*
X111534819Y-109057142D01*
X111534819Y-109057142D02*
X111534819Y-109152380D01*
X111534819Y-109152380D02*
X111487200Y-109295237D01*
X111487200Y-109295237D02*
X111391961Y-109390475D01*
X111391961Y-109390475D02*
X111296723Y-109438094D01*
X111296723Y-109438094D02*
X111106247Y-109485713D01*
X111106247Y-109485713D02*
X110963390Y-109485713D01*
X110963390Y-109485713D02*
X110772914Y-109438094D01*
X110772914Y-109438094D02*
X110677676Y-109390475D01*
X110677676Y-109390475D02*
X110582438Y-109295237D01*
X110582438Y-109295237D02*
X110534819Y-109152380D01*
X110534819Y-109152380D02*
X110534819Y-109057142D01*
X110534819Y-109057142D02*
X110582438Y-108914285D01*
X110582438Y-108914285D02*
X110630057Y-108866666D01*
X110534819Y-108009523D02*
X110534819Y-108199999D01*
X110534819Y-108199999D02*
X110582438Y-108295237D01*
X110582438Y-108295237D02*
X110630057Y-108342856D01*
X110630057Y-108342856D02*
X110772914Y-108438094D01*
X110772914Y-108438094D02*
X110963390Y-108485713D01*
X110963390Y-108485713D02*
X111344342Y-108485713D01*
X111344342Y-108485713D02*
X111439580Y-108438094D01*
X111439580Y-108438094D02*
X111487200Y-108390475D01*
X111487200Y-108390475D02*
X111534819Y-108295237D01*
X111534819Y-108295237D02*
X111534819Y-108104761D01*
X111534819Y-108104761D02*
X111487200Y-108009523D01*
X111487200Y-108009523D02*
X111439580Y-107961904D01*
X111439580Y-107961904D02*
X111344342Y-107914285D01*
X111344342Y-107914285D02*
X111106247Y-107914285D01*
X111106247Y-107914285D02*
X111011009Y-107961904D01*
X111011009Y-107961904D02*
X110963390Y-108009523D01*
X110963390Y-108009523D02*
X110915771Y-108104761D01*
X110915771Y-108104761D02*
X110915771Y-108295237D01*
X110915771Y-108295237D02*
X110963390Y-108390475D01*
X110963390Y-108390475D02*
X111011009Y-108438094D01*
X111011009Y-108438094D02*
X111106247Y-108485713D01*
X111504819Y-97566666D02*
X111028628Y-97899999D01*
X111504819Y-98138094D02*
X110504819Y-98138094D01*
X110504819Y-98138094D02*
X110504819Y-97757142D01*
X110504819Y-97757142D02*
X110552438Y-97661904D01*
X110552438Y-97661904D02*
X110600057Y-97614285D01*
X110600057Y-97614285D02*
X110695295Y-97566666D01*
X110695295Y-97566666D02*
X110838152Y-97566666D01*
X110838152Y-97566666D02*
X110933390Y-97614285D01*
X110933390Y-97614285D02*
X110981009Y-97661904D01*
X110981009Y-97661904D02*
X111028628Y-97757142D01*
X111028628Y-97757142D02*
X111028628Y-98138094D01*
X110600057Y-97185713D02*
X110552438Y-97138094D01*
X110552438Y-97138094D02*
X110504819Y-97042856D01*
X110504819Y-97042856D02*
X110504819Y-96804761D01*
X110504819Y-96804761D02*
X110552438Y-96709523D01*
X110552438Y-96709523D02*
X110600057Y-96661904D01*
X110600057Y-96661904D02*
X110695295Y-96614285D01*
X110695295Y-96614285D02*
X110790533Y-96614285D01*
X110790533Y-96614285D02*
X110933390Y-96661904D01*
X110933390Y-96661904D02*
X111504819Y-97233332D01*
X111504819Y-97233332D02*
X111504819Y-96614285D01*
X116279580Y-108566666D02*
X116327200Y-108614285D01*
X116327200Y-108614285D02*
X116374819Y-108757142D01*
X116374819Y-108757142D02*
X116374819Y-108852380D01*
X116374819Y-108852380D02*
X116327200Y-108995237D01*
X116327200Y-108995237D02*
X116231961Y-109090475D01*
X116231961Y-109090475D02*
X116136723Y-109138094D01*
X116136723Y-109138094D02*
X115946247Y-109185713D01*
X115946247Y-109185713D02*
X115803390Y-109185713D01*
X115803390Y-109185713D02*
X115612914Y-109138094D01*
X115612914Y-109138094D02*
X115517676Y-109090475D01*
X115517676Y-109090475D02*
X115422438Y-108995237D01*
X115422438Y-108995237D02*
X115374819Y-108852380D01*
X115374819Y-108852380D02*
X115374819Y-108757142D01*
X115374819Y-108757142D02*
X115422438Y-108614285D01*
X115422438Y-108614285D02*
X115470057Y-108566666D01*
X115374819Y-108233332D02*
X115374819Y-107566666D01*
X115374819Y-107566666D02*
X116374819Y-107995237D01*
X112133333Y-111739580D02*
X112085714Y-111787200D01*
X112085714Y-111787200D02*
X111942857Y-111834819D01*
X111942857Y-111834819D02*
X111847619Y-111834819D01*
X111847619Y-111834819D02*
X111704762Y-111787200D01*
X111704762Y-111787200D02*
X111609524Y-111691961D01*
X111609524Y-111691961D02*
X111561905Y-111596723D01*
X111561905Y-111596723D02*
X111514286Y-111406247D01*
X111514286Y-111406247D02*
X111514286Y-111263390D01*
X111514286Y-111263390D02*
X111561905Y-111072914D01*
X111561905Y-111072914D02*
X111609524Y-110977676D01*
X111609524Y-110977676D02*
X111704762Y-110882438D01*
X111704762Y-110882438D02*
X111847619Y-110834819D01*
X111847619Y-110834819D02*
X111942857Y-110834819D01*
X111942857Y-110834819D02*
X112085714Y-110882438D01*
X112085714Y-110882438D02*
X112133333Y-110930057D01*
X113038095Y-110834819D02*
X112561905Y-110834819D01*
X112561905Y-110834819D02*
X112514286Y-111311009D01*
X112514286Y-111311009D02*
X112561905Y-111263390D01*
X112561905Y-111263390D02*
X112657143Y-111215771D01*
X112657143Y-111215771D02*
X112895238Y-111215771D01*
X112895238Y-111215771D02*
X112990476Y-111263390D01*
X112990476Y-111263390D02*
X113038095Y-111311009D01*
X113038095Y-111311009D02*
X113085714Y-111406247D01*
X113085714Y-111406247D02*
X113085714Y-111644342D01*
X113085714Y-111644342D02*
X113038095Y-111739580D01*
X113038095Y-111739580D02*
X112990476Y-111787200D01*
X112990476Y-111787200D02*
X112895238Y-111834819D01*
X112895238Y-111834819D02*
X112657143Y-111834819D01*
X112657143Y-111834819D02*
X112561905Y-111787200D01*
X112561905Y-111787200D02*
X112514286Y-111739580D01*
X112133333Y-109739580D02*
X112085714Y-109787200D01*
X112085714Y-109787200D02*
X111942857Y-109834819D01*
X111942857Y-109834819D02*
X111847619Y-109834819D01*
X111847619Y-109834819D02*
X111704762Y-109787200D01*
X111704762Y-109787200D02*
X111609524Y-109691961D01*
X111609524Y-109691961D02*
X111561905Y-109596723D01*
X111561905Y-109596723D02*
X111514286Y-109406247D01*
X111514286Y-109406247D02*
X111514286Y-109263390D01*
X111514286Y-109263390D02*
X111561905Y-109072914D01*
X111561905Y-109072914D02*
X111609524Y-108977676D01*
X111609524Y-108977676D02*
X111704762Y-108882438D01*
X111704762Y-108882438D02*
X111847619Y-108834819D01*
X111847619Y-108834819D02*
X111942857Y-108834819D01*
X111942857Y-108834819D02*
X112085714Y-108882438D01*
X112085714Y-108882438D02*
X112133333Y-108930057D01*
X112990476Y-109168152D02*
X112990476Y-109834819D01*
X112752381Y-108787200D02*
X112514286Y-109501485D01*
X112514286Y-109501485D02*
X113133333Y-109501485D01*
X111504819Y-104966666D02*
X111504819Y-105442856D01*
X111504819Y-105442856D02*
X110504819Y-105442856D01*
X111504819Y-104109523D02*
X111504819Y-104680951D01*
X111504819Y-104395237D02*
X110504819Y-104395237D01*
X110504819Y-104395237D02*
X110647676Y-104490475D01*
X110647676Y-104490475D02*
X110742914Y-104585713D01*
X110742914Y-104585713D02*
X110790533Y-104680951D01*
X111504819Y-101266666D02*
X111028628Y-101599999D01*
X111504819Y-101838094D02*
X110504819Y-101838094D01*
X110504819Y-101838094D02*
X110504819Y-101457142D01*
X110504819Y-101457142D02*
X110552438Y-101361904D01*
X110552438Y-101361904D02*
X110600057Y-101314285D01*
X110600057Y-101314285D02*
X110695295Y-101266666D01*
X110695295Y-101266666D02*
X110838152Y-101266666D01*
X110838152Y-101266666D02*
X110933390Y-101314285D01*
X110933390Y-101314285D02*
X110981009Y-101361904D01*
X110981009Y-101361904D02*
X111028628Y-101457142D01*
X111028628Y-101457142D02*
X111028628Y-101838094D01*
X111504819Y-100314285D02*
X111504819Y-100885713D01*
X111504819Y-100599999D02*
X110504819Y-100599999D01*
X110504819Y-100599999D02*
X110647676Y-100695237D01*
X110647676Y-100695237D02*
X110742914Y-100790475D01*
X110742914Y-100790475D02*
X110790533Y-100885713D01*
D11*
X99666666Y-98957419D02*
X99666666Y-99671704D01*
X99666666Y-99671704D02*
X99619047Y-99814561D01*
X99619047Y-99814561D02*
X99523809Y-99909800D01*
X99523809Y-99909800D02*
X99380952Y-99957419D01*
X99380952Y-99957419D02*
X99285714Y-99957419D01*
X100666666Y-99957419D02*
X100095238Y-99957419D01*
X100380952Y-99957419D02*
X100380952Y-98957419D01*
X100380952Y-98957419D02*
X100285714Y-99100276D01*
X100285714Y-99100276D02*
X100190476Y-99195514D01*
X100190476Y-99195514D02*
X100095238Y-99243133D01*
D12*
%TO.C,R4*%
X118465000Y-101727064D02*
X118465000Y-101272936D01*
X119935000Y-101727064D02*
X119935000Y-101272936D01*
%TO.C,R3*%
X118865000Y-108627064D02*
X118865000Y-108172936D01*
X120335000Y-108627064D02*
X120335000Y-108172936D01*
%TO.C,C6*%
X108665000Y-108438748D02*
X108665000Y-108961252D01*
X110135000Y-108438748D02*
X110135000Y-108961252D01*
%TO.C,R2*%
X111965000Y-97627064D02*
X111965000Y-97172936D01*
X113435000Y-97627064D02*
X113435000Y-97172936D01*
%TO.C,C7*%
X116865000Y-108661252D02*
X116865000Y-108138748D01*
X118335000Y-108661252D02*
X118335000Y-108138748D01*
%TO.C,C5*%
X112561252Y-108965000D02*
X112038748Y-108965000D01*
X112561252Y-110435000D02*
X112038748Y-110435000D01*
%TO.C,C4*%
X112561252Y-106965000D02*
X112038748Y-106965000D01*
X112561252Y-108435000D02*
X112038748Y-108435000D01*
%TO.C,L1*%
X111990000Y-105061252D02*
X111990000Y-104538748D01*
X113410000Y-105061252D02*
X113410000Y-104538748D01*
%TO.C,R1*%
X111965000Y-101327064D02*
X111965000Y-100872936D01*
X113435000Y-101327064D02*
X113435000Y-100872936D01*
D11*
%TO.C,J1*%
X96800000Y-94897370D02*
G75*
G02*
X94897370Y-96800000I-951315J-951315D01*
G01*
X106000000Y-100000000D02*
G75*
G02*
X94000000Y-100000000I-6000000J0D01*
G01*
X94000000Y-100000000D02*
G75*
G02*
X106000000Y-100000000I6000000J0D01*
G01*
X110750000Y-100000000D02*
G75*
G02*
X89250000Y-100000000I-10750000J0D01*
G01*
X89250000Y-100000000D02*
G75*
G02*
X110750000Y-100000000I10750000J0D01*
G01*
%TD*%
%LPC*%
D13*
%TO.C,R4*%
X119200000Y-102500000D03*
X119200000Y-100500000D03*
%TD*%
%TO.C,R3*%
X119600000Y-109400000D03*
X119600000Y-107400000D03*
%TD*%
D14*
%TO.C,C6*%
X109400000Y-107662500D03*
X109400000Y-109737500D03*
%TD*%
D13*
%TO.C,R2*%
X112700000Y-98400000D03*
X112700000Y-96400000D03*
%TD*%
D15*
%TO.C,C7*%
X117600000Y-109437500D03*
X117600000Y-107362500D03*
%TD*%
D16*
%TO.C,C5*%
X113337500Y-109700000D03*
X111262500Y-109700000D03*
%TD*%
%TO.C,C4*%
X113337500Y-107700000D03*
X111262500Y-107700000D03*
%TD*%
D17*
%TO.C,L1*%
X112700000Y-105825000D03*
X112700000Y-103775000D03*
%TD*%
D13*
%TO.C,R1*%
X112700000Y-102100000D03*
X112700000Y-100100000D03*
%TD*%
D18*
%TO.C,J1*%
X97200000Y-100000000D03*
D19*
X100000000Y-97200000D03*
D20*
X102800000Y-100000000D03*
D21*
X100000000Y-102800000D03*
D22*
X100000000Y-100000000D03*
%TD*%
D23*
%TO.C,J2*%
X122800000Y-97000000D03*
D24*
X122800000Y-94500000D03*
X122800000Y-92000000D03*
%TD*%
D25*
%TO.C,J4*%
X121775000Y-102900000D03*
D24*
X121775000Y-105400000D03*
X121775000Y-107900000D03*
%TD*%
D25*
%TO.C,J5*%
X114975000Y-102900000D03*
D24*
X114975000Y-105400000D03*
X114975000Y-107900000D03*
%TD*%
D23*
%TO.C,J3*%
X116000000Y-97000000D03*
D24*
X116000000Y-94500000D03*
X116000000Y-92000000D03*
%TD*%
%LPD*%
M02*
