%TF.GenerationSoftware,KiCad,Pcbnew,9.0.4*%
%TF.CreationDate,2025-12-19T12:51:36+01:00*%
%TF.ProjectId,neverx_daugther,6e657665-7278-45f6-9461-756774686572,rev?*%
%TF.SameCoordinates,Original*%
%TF.FileFunction,Legend,Bot*%
%TF.FilePolarity,Positive*%
%FSLAX46Y46*%
G04 Gerber Fmt 4.6, Leading zero omitted, Abs format (unit mm)*
G04 Created by KiCad (PCBNEW 9.0.4) date 2025-12-19 12:51:36*
%MOMM*%
%LPD*%
G01*
G04 APERTURE LIST*
G04 Aperture macros list*
%AMRoundRect*
0 Rectangle with rounded corners*
0 $1 Rounding radius*
0 $2 $3 $4 $5 $6 $7 $8 $9 X,Y pos of 4 corners*
0 Add a 4 corners polygon primitive as box body*
4,1,4,$2,$3,$4,$5,$6,$7,$8,$9,$2,$3,0*
0 Add four circle primitives for the rounded corners*
1,1,$1+$1,$2,$3*
1,1,$1+$1,$4,$5*
1,1,$1+$1,$6,$7*
1,1,$1+$1,$8,$9*
0 Add four rect primitives between the rounded corners*
20,1,$1+$1,$2,$3,$4,$5,0*
20,1,$1+$1,$4,$5,$6,$7,0*
20,1,$1+$1,$6,$7,$8,$9,0*
20,1,$1+$1,$8,$9,$2,$3,0*%
G04 Aperture macros list end*
%ADD10C,0.150000*%
%ADD11C,0.120000*%
%ADD12RoundRect,0.300000X-1.000000X-0.700000X1.000000X-0.700000X1.000000X0.700000X-1.000000X0.700000X0*%
%ADD13RoundRect,1.000000X0.000010X-0.300000X0.000010X0.300000X-0.000010X0.300000X-0.000010X-0.300000X0*%
%ADD14RoundRect,1.000000X-0.300000X-0.000010X0.300000X-0.000010X0.300000X0.000010X-0.300000X0.000010X0*%
%ADD15RoundRect,1.000000X-0.000010X0.300000X-0.000010X-0.300000X0.000010X-0.300000X0.000010X0.300000X0*%
%ADD16C,2.000000*%
%ADD17RoundRect,0.250000X0.475000X-0.337500X0.475000X0.337500X-0.475000X0.337500X-0.475000X-0.337500X0*%
%ADD18RoundRect,0.250000X0.725000X-0.600000X0.725000X0.600000X-0.725000X0.600000X-0.725000X-0.600000X0*%
%ADD19O,1.950000X1.700000*%
%ADD20RoundRect,0.250000X-0.725000X0.600000X-0.725000X-0.600000X0.725000X-0.600000X0.725000X0.600000X0*%
%ADD21RoundRect,0.200000X0.200000X-0.750000X0.200000X0.750000X-0.200000X0.750000X-0.200000X-0.750000X0*%
%ADD22RoundRect,0.150000X0.825000X0.150000X-0.825000X0.150000X-0.825000X-0.150000X0.825000X-0.150000X0*%
%ADD23RoundRect,0.250000X0.337500X0.475000X-0.337500X0.475000X-0.337500X-0.475000X0.337500X-0.475000X0*%
G04 APERTURE END LIST*
D10*
X112939580Y-97433333D02*
X112987200Y-97385714D01*
X112987200Y-97385714D02*
X113034819Y-97242857D01*
X113034819Y-97242857D02*
X113034819Y-97147619D01*
X113034819Y-97147619D02*
X112987200Y-97004762D01*
X112987200Y-97004762D02*
X112891961Y-96909524D01*
X112891961Y-96909524D02*
X112796723Y-96861905D01*
X112796723Y-96861905D02*
X112606247Y-96814286D01*
X112606247Y-96814286D02*
X112463390Y-96814286D01*
X112463390Y-96814286D02*
X112272914Y-96861905D01*
X112272914Y-96861905D02*
X112177676Y-96909524D01*
X112177676Y-96909524D02*
X112082438Y-97004762D01*
X112082438Y-97004762D02*
X112034819Y-97147619D01*
X112034819Y-97147619D02*
X112034819Y-97242857D01*
X112034819Y-97242857D02*
X112082438Y-97385714D01*
X112082438Y-97385714D02*
X112130057Y-97433333D01*
X113034819Y-98385714D02*
X113034819Y-97814286D01*
X113034819Y-98100000D02*
X112034819Y-98100000D01*
X112034819Y-98100000D02*
X112177676Y-98004762D01*
X112177676Y-98004762D02*
X112272914Y-97909524D01*
X112272914Y-97909524D02*
X112320533Y-97814286D01*
X125804819Y-94166666D02*
X126519104Y-94166666D01*
X126519104Y-94166666D02*
X126661961Y-94119047D01*
X126661961Y-94119047D02*
X126757200Y-94023809D01*
X126757200Y-94023809D02*
X126804819Y-93880952D01*
X126804819Y-93880952D02*
X126804819Y-93785714D01*
X125900057Y-94595238D02*
X125852438Y-94642857D01*
X125852438Y-94642857D02*
X125804819Y-94738095D01*
X125804819Y-94738095D02*
X125804819Y-94976190D01*
X125804819Y-94976190D02*
X125852438Y-95071428D01*
X125852438Y-95071428D02*
X125900057Y-95119047D01*
X125900057Y-95119047D02*
X125995295Y-95166666D01*
X125995295Y-95166666D02*
X126090533Y-95166666D01*
X126090533Y-95166666D02*
X126233390Y-95119047D01*
X126233390Y-95119047D02*
X126804819Y-94547619D01*
X126804819Y-94547619D02*
X126804819Y-95166666D01*
X117679819Y-105066666D02*
X118394104Y-105066666D01*
X118394104Y-105066666D02*
X118536961Y-105019047D01*
X118536961Y-105019047D02*
X118632200Y-104923809D01*
X118632200Y-104923809D02*
X118679819Y-104780952D01*
X118679819Y-104780952D02*
X118679819Y-104685714D01*
X118013152Y-105971428D02*
X118679819Y-105971428D01*
X117632200Y-105733333D02*
X118346485Y-105495238D01*
X118346485Y-105495238D02*
X118346485Y-106114285D01*
X110200057Y-92704761D02*
X110152438Y-92609523D01*
X110152438Y-92609523D02*
X110057200Y-92514285D01*
X110057200Y-92514285D02*
X109914342Y-92371428D01*
X109914342Y-92371428D02*
X109866723Y-92276190D01*
X109866723Y-92276190D02*
X109866723Y-92180952D01*
X110104819Y-92228571D02*
X110057200Y-92133333D01*
X110057200Y-92133333D02*
X109961961Y-92038095D01*
X109961961Y-92038095D02*
X109771485Y-91990476D01*
X109771485Y-91990476D02*
X109438152Y-91990476D01*
X109438152Y-91990476D02*
X109247676Y-92038095D01*
X109247676Y-92038095D02*
X109152438Y-92133333D01*
X109152438Y-92133333D02*
X109104819Y-92228571D01*
X109104819Y-92228571D02*
X109104819Y-92419047D01*
X109104819Y-92419047D02*
X109152438Y-92514285D01*
X109152438Y-92514285D02*
X109247676Y-92609523D01*
X109247676Y-92609523D02*
X109438152Y-92657142D01*
X109438152Y-92657142D02*
X109771485Y-92657142D01*
X109771485Y-92657142D02*
X109961961Y-92609523D01*
X109961961Y-92609523D02*
X110057200Y-92514285D01*
X110057200Y-92514285D02*
X110104819Y-92419047D01*
X110104819Y-92419047D02*
X110104819Y-92228571D01*
X110104819Y-93609523D02*
X110104819Y-93038095D01*
X110104819Y-93323809D02*
X109104819Y-93323809D01*
X109104819Y-93323809D02*
X109247676Y-93228571D01*
X109247676Y-93228571D02*
X109342914Y-93133333D01*
X109342914Y-93133333D02*
X109390533Y-93038095D01*
X108861904Y-98354819D02*
X108861904Y-99164342D01*
X108861904Y-99164342D02*
X108814285Y-99259580D01*
X108814285Y-99259580D02*
X108766666Y-99307200D01*
X108766666Y-99307200D02*
X108671428Y-99354819D01*
X108671428Y-99354819D02*
X108480952Y-99354819D01*
X108480952Y-99354819D02*
X108385714Y-99307200D01*
X108385714Y-99307200D02*
X108338095Y-99259580D01*
X108338095Y-99259580D02*
X108290476Y-99164342D01*
X108290476Y-99164342D02*
X108290476Y-98354819D01*
X107290476Y-99354819D02*
X107861904Y-99354819D01*
X107576190Y-99354819D02*
X107576190Y-98354819D01*
X107576190Y-98354819D02*
X107671428Y-98497676D01*
X107671428Y-98497676D02*
X107766666Y-98592914D01*
X107766666Y-98592914D02*
X107861904Y-98640533D01*
X110939580Y-97433333D02*
X110987200Y-97385714D01*
X110987200Y-97385714D02*
X111034819Y-97242857D01*
X111034819Y-97242857D02*
X111034819Y-97147619D01*
X111034819Y-97147619D02*
X110987200Y-97004762D01*
X110987200Y-97004762D02*
X110891961Y-96909524D01*
X110891961Y-96909524D02*
X110796723Y-96861905D01*
X110796723Y-96861905D02*
X110606247Y-96814286D01*
X110606247Y-96814286D02*
X110463390Y-96814286D01*
X110463390Y-96814286D02*
X110272914Y-96861905D01*
X110272914Y-96861905D02*
X110177676Y-96909524D01*
X110177676Y-96909524D02*
X110082438Y-97004762D01*
X110082438Y-97004762D02*
X110034819Y-97147619D01*
X110034819Y-97147619D02*
X110034819Y-97242857D01*
X110034819Y-97242857D02*
X110082438Y-97385714D01*
X110082438Y-97385714D02*
X110130057Y-97433333D01*
X110034819Y-97766667D02*
X110034819Y-98385714D01*
X110034819Y-98385714D02*
X110415771Y-98052381D01*
X110415771Y-98052381D02*
X110415771Y-98195238D01*
X110415771Y-98195238D02*
X110463390Y-98290476D01*
X110463390Y-98290476D02*
X110511009Y-98338095D01*
X110511009Y-98338095D02*
X110606247Y-98385714D01*
X110606247Y-98385714D02*
X110844342Y-98385714D01*
X110844342Y-98385714D02*
X110939580Y-98338095D01*
X110939580Y-98338095D02*
X110987200Y-98290476D01*
X110987200Y-98290476D02*
X111034819Y-98195238D01*
X111034819Y-98195238D02*
X111034819Y-97909524D01*
X111034819Y-97909524D02*
X110987200Y-97814286D01*
X110987200Y-97814286D02*
X110939580Y-97766667D01*
X104866666Y-95779580D02*
X104914285Y-95827200D01*
X104914285Y-95827200D02*
X105057142Y-95874819D01*
X105057142Y-95874819D02*
X105152380Y-95874819D01*
X105152380Y-95874819D02*
X105295237Y-95827200D01*
X105295237Y-95827200D02*
X105390475Y-95731961D01*
X105390475Y-95731961D02*
X105438094Y-95636723D01*
X105438094Y-95636723D02*
X105485713Y-95446247D01*
X105485713Y-95446247D02*
X105485713Y-95303390D01*
X105485713Y-95303390D02*
X105438094Y-95112914D01*
X105438094Y-95112914D02*
X105390475Y-95017676D01*
X105390475Y-95017676D02*
X105295237Y-94922438D01*
X105295237Y-94922438D02*
X105152380Y-94874819D01*
X105152380Y-94874819D02*
X105057142Y-94874819D01*
X105057142Y-94874819D02*
X104914285Y-94922438D01*
X104914285Y-94922438D02*
X104866666Y-94970057D01*
X104485713Y-94970057D02*
X104438094Y-94922438D01*
X104438094Y-94922438D02*
X104342856Y-94874819D01*
X104342856Y-94874819D02*
X104104761Y-94874819D01*
X104104761Y-94874819D02*
X104009523Y-94922438D01*
X104009523Y-94922438D02*
X103961904Y-94970057D01*
X103961904Y-94970057D02*
X103914285Y-95065295D01*
X103914285Y-95065295D02*
X103914285Y-95160533D01*
X103914285Y-95160533D02*
X103961904Y-95303390D01*
X103961904Y-95303390D02*
X104533332Y-95874819D01*
X104533332Y-95874819D02*
X103914285Y-95874819D01*
X110879819Y-105066666D02*
X111594104Y-105066666D01*
X111594104Y-105066666D02*
X111736961Y-105019047D01*
X111736961Y-105019047D02*
X111832200Y-104923809D01*
X111832200Y-104923809D02*
X111879819Y-104780952D01*
X111879819Y-104780952D02*
X111879819Y-104685714D01*
X110879819Y-106019047D02*
X110879819Y-105542857D01*
X110879819Y-105542857D02*
X111356009Y-105495238D01*
X111356009Y-105495238D02*
X111308390Y-105542857D01*
X111308390Y-105542857D02*
X111260771Y-105638095D01*
X111260771Y-105638095D02*
X111260771Y-105876190D01*
X111260771Y-105876190D02*
X111308390Y-105971428D01*
X111308390Y-105971428D02*
X111356009Y-106019047D01*
X111356009Y-106019047D02*
X111451247Y-106066666D01*
X111451247Y-106066666D02*
X111689342Y-106066666D01*
X111689342Y-106066666D02*
X111784580Y-106019047D01*
X111784580Y-106019047D02*
X111832200Y-105971428D01*
X111832200Y-105971428D02*
X111879819Y-105876190D01*
X111879819Y-105876190D02*
X111879819Y-105638095D01*
X111879819Y-105638095D02*
X111832200Y-105542857D01*
X111832200Y-105542857D02*
X111784580Y-105495238D01*
X119004819Y-94166666D02*
X119719104Y-94166666D01*
X119719104Y-94166666D02*
X119861961Y-94119047D01*
X119861961Y-94119047D02*
X119957200Y-94023809D01*
X119957200Y-94023809D02*
X120004819Y-93880952D01*
X120004819Y-93880952D02*
X120004819Y-93785714D01*
X119004819Y-94547619D02*
X119004819Y-95166666D01*
X119004819Y-95166666D02*
X119385771Y-94833333D01*
X119385771Y-94833333D02*
X119385771Y-94976190D01*
X119385771Y-94976190D02*
X119433390Y-95071428D01*
X119433390Y-95071428D02*
X119481009Y-95119047D01*
X119481009Y-95119047D02*
X119576247Y-95166666D01*
X119576247Y-95166666D02*
X119814342Y-95166666D01*
X119814342Y-95166666D02*
X119909580Y-95119047D01*
X119909580Y-95119047D02*
X119957200Y-95071428D01*
X119957200Y-95071428D02*
X120004819Y-94976190D01*
X120004819Y-94976190D02*
X120004819Y-94690476D01*
X120004819Y-94690476D02*
X119957200Y-94595238D01*
X119957200Y-94595238D02*
X119909580Y-94547619D01*
D11*
%TO.C,C1*%
X110165000Y-97861252D02*
X110165000Y-97338748D01*
X111635000Y-97861252D02*
X111635000Y-97338748D01*
%TO.C,J2*%
X119290000Y-89440000D02*
X125260000Y-89440000D01*
X119290000Y-99560000D02*
X119290000Y-89440000D01*
X120050000Y-90200000D02*
X120050000Y-94500000D01*
X120050000Y-98800000D02*
X120050000Y-94500000D01*
X123000000Y-89450000D02*
X123000000Y-90200000D01*
X123000000Y-90200000D02*
X120050000Y-90200000D01*
X123000000Y-98800000D02*
X120050000Y-98800000D01*
X123000000Y-99550000D02*
X123000000Y-98800000D01*
X124500000Y-89450000D02*
X125250000Y-89450000D01*
X124500000Y-91250000D02*
X124500000Y-89450000D01*
X124500000Y-92750000D02*
X125250000Y-92750000D01*
X124500000Y-96250000D02*
X124500000Y-92750000D01*
X124500000Y-97750000D02*
X125250000Y-97750000D01*
X124500000Y-99550000D02*
X124500000Y-97750000D01*
X125250000Y-89450000D02*
X125250000Y-91250000D01*
X125250000Y-91250000D02*
X124500000Y-91250000D01*
X125250000Y-92750000D02*
X125250000Y-96250000D01*
X125250000Y-96250000D02*
X124500000Y-96250000D01*
X125250000Y-97750000D02*
X125250000Y-99550000D01*
X125250000Y-99550000D02*
X124500000Y-99550000D01*
X125260000Y-89440000D02*
X125260000Y-99560000D01*
X125260000Y-99560000D02*
X119290000Y-99560000D01*
X125550000Y-98600000D02*
X125550000Y-99850000D01*
X125550000Y-99850000D02*
X124300000Y-99850000D01*
%TO.C,J4*%
X119025000Y-100050000D02*
X120275000Y-100050000D01*
X119025000Y-101300000D02*
X119025000Y-100050000D01*
X119315000Y-100340000D02*
X125285000Y-100340000D01*
X119315000Y-110460000D02*
X119315000Y-100340000D01*
X119325000Y-100350000D02*
X120075000Y-100350000D01*
X119325000Y-102150000D02*
X119325000Y-100350000D01*
X119325000Y-103650000D02*
X120075000Y-103650000D01*
X119325000Y-107150000D02*
X119325000Y-103650000D01*
X119325000Y-108650000D02*
X120075000Y-108650000D01*
X119325000Y-110450000D02*
X119325000Y-108650000D01*
X120075000Y-100350000D02*
X120075000Y-102150000D01*
X120075000Y-102150000D02*
X119325000Y-102150000D01*
X120075000Y-103650000D02*
X120075000Y-107150000D01*
X120075000Y-107150000D02*
X119325000Y-107150000D01*
X120075000Y-108650000D02*
X120075000Y-110450000D01*
X120075000Y-110450000D02*
X119325000Y-110450000D01*
X121575000Y-100350000D02*
X121575000Y-101100000D01*
X121575000Y-101100000D02*
X124525000Y-101100000D01*
X121575000Y-109700000D02*
X124525000Y-109700000D01*
X121575000Y-110450000D02*
X121575000Y-109700000D01*
X124525000Y-101100000D02*
X124525000Y-105400000D01*
X124525000Y-109700000D02*
X124525000Y-105400000D01*
X125285000Y-100340000D02*
X125285000Y-110460000D01*
X125285000Y-110460000D02*
X119315000Y-110460000D01*
%TO.C,Q1*%
X105320000Y-92040000D02*
X105320000Y-93500000D01*
X105320000Y-92040000D02*
X106250000Y-92040000D01*
X108480000Y-92040000D02*
X107550000Y-92040000D01*
X108480000Y-92840000D02*
X108480000Y-92040000D01*
X108480000Y-92840000D02*
X108480000Y-93640000D01*
X108840000Y-94380000D02*
X108510000Y-94140000D01*
X108840000Y-93900000D01*
X108840000Y-94380000D01*
G36*
X108840000Y-94380000D02*
G01*
X108510000Y-94140000D01*
X108840000Y-93900000D01*
X108840000Y-94380000D01*
G37*
%TO.C,U1*%
X108100000Y-99740000D02*
X106150000Y-99740000D01*
X108100000Y-99740000D02*
X110050000Y-99740000D01*
X108100000Y-109860000D02*
X106150000Y-109860000D01*
X108100000Y-109860000D02*
X110050000Y-109860000D01*
X110800000Y-99795000D02*
X110560000Y-99465000D01*
X111040000Y-99465000D01*
X110800000Y-99795000D01*
G36*
X110800000Y-99795000D02*
G01*
X110560000Y-99465000D01*
X111040000Y-99465000D01*
X110800000Y-99795000D01*
G37*
%TO.C,C3*%
X108165000Y-97861252D02*
X108165000Y-97338748D01*
X109635000Y-97861252D02*
X109635000Y-97338748D01*
%TO.C,C2*%
X104961252Y-96365000D02*
X104438748Y-96365000D01*
X104961252Y-97835000D02*
X104438748Y-97835000D01*
%TO.C,J5*%
X112225000Y-100050000D02*
X113475000Y-100050000D01*
X112225000Y-101300000D02*
X112225000Y-100050000D01*
X112515000Y-100340000D02*
X118485000Y-100340000D01*
X112515000Y-110460000D02*
X112515000Y-100340000D01*
X112525000Y-100350000D02*
X113275000Y-100350000D01*
X112525000Y-102150000D02*
X112525000Y-100350000D01*
X112525000Y-103650000D02*
X113275000Y-103650000D01*
X112525000Y-107150000D02*
X112525000Y-103650000D01*
X112525000Y-108650000D02*
X113275000Y-108650000D01*
X112525000Y-110450000D02*
X112525000Y-108650000D01*
X113275000Y-100350000D02*
X113275000Y-102150000D01*
X113275000Y-102150000D02*
X112525000Y-102150000D01*
X113275000Y-103650000D02*
X113275000Y-107150000D01*
X113275000Y-107150000D02*
X112525000Y-107150000D01*
X113275000Y-108650000D02*
X113275000Y-110450000D01*
X113275000Y-110450000D02*
X112525000Y-110450000D01*
X114775000Y-100350000D02*
X114775000Y-101100000D01*
X114775000Y-101100000D02*
X117725000Y-101100000D01*
X114775000Y-109700000D02*
X117725000Y-109700000D01*
X114775000Y-110450000D02*
X114775000Y-109700000D01*
X117725000Y-101100000D02*
X117725000Y-105400000D01*
X117725000Y-109700000D02*
X117725000Y-105400000D01*
X118485000Y-100340000D02*
X118485000Y-110460000D01*
X118485000Y-110460000D02*
X112515000Y-110460000D01*
%TO.C,J3*%
X112490000Y-89440000D02*
X118460000Y-89440000D01*
X112490000Y-99560000D02*
X112490000Y-89440000D01*
X113250000Y-90200000D02*
X113250000Y-94500000D01*
X113250000Y-98800000D02*
X113250000Y-94500000D01*
X116200000Y-89450000D02*
X116200000Y-90200000D01*
X116200000Y-90200000D02*
X113250000Y-90200000D01*
X116200000Y-98800000D02*
X113250000Y-98800000D01*
X116200000Y-99550000D02*
X116200000Y-98800000D01*
X117700000Y-89450000D02*
X118450000Y-89450000D01*
X117700000Y-91250000D02*
X117700000Y-89450000D01*
X117700000Y-92750000D02*
X118450000Y-92750000D01*
X117700000Y-96250000D02*
X117700000Y-92750000D01*
X117700000Y-97750000D02*
X118450000Y-97750000D01*
X117700000Y-99550000D02*
X117700000Y-97750000D01*
X118450000Y-89450000D02*
X118450000Y-91250000D01*
X118450000Y-91250000D02*
X117700000Y-91250000D01*
X118450000Y-92750000D02*
X118450000Y-96250000D01*
X118450000Y-96250000D02*
X117700000Y-96250000D01*
X118450000Y-97750000D02*
X118450000Y-99550000D01*
X118450000Y-99550000D02*
X117700000Y-99550000D01*
X118460000Y-89440000D02*
X118460000Y-99560000D01*
X118460000Y-99560000D02*
X112490000Y-99560000D01*
X118750000Y-98600000D02*
X118750000Y-99850000D01*
X118750000Y-99850000D02*
X117500000Y-99850000D01*
%TD*%
%LPC*%
D12*
%TO.C,J1*%
X97200000Y-100000000D03*
D13*
X100000000Y-97200000D03*
D14*
X102800000Y-100000000D03*
D15*
X100000000Y-102800000D03*
D16*
X100000000Y-100000000D03*
%TD*%
D17*
%TO.C,C1*%
X110900000Y-98637500D03*
X110900000Y-96562500D03*
%TD*%
D18*
%TO.C,J2*%
X122800000Y-97000000D03*
D19*
X122800000Y-94500000D03*
X122800000Y-92000000D03*
%TD*%
D20*
%TO.C,J4*%
X121775000Y-102900000D03*
D19*
X121775000Y-105400000D03*
X121775000Y-107900000D03*
%TD*%
D21*
%TO.C,Q1*%
X107850000Y-94300000D03*
X105950000Y-94300000D03*
X106900000Y-91300000D03*
%TD*%
D22*
%TO.C,U1*%
X110575000Y-100355000D03*
X110575000Y-101625000D03*
X110575000Y-102895000D03*
X110575000Y-104165000D03*
X110575000Y-105435000D03*
X110575000Y-106705000D03*
X110575000Y-107975000D03*
X110575000Y-109245000D03*
X105625000Y-109245000D03*
X105625000Y-107975000D03*
X105625000Y-106705000D03*
X105625000Y-105435000D03*
X105625000Y-104165000D03*
X105625000Y-102895000D03*
X105625000Y-101625000D03*
X105625000Y-100355000D03*
%TD*%
D17*
%TO.C,C3*%
X108900000Y-98637500D03*
X108900000Y-96562500D03*
%TD*%
D23*
%TO.C,C2*%
X105737500Y-97100000D03*
X103662500Y-97100000D03*
%TD*%
D20*
%TO.C,J5*%
X114975000Y-102900000D03*
D19*
X114975000Y-105400000D03*
X114975000Y-107900000D03*
%TD*%
D18*
%TO.C,J3*%
X116000000Y-97000000D03*
D19*
X116000000Y-94500000D03*
X116000000Y-92000000D03*
%TD*%
%LPD*%
M02*
